<?xml version="1.0" encoding="UTF-8" standalone="no"?>
<!-- Creator: CorelDRAW -->

<svg
   xmlns:dc="http://purl.org/dc/elements/1.1/"
   xmlns:cc="http://creativecommons.org/ns#"
   xmlns:rdf="http://www.w3.org/1999/02/22-rdf-syntax-ns#"
   xmlns:svg="http://www.w3.org/2000/svg"
   xmlns="http://www.w3.org/2000/svg"
   xmlns:sodipodi="http://sodipodi.sourceforge.net/DTD/sodipodi-0.dtd"
   xmlns:inkscape="http://www.inkscape.org/namespaces/inkscape"
   xml:space="preserve"
   width="50.8mm"
   height="25.4mm"
   style="shape-rendering:geometricPrecision; text-rendering:geometricPrecision; image-rendering:optimizeQuality; fill-rule:evenodd; clip-rule:evenodd"
   viewBox="0 0 50.8 25.4"
   id="svg3097"
   version="1.1"
   inkscape:version="0.48.4 r9939"
   sodipodi:docname="anschutz1903.svg"><metadata
     id="metadata3121"><rdf:RDF><cc:Work
         rdf:about=""><dc:format>image/svg+xml</dc:format><dc:type
           rdf:resource="http://purl.org/dc/dcmitype/StillImage" /><dc:title /></cc:Work></rdf:RDF></metadata><sodipodi:namedview
     pagecolor="#ffffff"
     bordercolor="#666666"
     borderopacity="1"
     objecttolerance="10"
     gridtolerance="10"
     guidetolerance="10"
     inkscape:pageopacity="0"
     inkscape:pageshadow="2"
     inkscape:window-width="1920"
     inkscape:window-height="1056"
     id="namedview3119"
     showgrid="false"
     inkscape:zoom="21.841743"
     inkscape:cx="90.806888"
     inkscape:cy="53.04545"
     inkscape:window-x="0"
     inkscape:window-y="24"
     inkscape:window-maximized="1"
     inkscape:current-layer="svg3097"
     showguides="true"
     inkscape:guide-bbox="true"><sodipodi:guide
       orientation="0,1"
       position="112.44524,57.321433"
       id="guide4289" /></sodipodi:namedview><defs
     id="defs3099"><style
       type="text/css"
       id="style3101">
    .fil0 {fill:#E77817}
    .fil2 {fill:#765531}
    .fil1 {fill:#8D683B}
   </style><filter
       inkscape:collect="always"
       id="filter13466"
       x="-0.0060309917"
       width="1.012062"
       y="-1.1676"
       height="3.3352001"><feGaussianBlur
         inkscape:collect="always"
         stdDeviation="0.22273864"
         id="feGaussianBlur13468" /></filter><filter
       inkscape:collect="always"
       id="filter13508"
       x="-0.052"
       width="1.104"
       y="-0.62400002"
       height="2.248"><feGaussianBlur
         inkscape:collect="always"
         stdDeviation="0.15474956"
         id="feGaussianBlur13510" /></filter><filter
       color-interpolation-filters="sRGB"
       inkscape:collect="always"
       id="filter13508-6"
       x="-0.052000001"
       width="1.104"
       y="-0.62400001"
       height="2.2479999"><feGaussianBlur
         inkscape:collect="always"
         stdDeviation="0.15474956"
         id="feGaussianBlur13510-6" /></filter><filter
       color-interpolation-filters="sRGB"
       inkscape:collect="always"
       id="filter13508-7"
       x="-0.052000001"
       width="1.104"
       y="-0.62400001"
       height="2.2479999"><feGaussianBlur
         inkscape:collect="always"
         stdDeviation="0.15474956"
         id="feGaussianBlur13510-5" /></filter><filter
       inkscape:collect="always"
       id="filter13570"
       x="-0.019321101"
       width="1.0386422"
       y="-0.26325001"
       height="1.5265"><feGaussianBlur
         inkscape:collect="always"
         stdDeviation="0.056816545"
         id="feGaussianBlur13572" /></filter></defs><path
     style="fill:#232420;fill-opacity:1;stroke:none"
     d="M 18.38031,11.513089 18.36162,10.970614 16.950307,10.8018 16.529719,10.578191 16.324096,9.9951636 l -0.02804,-0.6345522 0.01869,-0.4081712 3.317985,0.067273 1.3085,0.022425 1.551509,0.022425 -0.10281,1.1884798 -2.280531,0.26909 -0.579479,0.184683 c -0.224968,0.158649 -0.630499,0.232112 -0.887911,0.297439 l -0.01869,0.497627 z"
     id="path14211"
     inkscape:connector-curvature="0"
     sodipodi:nodetypes="cccccccccccccccc" /><path
     style="fill:#c3c0b6;fill-opacity:1;stroke:none"
     d="m 18.96413,9.2964233 -2.429409,0 c 0,0 -0.238709,-0.2070957 -0.238197,-0.4099295 4.05e-4,-0.1579012 0.158421,-0.4159481 0.317309,-0.4442945 0.15889,-0.028346 0.308433,-0.094489 0.308433,-0.094489 l 2.280531,0.018899 z"
     id="path13450"
     inkscape:connector-curvature="0"
     sodipodi:nodetypes="ccssccc" /><rect
     style="fill:#232420;fill-opacity:1;stroke:none"
     id="rect13448"
     width="0.3177788"
     height="0.59528011"
     x="21.938366"
     y="8.4262104" /><path
     style="fill:#232420;fill-opacity:1;stroke:none"
     d="m 23.761804,8.2746476 25.748384,0.026726 c 0,0 0.05287,0.2004414 0.05287,0.4409709 0,0.2405294 -0.07931,0.4543333 -0.07931,0.4543333 L 23.78824,9.1298637 z"
     id="path12932"
     inkscape:connector-curvature="0" /><path
     style="fill:#232420;fill-opacity:1;stroke:none"
     d="m 48.354331,8.3240885 c 0,-0.018899 -0.0047,-0.3023645 -0.0047,-0.3023645 l 0.37853,0 0,-0.1795286 -0.514055,0 c 0,0 -0.140197,-0.1937025 -0.140197,-0.3921292 0,-0.1984267 0.135526,-0.3874045 0.135526,-0.3874045 l 1.299154,0 c 0,0 0.112154,0.1417335 0.112154,0.3637823 0,0.2220489 -0.116829,0.4346491 -0.116829,0.4346491 l -0.303759,0 0.01403,0.1700801 0.271047,0.014173 -0.0047,0.2881911"
     id="path13442"
     inkscape:connector-curvature="0"
     sodipodi:nodetypes="cccccsccsccccc" /><path
     style="fill:#c3c0b6;fill-opacity:1;stroke:none"
     d="m 20.961863,8.4233021 1.037455,-0.028346 -0.0093,0.614178 0.214968,0 0,-0.6047289 0.542093,0 -0.01869,0.5952792 c 0,0 -0.345818,0.1228355 -0.448629,0.1228355 -0.102811,0 -1.130919,-0.056693 -1.20569,-0.056693 -0.07477,0 -0.317779,-0.08504 -0.299086,-0.1889778 0.01869,-0.1039378 0.186928,-0.4535468 0.186928,-0.4535468 z"
     id="path13446"
     inkscape:connector-curvature="0" /><path
     style="fill:#232420;fill-opacity:1;stroke:none"
     d="m 23.808066,8.3280987 -0.0727,-0.026726 0.0066,-0.086858 -1.028834,-0.00668 -0.02643,0.4209267 c 0,0 0.01983,0.033407 -0.03965,0.1336273 -0.05948,0.1002214 -0.5507,0.073495 -0.5507,0.073495 0,0 -0.693261,0 -0.799004,-0.00668 -0.105743,-0.00668 -0.11896,-0.2138039 -0.112352,-0.3273873 0.0066,-0.1135836 0.01322,-0.2472108 0.01322,-0.2472108 l -4.36257,-0.020045 0.01322,0.1336275 2.14197,0 c 0,0 0.03304,0.040088 0.04626,0.1403086 0.01322,0.1002214 -0.0066,0.4209267 -0.0066,0.4209267 l -0.01983,0.2405295 4.691662,-0.013361 0.158615,-0.00668 z"
     id="path13444"
     inkscape:connector-curvature="0"
     sodipodi:nodetypes="cccccscscccccsccccc" /><rect
     style="opacity:0.4979424;fill:#c3c0b6;fill-opacity:1;stroke:none;filter:url(#filter13466)"
     id="rect13452"
     width="88.637619"
     height="0.45783892"
     x="85.432747"
     y="29.931534"
     transform="matrix(0.288701,0,0,0.29186572,-0.77053553,-0.19408596)" /><rect
     style="opacity:0.4979424;fill:#c3c0b6;fill-opacity:1;stroke:none;filter:url(#filter13508)"
     id="rect13470"
     width="7.1422873"
     height="0.59519058"
     x="67.989082"
     y="29.748398"
     transform="matrix(0.29704494,0,0,0.29186572,-1.1937862,-0.26089971)" /><rect
     style="opacity:0.4979424;fill:#c3c0b6;fill-opacity:1;fill-rule:evenodd;stroke:none;filter:url(#filter13508-6)"
     id="rect13470-1"
     width="7.1422873"
     height="0.59519058"
     x="67.989082"
     y="29.748398"
     transform="matrix(0.13218108,0,0,0.29186572,13.785324,-0.2608996)" /><rect
     style="opacity:0.4979424;fill:#c3c0b6;fill-opacity:1;fill-rule:evenodd;stroke:none;filter:url(#filter13508-7)"
     id="rect13470-9"
     width="7.1422873"
     height="0.59519058"
     x="67.989082"
     y="29.748398"
     transform="matrix(0.20769176,0,0,0.20005957,34.005911,1.2831714)" /><rect
     style="opacity:0.4979424;fill:#e3e2db;fill-opacity:1;stroke:none;filter:url(#filter13570)"
     id="rect13560"
     width="7.0575538"
     height="0.51798558"
     x="59.827339"
     y="30.172663"
     transform="matrix(0.37174121,0,0,0.29186572,-5.8977907,-0.19408596)" /><rect
     style="fill:#232420;fill-opacity:1;stroke:none"
     id="rect13593"
     width="4.3430386"
     height="0.25045323"
     x="16.842258"
     y="8.057127" /><path
     style="fill:#2c2924;fill-opacity:1;stroke:none"
     d="m 18.307149,12.501113 c 0,0 -0.08426,-0.159721 -0.0948,-0.436571 -0.0105,-0.276851 0.04214,-0.372683 0.126391,-0.372683 0.08426,0 0.663556,0.01061 0.663556,0.01061 l -0.0105,-0.255553 -0.821546,0.03195 c 0,0 -0.126391,0.287498 -0.126391,0.489813 0,0.202314 0.136925,0.479164 0.168522,0.543052 0.0316,0.06389 0.0948,-0.0106 0.0948,-0.0106 z"
     id="path13701"
     inkscape:connector-curvature="0" /></svg>