<?xml version="1.0" encoding="UTF-8" standalone="no"?>
<!-- Creator: CorelDRAW -->

<svg
   xmlns:dc="http://purl.org/dc/elements/1.1/"
   xmlns:cc="http://creativecommons.org/ns#"
   xmlns:rdf="http://www.w3.org/1999/02/22-rdf-syntax-ns#"
   xmlns:svg="http://www.w3.org/2000/svg"
   xmlns="http://www.w3.org/2000/svg"
   xmlns:sodipodi="http://sodipodi.sourceforge.net/DTD/sodipodi-0.dtd"
   xmlns:inkscape="http://www.inkscape.org/namespaces/inkscape"
   xml:space="preserve"
   width="50.8mm"
   height="25.4mm"
   style="shape-rendering:geometricPrecision; text-rendering:geometricPrecision; image-rendering:optimizeQuality; fill-rule:evenodd; clip-rule:evenodd"
   viewBox="0 0 50.8 25.4"
   id="svg3097"
   version="1.1"
   inkscape:version="0.48.4 r9939"
   sodipodi:docname="anschutz1827f.svg"><metadata
     id="metadata3121"><rdf:RDF><cc:Work
         rdf:about=""><dc:format>image/svg+xml</dc:format><dc:type
           rdf:resource="http://purl.org/dc/dcmitype/StillImage" /><dc:title></dc:title></cc:Work></rdf:RDF></metadata><sodipodi:namedview
     pagecolor="#ffffff"
     bordercolor="#666666"
     borderopacity="1"
     objecttolerance="10"
     gridtolerance="10"
     guidetolerance="10"
     inkscape:pageopacity="0"
     inkscape:pageshadow="2"
     inkscape:window-width="1545"
     inkscape:window-height="1028"
     id="namedview3119"
     showgrid="false"
     inkscape:zoom="5.4604357"
     inkscape:cx="127.14739"
     inkscape:cy="68.994195"
     inkscape:window-x="10"
     inkscape:window-y="24"
     inkscape:window-maximized="0"
     inkscape:current-layer="svg3097"
     showguides="true"
     inkscape:guide-bbox="true"><sodipodi:guide
       orientation="0,1"
       position="112.44524,57.321433"
       id="guide4289" /></sodipodi:namedview><defs
     id="defs3099"><style
       type="text/css"
       id="style3101">
    .fil0 {fill:#E77817}
    .fil2 {fill:#765531}
    .fil1 {fill:#8D683B}
   </style><filter
       inkscape:collect="always"
       id="filter3847"
       x="-0.006064587"
       width="1.0121292"
       y="-0.56338798"
       height="2.126776"><feGaussianBlur
         inkscape:collect="always"
         stdDeviation="0.052963382"
         id="feGaussianBlur3849" /></filter><filter
       color-interpolation-filters="sRGB"
       inkscape:collect="always"
       id="filter3847-8"
       x="-0.0060645868"
       width="1.0121292"
       y="-0.56338799"
       height="2.126776"><feGaussianBlur
         inkscape:collect="always"
         stdDeviation="0.052963382"
         id="feGaussianBlur3849-1" /></filter><filter
       color-interpolation-filters="sRGB"
       inkscape:collect="always"
       id="filter3847-8-0"
       x="-0.0060645868"
       width="1.0121292"
       y="-0.56338799"
       height="2.126776"><feGaussianBlur
         inkscape:collect="always"
         stdDeviation="0.052963382"
         id="feGaussianBlur3849-1-0" /></filter><filter
       color-interpolation-filters="sRGB"
       inkscape:collect="always"
       id="filter3847-8-7"
       x="-0.0060645868"
       width="1.0121292"
       y="-0.56338799"
       height="2.126776"><feGaussianBlur
         inkscape:collect="always"
         stdDeviation="0.052963382"
         id="feGaussianBlur3849-1-3" /></filter><filter
       color-interpolation-filters="sRGB"
       inkscape:collect="always"
       id="filter3847-8-6"
       x="-0.0060645868"
       width="1.0121292"
       y="-0.56338799"
       height="2.126776"><feGaussianBlur
         inkscape:collect="always"
         stdDeviation="0.052963382"
         id="feGaussianBlur3849-1-08" /></filter></defs><rect
     style="fill:#1a1716;fill-opacity:1;stroke:none"
     id="rect3968"
     width="0.94107908"
     height="0.95935249"
     x="44.883995"
     y="6.9688091" /><rect
     style="fill:#2d3032;fill-opacity:1;stroke:none"
     id="rect3964"
     width="0.502518"
     height="0.43856117"
     x="46.2682"
     y="7.9464345" /><rect
     style="fill:#2d3032;fill-opacity:1;stroke:none"
     id="rect3966"
     width="0.44769782"
     height="0.44769782"
     x="47.346333"
     y="7.9372983" /><rect
     style="fill:#858486;fill-opacity:1;fill-rule:evenodd;stroke:none"
     id="rect3023"
     width="20.959732"
     height="0.74893081"
     x="25.692375"
     y="8.467226" /><rect
     style="fill:#e0e1e1;fill-opacity:1;fill-rule:evenodd;stroke:none;filter:url(#filter3847)"
     id="rect3023-2"
     width="20.959732"
     height="0.22562093"
     x="25.730818"
     y="8.6008682" /><rect
     style="fill:#1f1e1e;fill-opacity:1;stroke:none"
     id="rect3954"
     width="2.0740287"
     height="0.98676258"
     x="45.783955"
     y="8.3758593" /><path
     style="fill:#252424;fill-opacity:1;stroke:none"
     d="m 21.72705,9.5088091 0.0091,0.2284172 0.155323,0.1279138 0.01827,0.2375539 -0.0091,0.420288 0,0.328921 0.06396,1.206043 0.01827,0.127913 0.520791,0.201007 -0.06396,-1.251726 -0.04568,-0.438561 0.07309,-0.03655 1.416187,-0.16446 -0.0091,-0.301511 -0.127914,-0.127913 0,-0.09137 0.557338,-0.3015111 0.03655,-0.091367 0.0091,-0.1461871 -2.56741,-0.08223 z"
     id="path3863"
     inkscape:connector-curvature="0" /><rect
     style="fill:#383a3a;fill-opacity:1;stroke:none"
     id="rect3956"
     width="2.0740287"
     height="0.58474815"
     x="45.783958"
     y="8.5860033" /><rect
     style="fill:#1c1e1f;fill-opacity:1;stroke:none"
     id="rect3960"
     width="2.0557554"
     height="1.0415827"
     x="45.811363"
     y="6.9139886" /><path
     style="fill:#343839;fill-opacity:1;stroke:none"
     d="m 25.17702,8.3245923 c 0,0 0.374716,0.01938 0.478086,0.064606 0.103369,0.045224 0.148594,0.077527 0.155054,0.1938184 0.0065,0.1162911 0.01292,0.5943766 -0.03876,0.6719042 -0.05168,0.077527 -0.135673,0.135673 -0.200279,0.1421336 -0.06461,0.00646 -0.407019,-0.00646 -0.407019,-0.00646 z"
     id="path3851"
     inkscape:connector-curvature="0" /><path
     style="fill:#474746;fill-opacity:1;stroke:none"
     d="m 18.191151,11.025499 0,0.283238 0.210144,0.593885 0.118777,0.338057 0.05482,0 c 0,0 -0.06396,-0.447697 -0.07309,-0.666978 -0.0091,-0.219281 0.02741,-0.666978 0.02741,-0.666978 z"
     id="path3861"
     inkscape:connector-curvature="0" /><path
     style="fill:#b2afb1;fill-opacity:1;stroke:none"
     d="m 16.42777,9.5179458 0,0.2832374 0.32892,0.018274 0.01827,0.8131658 c 0,0 0.264964,0.173598 0.328921,0.164461 0.06396,-0.0091 0.539065,0.01827 0.539065,0.01827 0,0 0.02741,0.255827 0.07309,0.255827 0.04568,0 1.416187,0 1.416187,0 0,0 0.08223,-0.201007 0.118777,-0.201007 0.03655,0 0.201007,0.04568 0.201007,0.0091 0,-0.03655 0.01827,-0.201008 0.01827,-0.201008 l 0.01827,-0.383741 0,-0.127913 0.246691,-0.0091 0,-0.2284184 0.13705,0.01827 0.0091,-0.4385607 -0.03655,-0.1553239 -3.289209,0.00914 z"
     id="path3859"
     inkscape:connector-curvature="0" /><path
     style="fill:#e2e0e1;fill-opacity:1;stroke:none"
     d="m 21.521475,8.371291 1.311115,0.00457 0.0046,0.4796765 0.2741,-0.00457 0,-0.4796765 0.424857,0.00914 0.0046,0.4431295 c 0,0 -0.429425,0.1416188 -0.479676,0.1279138 -0.05025,-0.013705 -0.772051,0.041115 -0.872554,0 -0.100504,-0.041115 -0.55277,-0.1050722 -0.55277,-0.1050722 z"
     id="path3855"
     inkscape:connector-curvature="0" /><path
     style="fill:#1f1f1f;fill-opacity:1;stroke:none"
     d="m 22.736654,8.3804277 c 0.01827,0 0.47054,0.00457 0.47054,0.00457 0,0 -0.01371,0.5207914 -0.04112,0.5207914 -0.02741,0 -0.388309,0.031978 -0.392878,-0.00914 -0.0046,-0.041115 -0.03655,-0.5162231 -0.03655,-0.5162231 z"
     id="path3857"
     inkscape:connector-curvature="0" /><path
     style="fill:#343839;fill-opacity:1;stroke:none"
     d="m 23.238835,8.3827377 c 0,0 0.109831,-0.038764 0.20674,-0.071067 0.09691,-0.032303 0.167976,-0.032303 0.167976,-0.032303 l 1.524705,0 0.05815,0.071067 -0.02584,1.0660016 -0.08399,0.1227517 -1.337348,-0.01292 -2.428756,-0.026594 0.0091,-0.1598922 -0.251259,0 -0.0137,0.1735972 -5.267302,0.00457 -0.0011,-0.075667 -0.06461,0 -0.0065,0.071067 -0.116292,0 c 0,0 -0.07753,-0.2455034 -0.10983,-0.4716249 -0.0323,-0.2261218 -0.0065,-0.5814557 0.03876,-0.6783648 0.04522,-0.096909 0.161515,-0.083988 0.161515,-0.083988 l 0.02584,0.096909 0.04522,0 c 0,0 0,-0.064606 0.01292,-0.1162911 0.01292,-0.051685 0.06461,-0.116291 0.06461,-0.116291 l 1.182292,0.032303 0,0.6525221 4.548396,0 0,-0.6194053 c 0,0 0.02284,-0.00914 0.0434,0.00685 0.02056,0.015991 0.03426,0.098219 0.03655,0.1850181 0.0023,0.086799 0.03198,0.1758812 0.07766,0.2489747 0.04568,0.073094 0.107356,0.1324822 0.185018,0.1416189 0.07766,0.00914 1.244874,0.00229 1.35223,0.00914 0.12563,-0.011422 0.239976,-0.1434016 0.239976,-0.2403108 0,-0.096909 -0.06784,-0.1518246 -0.100139,-0.1647458 -0.0323,-0.01292 -0.174437,-0.01292 -0.174437,-0.01292 z"
     id="path3853"
     inkscape:connector-curvature="0" /><rect
     style="fill:#e0e1e1;fill-opacity:0.57077631;fill-rule:evenodd;stroke:none;filter:url(#filter3847-8-7)"
     id="rect3023-2-3-8"
     width="20.959732"
     height="0.22562093"
     x="23.554659"
     y="8.308691"
     transform="matrix(0.27436657,0,0,1,9.3191864,0.10054508)" /><rect
     style="fill:#252424;fill-opacity:1;stroke:none"
     id="rect3865"
     width="4.540935"
     height="0.80402875"
     x="17.03079"
     y="8.0560751" /><path
     style="font-size:0.53953809px;font-style:normal;font-weight:normal;line-height:125%;letter-spacing:0px;word-spacing:0px;fill:#ffffff;fill-opacity:1;stroke:none;font-family:Sans"
     d="m 19.84375,8.1772632 0,0.052917 0.05292,0 0,-0.052917 -0.05292,0 z m 0.105833,0 0,0.052917 0.06174,0 0,-0.052917 -0.06174,0 z m -1.252361,0.088195 c -0.04602,3e-7 -0.07954,0.00774 -0.105833,0.026458 -0.02611,0.018723 -0.0441,0.046858 -0.0441,0.079375 0,0.028084 0.01631,0.04597 0.03528,0.061736 0.01897,0.015766 0.04575,0.027888 0.08819,0.035278 l 0.03528,0.00882 c 0.02892,0.00509 0.04915,0.00746 0.06174,0.017639 0.01277,0.010182 0.01764,0.026032 0.01764,0.044097 -1e-6,0.020693 -0.0088,0.041749 -0.02646,0.052917 -0.01766,0.011168 -0.03806,0.00882 -0.07055,0.00882 -0.02141,0 -0.04839,-0.00307 -0.07056,-0.00882 -0.02216,-0.00575 -0.04745,-0.00631 -0.07056,-0.017639 l 0,0.044097 c 0.02404,0.00772 0.0482,0.013697 0.07056,0.017639 0.02254,0.00394 0.05065,0.00882 0.07056,0.00882 0.05278,0 0.08742,-0.00806 0.114652,-0.026458 0.02742,-0.018394 0.0441,-0.043737 0.0441,-0.079375 -1e-6,-0.02989 -0.01499,-0.052818 -0.03528,-0.070556 -0.0201,-0.017901 -0.04575,-0.037035 -0.08819,-0.044097 l -0.03528,0 c -0.03118,-0.00509 -0.05047,-0.018247 -0.06174,-0.026458 -0.01108,-0.00838 -0.01764,-0.019019 -0.01764,-0.035278 0,-0.019379 0.0097,-0.033586 0.02646,-0.044097 0.0169,-0.01051 0.03956,-0.017639 0.07056,-0.017639 0.01784,2e-7 0.03376,0.00439 0.05292,0.00882 0.01916,0.00443 0.04014,0.00861 0.06174,0.017639 l 0,-0.044097 c -0.02141,-0.00624 -0.04126,-0.014518 -0.06174,-0.017639 -0.02047,-0.00312 -0.04201,3e-7 -0.06174,0 z m 0.414514,0 c -0.06367,3e-7 -0.113305,0.018757 -0.149931,0.052917 -0.03662,0.033996 -0.05292,0.073169 -0.05292,0.1322917 0,0.058959 0.01629,0.1069515 0.05292,0.1411111 0.03663,0.033996 0.08626,0.052917 0.149931,0.052917 0.02479,0 0.04839,-0.00291 0.07056,-0.00882 0.02235,-0.00591 0.05064,-0.014634 0.07055,-0.026458 l 0,-0.052917 c -0.01916,0.015602 -0.03995,0.027559 -0.06174,0.035278 -0.0216,0.00772 -0.04614,0.00882 -0.07056,0.00882 -0.04808,0 -0.08911,-0.00966 -0.114652,-0.035278 -0.02555,-0.025784 -0.03528,-0.066205 -0.03528,-0.1146528 0,-0.048612 0.0097,-0.080213 0.03528,-0.1058333 0.02554,-0.025784 0.06657,-0.044097 0.114652,-0.044097 0.02442,2e-7 0.04896,0.00992 0.07056,0.017639 0.02179,0.00772 0.04258,0.019676 0.06174,0.035278 l 0,-0.052917 c -0.01953,-0.01166 -0.03938,-0.02071 -0.06174,-0.026458 -0.02216,-0.00591 -0.05421,-0.00882 -0.07937,-0.00882 z m -1.261181,0.00882 -0.15875,0.3615972 0.06174,0 0.03528,-0.088194 0.185209,0 0.0441,0.088194 0.06174,0 -0.167569,-0.3615972 -0.06174,0 z m 0.282223,0 0,0.3615972 0.06174,0 0,-0.3086805 0.185208,0.3086805 0.07937,0 0,-0.3615972 -0.06174,0 0,0.2998611 -0.185208,-0.2998611 -0.07938,0 z m 1.208264,0 0,0.3615972 0.05292,0 0,-0.1763888 0.211667,0 0,0.1763888 0.05292,0 0,-0.3615972 -0.05292,0 0,0.1499306 -0.211667,0 0,-0.1499306 -0.05292,0 z m 0.423333,0 0,0.2293056 c 0,0.047955 0.01705,0.081363 0.0441,0.1058333 0.02723,0.02447 0.0615,0.035278 0.114653,0.035278 0.05297,0 0.09642,-0.010807 0.123472,-0.035278 0.02723,-0.02447 0.0441,-0.057878 0.0441,-0.1058333 l 0,-0.2293056 -0.06174,0 0,0.2204861 c 0,0.039415 -0.01012,0.061967 -0.02646,0.079375 -0.01634,0.017244 -0.04294,0.026458 -0.07938,0.026458 -0.03663,0 -0.06303,-0.00921 -0.07937,-0.026458 -0.01634,-0.017408 -0.01764,-0.03996 -0.01764,-0.079375 l 0,-0.2204861 -0.06174,0 z m 0.370417,0 0,0.035278 0.14993,0 0,0.3263194 0.06174,0 0,-0.3263194 0.149931,0 0,-0.035278 -0.361597,0 z m 0.388055,0 0,0.035278 0.255764,0 -0.264583,0.2910417 0,0.035278 0.343958,0 0,-0.044097 -0.273403,0 0.264584,-0.2822222 0,-0.035278 -0.32632,0 z m -2.637014,0.044097 0.07056,0.1852084 -0.149931,0 0.07938,-0.1852084 z"
     id="text3867"
     inkscape:connector-curvature="0" /><rect
     style="fill:#e0e1e1;fill-opacity:0.57077631;fill-rule:evenodd;stroke:none;filter:url(#filter3847-8)"
     id="rect3023-2-3"
     width="20.959732"
     height="0.22562093"
     x="23.554659"
     y="8.308691"
     transform="matrix(0.07452528,0,0,1,21.782105,0.11629109)" /><rect
     style="fill:#e0e1e1;fill-opacity:0.57077631;fill-rule:evenodd;stroke:none;filter:url(#filter3847-8-0)"
     id="rect3023-2-3-3"
     width="20.959732"
     height="0.22562093"
     x="23.554659"
     y="8.308691"
     transform="matrix(0.03447088,0,0,1,24.277052,0.2650055)" /><rect
     style="fill:#e0e1e1;fill-opacity:0.42009134;fill-rule:evenodd;stroke:none;filter:url(#filter3847-8-6)"
     id="rect3023-2-3-83"
     width="20.959732"
     height="0.22562093"
     x="23.554659"
     y="8.308691"
     transform="matrix(0.21665379,0,0,1,11.913845,-0.1187355)" /><path
     style="fill:#242423;fill-opacity:1;stroke:none"
     d="m 47.575278,9.7911519 0.10337,0.116291 2.829751,1.0853831 -0.03876,0.10337 -2.144928,-0.801116 -0.05169,0.116291 -0.607297,-0.219661 0.05169,-0.116291 L 47.407302,9.9332856 47.1618,9.8040731 c 0,0 -0.01293,-0.1808971 0.03876,-0.1808971 0.05169,0 0.348875,0.038763 0.348875,0.038763 z"
     id="path3991"
     inkscape:connector-curvature="0" /><rect
     style="fill:#383a3a;fill-opacity:1;stroke:none"
     id="rect3958"
     width="2.0740287"
     height="0.48424461"
     x="45.783955"
     y="9.3169384" /><rect
     style="fill:#2d3032;fill-opacity:1;stroke:none"
     id="rect3962"
     width="2.0557554"
     height="0.62129498"
     x="45.806797"
     y="7.092154" /><path
     style="font-size:0.30773476px;font-style:normal;font-weight:normal;line-height:125%;letter-spacing:0px;word-spacing:0px;fill:#ffffff;fill-opacity:1;fill-rule:evenodd;stroke:none;font-family:Sans"
     d="m 47.175208,8.7417077 0,0.026458 0.03528,0 0,-0.026458 -0.03528,0 z m 0.07056,0 0,0.026458 0.02646,0 0,-0.026458 -0.02646,0 z m -0.723195,0.044097 c -0.02625,3e-7 -0.04674,0.00696 -0.06174,0.017639 -0.01489,0.010679 -0.01764,0.02555 -0.01764,0.044097 0,0.016018 0.0068,0.026285 0.01764,0.035278 0.01082,0.00899 0.02871,0.013424 0.05292,0.017639 l 0.01764,0.00882 c 0.0165,0.0029 0.0281,0.00301 0.03528,0.00882 0.0073,0.00581 0.0088,0.016155 0.0088,0.026458 0,0.011802 -0.0076,0.020089 -0.01764,0.026458 -0.01007,0.00637 -0.01674,0.00882 -0.03528,0.00882 -0.01221,0 -0.03146,0.00328 -0.0441,0 -0.01264,-0.00328 -0.0221,-0.011176 -0.03528,-0.017639 l 0,0.026458 c 0.01371,0.0044 0.02253,0.00657 0.03528,0.00882 0.01286,0.00225 0.03274,0.00882 0.0441,0.00882 0.0301,0 0.0462,-0.00715 0.06174,-0.017639 0.01564,-0.010491 0.02646,-0.02377 0.02646,-0.044097 0,-0.017048 -0.0061,-0.033981 -0.01764,-0.044097 -0.01146,-0.01021 -0.02871,-0.013611 -0.05292,-0.017639 l -0.01764,-0.00882 c -0.01778,-0.0029 -0.02885,-0.00414 -0.03528,-0.00882 -0.0063,-0.00478 -0.0088,-0.00837 -0.0088,-0.017639 0,-0.011053 -7.14e-4,-0.020463 0.0088,-0.026458 0.0096,-0.00599 0.02642,-0.00882 0.0441,-0.00882 0.01018,3e-7 0.01553,-0.00253 0.02646,0 0.01093,0.00253 0.02296,0.00367 0.03528,0.00882 l 0,-0.026458 c -0.01221,-0.00356 -0.0236,-0.00704 -0.03528,-0.00882 -0.01168,-0.00178 -0.02403,3e-7 -0.03528,0 z m 0.238125,0 c -0.03632,3e-7 -0.05848,0.00697 -0.07937,0.026458 -0.02089,0.01939 -0.03528,0.045653 -0.03528,0.079375 0,0.033628 0.01439,0.059891 0.03528,0.079375 0.02089,0.01939 0.04306,0.035278 0.07937,0.035278 0.01414,0 0.03146,-0.00545 0.0441,-0.00882 0.01275,-0.00337 0.02392,-0.010895 0.03528,-0.017639 l 0,-0.026458 c -0.01093,0.0089 -0.02285,0.013237 -0.03528,0.017639 -0.01232,0.0044 -0.02135,0.00882 -0.03528,0.00882 -0.02743,0 -0.04717,-0.00303 -0.06174,-0.017639 -0.01457,-0.014706 -0.02646,-0.042922 -0.02646,-0.070556 0,-0.027727 0.01189,-0.047123 0.02646,-0.061736 0.01457,-0.014706 0.03431,-0.017639 0.06174,-0.017639 0.01393,3e-7 0.02296,-0.0044 0.03528,0 0.01243,0.0044 0.02435,0.01756 0.03528,0.026458 l 0,-0.035278 c -0.01114,-0.00665 -0.02253,-0.00554 -0.03528,-0.00882 -0.01264,-0.00337 -0.02974,-0.00882 -0.0441,-0.00882 z m -0.714375,0.00882 -0.09701,0.2028473 0.03528,0 0.02646,-0.052917 0.105834,0 0.01764,0.052917 0.03528,0 -0.08819,-0.2028473 -0.03528,0 z m 0.15875,0 0,0.2028473 0.03528,0 0,-0.1763889 0.105833,0.1763889 0.0441,0 0,-0.2028473 -0.03528,0 0,0.1675695 -0.105834,-0.1675695 -0.0441,0 z m 0.687917,0 0,0.2028473 0.03528,0 0,-0.097014 0.114652,0 0,0.097014 0.03528,0 0,-0.2028473 -0.03528,0 0,0.079375 -0.114652,0 0,-0.079375 -0.03528,0 z m 0.238125,0 0,0.1234723 c 0,0.027352 0.01103,0.047779 0.02646,0.061736 0.01553,0.013957 0.04024,0.026458 0.07056,0.026458 0.03021,0 0.05513,-0.012501 0.07055,-0.026458 0.01553,-0.013957 0.01764,-0.034384 0.01764,-0.061736 l 0,-0.1234723 -0.02646,0 0,0.1234723 c 0,0.022481 -0.0083,0.034168 -0.01764,0.044097 -0.0093,0.00984 -0.02331,0.017639 -0.0441,0.017639 -0.02089,0 -0.03478,-0.0078 -0.0441,-0.017639 -0.0093,-0.00993 -0.01764,-0.021616 -0.01764,-0.044097 l 0,-0.1234723 -0.03528,0 z m 0.211666,0 0,0.017639 0.08819,0 0,0.1852084 0.03528,0 0,-0.1852084 0.07937,0 0,-0.017639 -0.202848,0 z m 0.220487,0 0,0.017639 0.14993,0 -0.14993,0.1675695 0,0.017639 0.194027,0 0,-0.017639 -0.14993,0 0.14993,-0.1675695 0,-0.017639 -0.194027,0 z m -1.499306,0.026458 0.0441,0.1058333 -0.08819,0 0.0441,-0.1058333 z"
     id="text3867-6"
     inkscape:connector-curvature="0" /><path
     style="fill:#242423;fill-opacity:1;stroke:none"
     d="m 15.721909,8.3827377 c -0.03553,0.1873577 -0.04523,0.3391822 -0.04523,0.4877765 0,0.1485942 0.05341,0.571899 0.05341,0.571899 l 0.06673,0.0045 c 0,0 -0.05987,-0.3364112 -0.06311,-0.6109874 -0.0032,-0.2745763 0.03018,-0.4564194 0.03018,-0.4564194 z"
     id="path4251"
     inkscape:connector-curvature="0"
     sodipodi:nodetypes="csccscc" /><path
     style="fill:#8d8d8e;fill-opacity:1;stroke:none"
     d="m 17.887423,8.950474 0.0091,0.3106473 -2.211079,-0.018274 c 0,0 -0.09137,-0.036547 -0.09137,-0.1461871 0,-0.1096402 0.100503,-0.1735972 0.100503,-0.1735972 z"
     id="path4264"
     inkscape:connector-curvature="0" /><path
     sodipodi:type="arc"
     style="fill:#000000;fill-opacity:1;stroke:none"
     id="path4266"
     sodipodi:cx="56.832733"
     sodipodi:cy="30.642086"
     sodipodi:rx="0.69604313"
     sodipodi:ry="0.66366905"
     d="m 57.528776,30.642086 a 0.69604313,0.66366905 0 1 1 -1.392086,0 0.69604313,0.66366905 0 1 1 1.392086,0 z"
     transform="matrix(0.28222222,0,0,0.28222222,-0.04790039,0.44421489)" /></svg>