<?xml version="1.0" encoding="UTF-8" standalone="no"?>
<!-- Creator: CorelDRAW -->

<svg
   xmlns:dc="http://purl.org/dc/elements/1.1/"
   xmlns:cc="http://creativecommons.org/ns#"
   xmlns:rdf="http://www.w3.org/1999/02/22-rdf-syntax-ns#"
   xmlns:svg="http://www.w3.org/2000/svg"
   xmlns="http://www.w3.org/2000/svg"
   xmlns:sodipodi="http://sodipodi.sourceforge.net/DTD/sodipodi-0.dtd"
   xmlns:inkscape="http://www.inkscape.org/namespaces/inkscape"
   xml:space="preserve"
   width="50.8mm"
   height="25.4mm"
   style="shape-rendering:geometricPrecision; text-rendering:geometricPrecision; image-rendering:optimizeQuality; fill-rule:evenodd; clip-rule:evenodd"
   viewBox="0 0 50.8 25.4"
   id="svg3104"
   version="1.1"
   inkscape:version="0.48.4 r9939"
   sodipodi:docname="bi7-42.svg"><metadata
     id="metadata3133"><rdf:RDF><cc:Work
         rdf:about=""><dc:format>image/svg+xml</dc:format><dc:type
           rdf:resource="http://purl.org/dc/dcmitype/StillImage" /><dc:title></dc:title></cc:Work></rdf:RDF></metadata><sodipodi:namedview
     pagecolor="#ffffff"
     bordercolor="#666666"
     borderopacity="1"
     objecttolerance="10"
     gridtolerance="10"
     guidetolerance="10"
     inkscape:pageopacity="0"
     inkscape:pageshadow="2"
     inkscape:window-width="1546"
     inkscape:window-height="1028"
     id="namedview3131"
     showgrid="false"
     inkscape:zoom="90.509668"
     inkscape:cx="59.888515"
     inkscape:cy="60.588277"
     inkscape:window-x="10"
     inkscape:window-y="24"
     inkscape:window-maximized="0"
     inkscape:current-layer="svg3104" /><defs
     id="defs3106"><style
       type="text/css"
       id="style3108">
    .fil2 {fill:#1F1A17}
    .fil1 {fill:#605D5C}
    .fil0 {fill:#B6491C}
    .fil3 {fill:#BC6D4B}
   </style><clipPath
       id="id0"><rect
         x="-1.3728"
         y="4.1815"
         width="49.9031"
         height="13.878"
         id="rect3111" /></clipPath><filter
       inkscape:collect="always"
       id="filter4310"
       x="-1.0100405"
       width="3.020081"
       y="-0.15075231"
       height="1.3015046"><feGaussianBlur
         inkscape:collect="always"
         stdDeviation="0.26303138"
         id="feGaussianBlur4312" /></filter><filter
       inkscape:collect="always"
       id="filter4368"
       x="-0.2865"
       width="1.573"
       y="-0.096167832"
       height="1.1923357"><feGaussianBlur
         inkscape:collect="always"
         stdDeviation="0.1790625"
         id="feGaussianBlur4370" /></filter><filter
       inkscape:collect="always"
       id="filter4408"
       x="-0.43363636"
       width="1.8672727"
       y="-0.11357143"
       height="1.2271429"><feGaussianBlur
         inkscape:collect="always"
         stdDeviation="0.062109375"
         id="feGaussianBlur4410" /></filter></defs><path
     style="fill:#6d7170;fill-opacity:1;stroke:none"
     d="m 16.871597,8.1959388 c 0,0 -0.335139,0.1763889 -0.458611,0.2204861 -0.123472,0.044097 -0.679097,0.061736 -0.679097,0.061736 l 0,0.5115278 0.01354,0.088011 1.159443,0.017822 0.293717,-0.3239959 c 0,0 -0.237927,0.1958318 -0.05926,0.1821821 0.09609,-0.00734 0.559293,-0.025756 0.559293,-0.025756 l 0.308681,-0.017639 c 0,0 2.442986,-0.035278 2.548819,-0.035278 0.105834,0 0.176389,-0.1146527 0.16757,-0.2028472 -0.0088,-0.088194 -0.141111,-0.1763889 -0.211667,-0.1763889 -0.07056,0 -2.363611,0.026458 -2.363611,0.026458 0,0 -0.264583,0.035278 -0.361597,-0.00882 C 17.691807,8.4693398 17.57715,8.319409 17.400761,8.2312146 17.224372,8.1430196 17.003886,8.1606586 16.871595,8.1959366 z"
     id="path4240"
     inkscape:connector-curvature="0"
     sodipodi:nodetypes="cscccccsccssscssc" /><path
     style="fill:#080808;fill-opacity:1;stroke:none"
     d="m 17.330208,10.0833 0.599722,0.02646 0.05292,1.031875 c 0,0 0.06174,0.141111 0.246945,0.149931 0.185208,0.0088 0.335138,-0.114653 0.326319,-0.149931 -0.0088,-0.03528 0.0088,-1.6668748 0.0088,-1.6668748 0,0 -0.03528,-0.070556 -0.211666,-0.079375 -0.176389,-0.00882 -1.023056,0 -1.023056,0 l 0.0441,-0.6085416 c 0,0 -0.0441,-0.1322917 -0.335138,-0.1411111 -0.291042,-0.00882 -0.440973,0.1499305 -0.47625,0.15875 -0.03528,0.00882 -0.123473,0.052917 -0.123473,0.052917 l -0.01764,0.2116667 -0.537986,0.00882 -0.229305,1.4111108 c 0,0 0.493889,0.02646 0.679097,0.05292 0.185208,0.02646 0.696736,-0.01764 0.811389,-0.02646 0.114653,-0.0088 0.238125,-0.01764 0.238125,-0.01764 z"
     id="path4238"
     inkscape:connector-curvature="0" /><path
     style="fill:#fdfcff;fill-opacity:0.34703196;stroke:none;filter:url(#filter4408)"
     d="m 59.90625,28.9375 0.03125,1.3125 0.3125,-0.0625 0,-1.25 z"
     id="path4242"
     inkscape:connector-curvature="0"
     transform="matrix(0.28222222,0,0,0.28222222,0,0.04677217)" /><path
     style="fill:#fdfcff;fill-opacity:0.36529685;stroke:none;filter:url(#filter4310)"
     d="m 64.46875,35.28125 0.0625,4.0625 0.5625,0.03125 -0.0625,-4.1875 z"
     id="path4288"
     inkscape:connector-curvature="0"
     transform="matrix(0.28222222,0,0,0.28222222,0,0.04677217)" /><path
     style="fill:#fdfcff;fill-opacity:0.22374429;stroke:none;filter:url(#filter4368)"
     d="M 57.53125,32.34375 56.625,36.71875 58,36.8125 58.125,32.34375 z"
     id="path4314"
     inkscape:connector-curvature="0"
     transform="matrix(0.28222222,0,0,0.28222222,0,0.04677217)" /></svg>