<?xml version="1.0" encoding="UTF-8" standalone="no"?>
<!-- Creator: CorelDRAW -->

<svg
   xmlns:dc="http://purl.org/dc/elements/1.1/"
   xmlns:cc="http://creativecommons.org/ns#"
   xmlns:rdf="http://www.w3.org/1999/02/22-rdf-syntax-ns#"
   xmlns:svg="http://www.w3.org/2000/svg"
   xmlns="http://www.w3.org/2000/svg"
   xmlns:sodipodi="http://sodipodi.sourceforge.net/DTD/sodipodi-0.dtd"
   xmlns:inkscape="http://www.inkscape.org/namespaces/inkscape"
   xml:space="preserve"
   width="50.8mm"
   height="25.4mm"
   style="shape-rendering:geometricPrecision; text-rendering:geometricPrecision; image-rendering:optimizeQuality; fill-rule:evenodd; clip-rule:evenodd"
   viewBox="0 0 50.8 25.4"
   id="svg3104"
   version="1.1"
   inkscape:version="0.48.4 r9939"
   sodipodi:docname="bi7-4.svg"><metadata
     id="metadata3133"><rdf:RDF><cc:Work
         rdf:about=""><dc:format>image/svg+xml</dc:format><dc:type
           rdf:resource="http://purl.org/dc/dcmitype/StillImage" /></cc:Work></rdf:RDF></metadata><sodipodi:namedview
     pagecolor="#ffffff"
     bordercolor="#666666"
     borderopacity="1"
     objecttolerance="10"
     gridtolerance="10"
     guidetolerance="10"
     inkscape:pageopacity="0"
     inkscape:pageshadow="2"
     inkscape:window-width="1546"
     inkscape:window-height="1028"
     id="namedview3131"
     showgrid="false"
     inkscape:zoom="32"
     inkscape:cx="78.910853"
     inkscape:cy="46.934086"
     inkscape:window-x="10"
     inkscape:window-y="24"
     inkscape:window-maximized="0"
     inkscape:current-layer="svg3104" /><defs
     id="defs3106"><style
       type="text/css"
       id="style3108">
    .fil2 {fill:#1F1A17}
    .fil1 {fill:#605D5C}
    .fil0 {fill:#B6491C}
    .fil3 {fill:#BC6D4B}
   </style><clipPath
       id="id0"><rect
         x="-1.3728"
         y="4.1815"
         width="49.9031"
         height="13.878"
         id="rect3111" /></clipPath><filter
       inkscape:collect="always"
       id="filter4045"
       x="-0.012193916"
       width="1.0243878"
       y="-0.75458824"
       height="2.5091765"><feGaussianBlur
         inkscape:collect="always"
         stdDeviation="0.3340625"
         id="feGaussianBlur4047" /></filter><filter
       inkscape:collect="always"
       id="filter4097"
       x="-0.023681457"
       width="1.0473629"
       y="-1.4654643"
       height="3.9309285"><feGaussianBlur
         inkscape:collect="always"
         stdDeviation="0.64877324"
         id="feGaussianBlur4099" /></filter><filter
       color-interpolation-filters="sRGB"
       inkscape:collect="always"
       id="filter4097-7"
       x="-0.023681456"
       width="1.0473629"
       y="-1.4654644"
       height="3.9309285"><feGaussianBlur
         inkscape:collect="always"
         stdDeviation="0.64877324"
         id="feGaussianBlur4099-2" /></filter><filter
       inkscape:collect="always"
       id="filter4163"
       x="-0.017159322"
       width="1.0343186"
       y="-1.0618592"
       height="3.1237184"><feGaussianBlur
         inkscape:collect="always"
         stdDeviation="0.47009393"
         id="feGaussianBlur4165" /></filter><filter
       inkscape:collect="always"
       id="filter4215"
       x="-0.012377429"
       width="1.0247549"
       y="-0.76594443"
       height="2.5318889"><feGaussianBlur
         inkscape:collect="always"
         stdDeviation="0.33908998"
         id="feGaussianBlur4217" /></filter></defs><path
     style="fill:#cccdc9;fill-opacity:1;stroke:none"
     d="m 20.916513,8.4029024 2.145283,-0.062363 0.137199,0.199561 -0.03118,0.2120339 -1.297148,0.093545 -0.985333,-0.037418 z"
     id="path4025"
     inkscape:connector-curvature="0" /><path
     style="fill:#b6b6b6;fill-opacity:1;stroke:none"
     d="m 15.947078,8.2073117 c 0,0 4.964485,-0.1600141 5.005853,-0.1600141 0.04137,0 0.260953,0.2592855 0.271295,0.2903116 0.01034,0.031026 -0.0024,0.2991835 0.01828,0.3508937 0.536326,0.027582 1.344669,-0.040479 1.747801,-0.072394 0.02069,-0.082736 0.07239,-0.2895763 0.01034,-0.2895763 -0.06205,0 -0.108591,-0.018096 -0.108591,-0.018096 0,0 0.06722,-0.095664 0.263721,-0.1060058 0.196498,-0.010343 2.223534,-0.010343 2.223534,-0.010343 0,0 0.134447,0.062052 0.144789,0.1137623 0.01034,0.05171 0.08274,0.3309445 0.06205,0.4136808 -0.02069,0.082736 0,0.5475503 -0.05171,0.5889185 -0.05171,0.041368 -0.142658,0.2324069 -0.142658,0.2324069 l -0.709515,0.259483 -1.51615,0.046472 -2.937133,0.1241041 -0.424023,0.7032576 -2.213192,0.09308 -1.044544,-1.4168567 -0.103421,-0.2585506 -0.641205,0.041368 c 0,0 0.02767,-0.3558806 0.03801,-0.4386166 0.01034,-0.082736 0.106465,-0.4872815 0.106464,-0.4872826 z"
     id="path3243"
     inkscape:connector-curvature="0"
     sodipodi:nodetypes="cscccscsccssccccccccccc" /><path
     style="fill:#1e1e1d;fill-opacity:1;stroke:none"
     d="m 41.895389,8.0536705 3.22416,-0.068599 c 0,0 0.174617,-0.2307429 0.155908,-0.4365402 C 45.256746,7.3427335 45.094606,7.074573 45.094606,7.074573 l -3.19298,0.012471 c 0,0 -0.224508,0.1621435 -0.218271,0.4490128 0.0062,0.2868693 0.212034,0.5176122 0.212034,0.5176122 z"
     id="path4015"
     inkscape:connector-curvature="0" /><path
     style="fill:#b8b2b7;fill-opacity:1;stroke:none"
     d="M 25.420684,8.4920045 43.52956,8.4609784 c 0,0 0.341286,0.020684 0.341286,0.3206028 0,0.2999184 -0.05171,0.3826546 -0.134445,0.4653906 -0.08274,0.082736 -0.175816,0.05171 -0.175816,0.05171 l -18.178889,0.077082 z"
     id="path4013"
     inkscape:connector-curvature="0" /><path
     style="fill:#1e1e1d;fill-opacity:1;stroke:none"
     d="m 43.601013,9.2728649 1.649499,-0.0343 -0.0062,0.648574 -1.615201,0.031182 c -0.0093,-0.2151521 -0.01417,-0.2672715 -0.02805,-0.645456 z"
     id="path4017"
     inkscape:connector-curvature="0"
     sodipodi:nodetypes="ccccc" /><path
     style="fill:#1e1e1d;fill-opacity:1;stroke:none"
     d="m 44.545811,9.8996118 c 0,0 0.829426,0.5799752 0.94168,0.6236292 0.112254,0.04365 0.555029,-0.0062 0.642338,0.04365 0.08731,0.04989 0.679754,0.324287 0.835662,0.374177 0.155908,0.04989 0.430305,0.09978 0.430305,0.09978 l 0.224507,-0.07484 c 0,0 -0.392887,-0.255687 -0.579975,-0.336759 -0.18709,-0.08107 -0.505141,-0.03742 -0.629866,-0.143435 C 46.285737,10.379806 46.2109,10.280026 46.086175,10.20519 45.961449,10.130355 45.26922,9.9120844 45.26922,9.9120844 l -0.274396,-0.081072 z"
     id="path4021"
     inkscape:connector-curvature="0" /><path
     style="fill:#1e1e1d;fill-opacity:1;stroke:none"
     d="m 18.864774,12.331765 c 0,0 -0.130962,-0.224507 -0.137198,-0.480195 -0.0062,-0.255687 0.124725,-0.598683 0.230742,-0.673519 0.106017,-0.07484 0.106017,-0.561266 0.106017,-0.561266 l -0.511376,-0.01871 0.112254,0.380413 c 0,0 -0.06236,0.449013 -0.05613,0.636102 0.0062,0.187088 0.0686,0.461485 0.09978,0.536321 0.03118,0.07484 0.112253,0.193324 0.112253,0.193324 z"
     id="path4023"
     inkscape:connector-curvature="0" /><rect
     style="fill:#e8ebea;fill-opacity:0.7123288;stroke:none;filter:url(#filter4045)"
     id="rect4027"
     width="65.75"
     height="1.0625"
     x="90"
     y="30.0625"
     transform="matrix(0.28222222,0,0,0.14328123,0,4.2771843)" /><path
     style="fill:#1e1e1d;fill-opacity:1;stroke:none"
     d="m 43.837047,7.9771874 0.02204,0.3880556 1.045103,-0.026458 -0.01764,-0.3704167 0.238125,-0.048507 0.03087,0.4321528 0.06614,-0.00441 c 0,0 0.136703,0.1058333 0.141111,0.348368 0.0044,0.2425348 -0.07937,0.4938889 -0.07937,0.4938889 l -0.05292,0.066146 -1.631598,0.035278 c 0,0 0.255764,-0.1763888 0.260175,-0.4056944 0.0044,-0.2293056 -0.110244,-0.3351389 -0.15875,-0.3615972 -0.04851,-0.026458 -0.136702,-0.057326 -0.136702,-0.057326 l -0.01324,-0.5644445 z"
     id="path4019"
     inkscape:connector-curvature="0"
     sodipodi:nodetypes="cccccccccccccccc" /><rect
     style="fill:#e8ebea;fill-opacity:0.47945204;fill-rule:evenodd;stroke:none;filter:url(#filter4097)"
     id="rect4027-3"
     width="65.75"
     height="1.0625"
     x="90"
     y="30.0625"
     transform="matrix(0.0533345,0,0,0.14328123,36.961662,2.901351)" /><rect
     style="fill:#e8ebea;fill-opacity:0.47945204;fill-rule:evenodd;stroke:none;filter:url(#filter4097-7)"
     id="rect4027-3-5"
     width="65.75"
     height="1.0625"
     x="90"
     y="30.0625"
     transform="matrix(0.02439062,0,0,0.14328123,41.602933,4.3124621)" /><rect
     style="fill:#e8ebea;fill-opacity:0.78995439;fill-rule:evenodd;stroke:none;filter:url(#filter4163)"
     id="rect4027-3-2"
     width="65.75"
     height="1.0625"
     x="90"
     y="30.0625"
     transform="matrix(0.03694326,0,0,0.14328123,19.747825,4.0256288)" /><rect
     style="fill:#e8ebea;fill-opacity:0.84474888;fill-rule:evenodd;stroke:none;filter:url(#filter4215)"
     id="rect4027-3-2-1"
     width="65.75"
     height="1.0625"
     x="90"
     y="30.0625"
     transform="matrix(0.07894251,0,0,0.14328123,8.8716075,3.9757385)" /></svg>