<?xml version="1.0" encoding="UTF-8" standalone="no"?>
<!-- Creator: CorelDRAW -->

<svg
   xmlns:dc="http://purl.org/dc/elements/1.1/"
   xmlns:cc="http://creativecommons.org/ns#"
   xmlns:rdf="http://www.w3.org/1999/02/22-rdf-syntax-ns#"
   xmlns:svg="http://www.w3.org/2000/svg"
   xmlns="http://www.w3.org/2000/svg"
   xmlns:sodipodi="http://sodipodi.sourceforge.net/DTD/sodipodi-0.dtd"
   xmlns:inkscape="http://www.inkscape.org/namespaces/inkscape"
   xml:space="preserve"
   width="50.8mm"
   height="25.4mm"
   style="shape-rendering:geometricPrecision; text-rendering:geometricPrecision; image-rendering:optimizeQuality; fill-rule:evenodd; clip-rule:evenodd"
   viewBox="0 0 50.8 25.4"
   id="svg2"
   version="1.1"
   inkscape:version="0.48.4 r9939"
   sodipodi:docname="bi7-3.svg"><metadata
     id="metadata29"><rdf:RDF><cc:Work
         rdf:about=""><dc:format>image/svg+xml</dc:format><dc:type
           rdf:resource="http://purl.org/dc/dcmitype/StillImage" /><dc:title></dc:title></cc:Work></rdf:RDF></metadata><sodipodi:namedview
     pagecolor="#ffffff"
     bordercolor="#666666"
     borderopacity="1"
     objecttolerance="10"
     gridtolerance="10"
     guidetolerance="10"
     inkscape:pageopacity="0"
     inkscape:pageshadow="2"
     inkscape:window-width="1920"
     inkscape:window-height="1056"
     id="namedview27"
     showgrid="false"
     inkscape:zoom="5.6568543"
     inkscape:cx="120.09807"
     inkscape:cy="26.631647"
     inkscape:window-x="0"
     inkscape:window-y="24"
     inkscape:window-maximized="1"
     inkscape:current-layer="svg2" /><defs
     id="defs4"><style
       type="text/css"
       id="style6">
    .fil0 {fill:#1F1A17}
    .fil4 {fill:#330000}
    .fil2 {fill:#996633}
    .fil1 {fill:#1F1A17;fill-rule:nonzero}
    .fil3 {fill:#FFCC99;fill-opacity:0.239216}
   </style><clipPath
       id="id0"><rect
         x="0.3522"
         y="4.9074"
         width="47.1913"
         height="11.9326"
         id="rect9" /></clipPath><filter
       inkscape:collect="always"
       id="filter5313"
       x="-0.012116002"
       width="1.024232"
       y="-1.253355"
       height="3.5067101"><feGaussianBlur
         inkscape:collect="always"
         stdDeviation="0.09238461"
         id="feGaussianBlur5315" /></filter><filter
       inkscape:collect="always"
       id="filter5335"
       x="-0.025714286"
       width="1.0514286"
       y="-0.36"
       height="1.72"><feGaussianBlur
         inkscape:collect="always"
         stdDeviation="0.20625"
         id="feGaussianBlur5337" /></filter><filter
       color-interpolation-filters="sRGB"
       inkscape:collect="always"
       id="filter5335-4"
       x="-0.025714286"
       width="1.0514286"
       y="-0.36000001"
       height="1.72"><feGaussianBlur
         inkscape:collect="always"
         stdDeviation="0.20625"
         id="feGaussianBlur5337-4" /></filter><filter
       color-interpolation-filters="sRGB"
       inkscape:collect="always"
       id="filter5335-40"
       x="-0.025714286"
       width="1.0514286"
       y="-0.36000001"
       height="1.72"><feGaussianBlur
         inkscape:collect="always"
         stdDeviation="0.20625"
         id="feGaussianBlur5337-8" /></filter></defs><g
     id="g5387"><path
       transform="scale(0.28222222,0.28222222)"
       inkscape:connector-curvature="0"
       id="path5385"
       d="m 69.296464,39.397671 c 0,0 -2.298097,0.265165 -3.579728,0.928078 -1.281631,0.662912 -1.149048,2.12132 -0.795495,3.005204 0.353554,0.883883 0.662913,1.414213 0.662913,1.414213 l -0.397748,0.132583 c 0,0 -0.839689,-1.37002 -0.972272,-2.607457 -0.132582,-1.237437 0.707107,-3.447145 0.707107,-3.447145 l 0.707107,-2.165515 6.098796,0.618719 z"
       style="fill:#15130f;stroke:none;stroke-width:1px;stroke-linecap:butt;stroke-linejoin:miter;stroke-opacity:1;fill-opacity:1" /><path
       transform="scale(0.28222222,0.28222222)"
       inkscape:connector-curvature="0"
       id="path5257"
       d="m 155.92038,34.982877 -7.78254,0.03853 c 0,0 -0.26969,-1.001712 -0.23116,-1.618151 0.0385,-0.616438 0.26969,-0.924657 0.26969,-0.924657 l 0.23116,-0.693493 8.39898,0.346746 z"
       style="fill:#495050;stroke:none;stroke-width:1px;stroke-linecap:butt;stroke-linejoin:miter;stroke-opacity:1;fill-opacity:1" /><rect
       y="8.3467398"
       x="25.660706"
       height="0.89006805"
       width="19.24276"
       id="rect3041"
       style="fill:#302f30;fill-opacity:1;fill-rule:evenodd;stroke:none" /><rect
       transform="matrix(1.0442302,0,0,1,-1.2492206,0)"
       y="8.4837914"
       x="25.673733"
       height="0.17690364"
       width="18.300018"
       id="rect5259"
       style="fill:#cecfd0;fill-opacity:0.25114154;stroke:none;filter:url(#filter5313)" /><path
       transform="scale(0.28222222,0.28222222)"
       inkscape:connector-curvature="0"
       id="path3813"
       d="m 75.326851,29.111931 6.511073,-0.01362 0.994369,1.566472 c 0,0 -2.996729,1.076098 -3.051215,1.089719 -0.05448,0.01362 -4.345255,0.02724 -4.345255,0.02724 l -0.503996,-2.274789 z"
       style="fill:#adacad;stroke:none;stroke-width:1px;stroke-linecap:butt;stroke-linejoin:miter;stroke-opacity:1;fill-opacity:1" /><path
       sodipodi:nodetypes="cccccc"
       inkscape:connector-curvature="0"
       id="path3817"
       d="m 44.710367,8.0102335 -0.01114,0.496387 1.674132,-0.015434 -0.0087,-0.5877266 -1.619296,-0.1179863 z"
       style="fill:#373738;fill-opacity:1;stroke:none" /><path
       sodipodi:nodetypes="czccccscc"
       transform="scale(0.28222222,0.28222222)"
       inkscape:connector-curvature="0"
       id="path3815"
       d="m 152.12482,24.426138 c -0.27243,0.05449 -0.5891,0.903052 -0.55591,1.717216 0.0332,0.814163 0.14934,1.671226 0.66488,1.851615 l 5.74827,-0.02724 0.51762,0.09735 5.79615,0.01543 c 0,0 0.0158,-1.836696 0.0158,-2.32707 0,-0.490374 0.004,-1.312073 0.004,-1.312073 z"
       style="fill:#232223;fill-opacity:1;stroke:none" /><path
       sodipodi:nodetypes="cccccscccc"
       transform="scale(0.28222222,0.28222222)"
       inkscape:connector-curvature="0"
       id="path3819"
       d="m 158.36367,29.559034 5.9586,0.07832 0.007,4.242092 -0.65383,1.334906 -8.77275,0.08214 c 0,0 -0.0918,-0.267839 0.15773,-0.283134 0.18735,-0.01149 0.57167,-0.216573 0.63282,-0.534558 0.13622,-0.708318 0.0975,-2.13019 0.0975,-2.13019 l 2.55032,-0.0026 z"
       style="fill:#302f30;fill-opacity:1;stroke:none" /><path
       sodipodi:nodetypes="ccccccccccccc"
       inkscape:transform-center-y="1.8088644"
       inkscape:transform-center-x="-5.2138276"
       inkscape:connector-curvature="0"
       id="path5255"
       d="m 49.255535,10.984932 -0.03109,0.103339 -1.616483,-0.508037 -0.0828,0.0014 -0.07147,0.07975 -0.609101,-0.215271 -0.0264,-0.125209 -0.06538,-0.06601 -0.435622,-0.173942 -0.190665,-0.2123822 c 0,0 0.09124,-0.2614339 0.121696,-0.2333914 0.03046,0.028045 0.208541,0.3514017 0.208541,0.3514017 0.822858,0.4285739 1.882479,0.6924679 2.798774,0.9983519 z"
       style="fill:#312f32;fill-opacity:1;stroke:none" /><path
       transform="scale(0.28222222,0.28222222)"
       inkscape:connector-curvature="0"
       id="path3811"
       d="m 81.511008,29.111931 0.463131,-0.435888 8.58154,0 c 0,0 0.435887,0.326916 0.517616,0.762804 0.08173,0.435887 0.02724,2.615326 0.02724,2.615326 0,0 0.163458,0.463131 0,0.626589 -0.163458,0.163458 -12.69523,0.02724 -12.69523,0.02724 l -2.37014,3.950232 -6.701774,1.253178 -11.632754,-0.108972 0.54486,-5.121681 c 0,0 -1.798037,-0.05449 -2.015981,-0.81729 -0.217944,-0.762803 -0.245187,-1.934252 0.02724,-2.479111 0.27243,-0.54486 0.245187,-1.144206 0.708317,-1.171449 0.463131,-0.02724 2.533598,0.02724 2.533598,0.02724 0,0 14.574996,-0.163457 15.010884,-0.05449 0.435888,0.108972 1.171448,0.790047 1.171448,0.790047 0,0 -0.299672,0.54486 -0.217944,1.035233 0.08173,0.490374 -0.05448,0.871776 0.708318,0.871776 0.762804,0 4.38612,0.02724 4.849251,0.02724 0.463131,0 0.844533,-0.217944 0.871776,-0.735561 0.02724,-0.517616 0.217944,-0.681074 -0.381402,-1.062476 z"
       style="fill:#2b2b2b;stroke:none;stroke-width:1px;stroke-linecap:butt;stroke-linejoin:miter;stroke-opacity:1;fill-opacity:1" /><rect
       transform="matrix(0.28222222,0,0,0.28222222,0.03527778,-0.10583333)"
       y="28.9375"
       x="56.3125"
       height="1.375"
       width="19.25"
       id="rect5317"
       style="opacity:0.44502055;fill:#cecfd0;fill-opacity:0.25114154;stroke:none;filter:url(#filter5335)" /><rect
       transform="matrix(0.13494098,0,0,0.28222222,23.020161,8.0271056)"
       y="0.495"
       x="0.495"
       height="1.375"
       width="19.25"
       id="rect5317-1"
       style="opacity:0.44502055;fill:#cecfd0;fill-opacity:0.25114154;fill-rule:evenodd;stroke:none;filter:url(#filter5335-4)" /><rect
       transform="matrix(0.18635869,0,0,0.28222222,42.7865,6.8852738)"
       y="0.495"
       x="0.495"
       height="1.375"
       width="19.25"
       id="rect5317-2"
       style="opacity:0.44502055;fill:#cecfd0;fill-opacity:0.25114154;fill-rule:evenodd;stroke:none;filter:url(#filter5335-40)" /></g></svg>