<?xml version="1.0" encoding="UTF-8" standalone="no"?>
<!-- Creator: CorelDRAW -->

<svg
   xmlns:dc="http://purl.org/dc/elements/1.1/"
   xmlns:cc="http://creativecommons.org/ns#"
   xmlns:rdf="http://www.w3.org/1999/02/22-rdf-syntax-ns#"
   xmlns:svg="http://www.w3.org/2000/svg"
   xmlns="http://www.w3.org/2000/svg"
   xmlns:sodipodi="http://sodipodi.sourceforge.net/DTD/sodipodi-0.dtd"
   xmlns:inkscape="http://www.inkscape.org/namespaces/inkscape"
   xml:space="preserve"
   width="50.8mm"
   height="25.4mm"
   style="shape-rendering:geometricPrecision; text-rendering:geometricPrecision; image-rendering:optimizeQuality; fill-rule:evenodd; clip-rule:evenodd"
   viewBox="0 0 50.8 25.4"
   id="svg2"
   version="1.1"
   inkscape:version="0.48.4 r9939"
   sodipodi:docname="bi7-3.svg"><metadata
     id="metadata29"><rdf:RDF><cc:Work
         rdf:about=""><dc:format>image/svg+xml</dc:format><dc:type
           rdf:resource="http://purl.org/dc/dcmitype/StillImage" /><dc:title></dc:title></cc:Work></rdf:RDF></metadata><sodipodi:namedview
     pagecolor="#ffffff"
     bordercolor="#666666"
     borderopacity="1"
     objecttolerance="10"
     gridtolerance="10"
     guidetolerance="10"
     inkscape:pageopacity="0"
     inkscape:pageshadow="2"
     inkscape:window-width="1920"
     inkscape:window-height="1056"
     id="namedview27"
     showgrid="false"
     inkscape:zoom="4"
     inkscape:cx="135.40708"
     inkscape:cy="22.024964"
     inkscape:window-x="0"
     inkscape:window-y="24"
     inkscape:window-maximized="1"
     inkscape:current-layer="svg2" /><defs
     id="defs4"><style
       type="text/css"
       id="style6">
    .fil0 {fill:#1F1A17}
    .fil4 {fill:#330000}
    .fil2 {fill:#996633}
    .fil1 {fill:#1F1A17;fill-rule:nonzero}
    .fil3 {fill:#FFCC99;fill-opacity:0.239216}
   </style><clipPath
       id="id0"><rect
         x="0.3522"
         y="4.9074"
         width="47.1913"
         height="11.9326"
         id="rect9" /></clipPath><filter
       inkscape:collect="always"
       id="filter5313"
       x="-0.012116002"
       width="1.024232"
       y="-1.253355"
       height="3.5067101"><feGaussianBlur
         inkscape:collect="always"
         stdDeviation="0.09238461"
         id="feGaussianBlur5315" /></filter><filter
       inkscape:collect="always"
       id="filter5335"
       x="-0.025714286"
       width="1.0514286"
       y="-0.36"
       height="1.72"><feGaussianBlur
         inkscape:collect="always"
         stdDeviation="0.20625"
         id="feGaussianBlur5337" /></filter><filter
       color-interpolation-filters="sRGB"
       inkscape:collect="always"
       id="filter5335-4"
       x="-0.025714286"
       width="1.0514286"
       y="-0.36000001"
       height="1.72"><feGaussianBlur
         inkscape:collect="always"
         stdDeviation="0.20625"
         id="feGaussianBlur5337-4" /></filter><filter
       color-interpolation-filters="sRGB"
       inkscape:collect="always"
       id="filter5335-40"
       x="-0.025714286"
       width="1.0514286"
       y="-0.36000001"
       height="1.72"><feGaussianBlur
         inkscape:collect="always"
         stdDeviation="0.20625"
         id="feGaussianBlur5337-8" /></filter></defs><path
     style="fill:#cfced0;stroke:none;stroke-width:1px;stroke-linecap:butt;stroke-linejoin:miter;stroke-opacity:1;fill-opacity:1"
     d="m 56.15625,31.5 0,-1.65625 2.3125,-0.03125 c 0,0 0.59375,-0.21875 1.25,-0.25 0.65625,-0.03125 2.3125,-0.125 2.59375,0.03125 0.28125,0.15625 3.71875,0.375 3.71875,0.375 l 7.625,-0.0625 c 0,0 0.3125,0.28125 0.3125,0.71875 0,0.4375 -0.375,0.625 -0.375,0.625 l -7.375,0.0625 -0.15625,0.15625 -4.4375,0.09375 -2.375,0.03125 z"
     id="path5471"
     inkscape:connector-curvature="0"
     transform="scale(0.28222222,0.28222222)" /><path
     style="fill:#15130f;fill-opacity:1;stroke:none"
     d="m 61.78125,31.4375 -2.5625,-0.03125 c 0,0 0.03125,0.15625 -0.65625,0.65625 -0.6875,0.5 -1.125,0.9375 -1.40625,0.875 C 56.875,32.875 55.84375,32.75 55.84375,32.75 l 0,5.0625 c 0,0 1,-0.375 1.625,0.03125 C 58.09375,38.25 58.5,39.3125 59,39.375 c 0.5,0.0625 2.78125,0.03125 2.78125,0.03125 z"
     id="path5469"
     inkscape:connector-curvature="0"
     transform="scale(0.28222222,0.28222222)"
     sodipodi:nodetypes="ccssccsscc" /></svg>