<?xml version="1.0" encoding="UTF-8" standalone="no"?>
<!-- Creator: CorelDRAW -->

<svg
   xmlns:dc="http://purl.org/dc/elements/1.1/"
   xmlns:cc="http://creativecommons.org/ns#"
   xmlns:rdf="http://www.w3.org/1999/02/22-rdf-syntax-ns#"
   xmlns:svg="http://www.w3.org/2000/svg"
   xmlns="http://www.w3.org/2000/svg"
   xmlns:sodipodi="http://sodipodi.sourceforge.net/DTD/sodipodi-0.dtd"
   xmlns:inkscape="http://www.inkscape.org/namespaces/inkscape"
   xml:space="preserve"
   width="50.8mm"
   height="25.4mm"
   style="shape-rendering:geometricPrecision; text-rendering:geometricPrecision; image-rendering:optimizeQuality; fill-rule:evenodd; clip-rule:evenodd"
   viewBox="0 0 50.8 25.4"
   id="svg4458"
   version="1.1"
   inkscape:version="0.48.4 r9939"
   sodipodi:docname="anschutz.svg"><metadata
     id="metadata4482"><rdf:RDF><cc:Work
         rdf:about=""><dc:format>image/svg+xml</dc:format><dc:type
           rdf:resource="http://purl.org/dc/dcmitype/StillImage" /><dc:title /></cc:Work></rdf:RDF></metadata><sodipodi:namedview
     pagecolor="#ffffff"
     bordercolor="#666666"
     borderopacity="1"
     objecttolerance="10"
     gridtolerance="10"
     guidetolerance="10"
     inkscape:pageopacity="0"
     inkscape:pageshadow="2"
     inkscape:window-width="1920"
     inkscape:window-height="1056"
     id="namedview4480"
     showgrid="false"
     inkscape:zoom="207.64445"
     inkscape:cx="77.555778"
     inkscape:cy="42.014066"
     inkscape:window-x="0"
     inkscape:window-y="24"
     inkscape:window-maximized="1"
     inkscape:current-layer="svg4458" /><defs
     id="defs4460"><style
       type="text/css"
       id="style4462">
    .fil4 {fill:#1F1A17}
    .fil0 {fill:#605D5C}
    .fil1 {fill:#E77817}
    .fil3 {fill:#6D473F}
    .fil2 {fill:#7C6053}
   </style></defs><rect
     style="fill:#474646;fill-opacity:1;stroke:none"
     id="rect12555"
     width="0.40231162"
     height="0.4240582"
     x="6.7849317"
     y="10.413972" /><rect
     style="fill:#474646;fill-opacity:1;stroke:none"
     id="rect12557"
     width="0.32619864"
     height="0.32619864"
     x="9.4053936"
     y="10.435718" /><rect
     style="fill:#474646;fill-opacity:1;stroke:none"
     id="rect12559"
     width="0.29357874"
     height="0.36969179"
     x="7.1437502"
     y="10.925015" /><path
     style="fill:#96999b;fill-opacity:1;stroke:none"
     d="m 6.7523116,10.250872 c 0,0 -0.1196064,0.304452 0.021745,0.304452 0.141353,0 0.6197775,-0.01087 0.6197775,-0.01087 l 0.010874,1.185188 0.445805,0.02175 0,-1.206934 0.9024829,-0.01087 0.010873,1.380908 0.6850172,0.02174 -0.1957192,-0.358819 1e-7,-1.043835 0.5762844,-0.01088 -0.03262,-0.271832 -0.010874,-0.130479 -2.8596745,-0.05437 z"
     id="path12553"
     inkscape:connector-curvature="0"
     sodipodi:nodetypes="cscccccccccccccc" /><path
     sodipodi:nodetypes="scsssssssssssssssscccsssccsssscscssscccc"
     inkscape:connector-curvature="0"
     style="fill:#966547;fill-opacity:1;stroke:none"
     d="m 34.652684,9.0202574 c -0.261411,-0.015378 -15.636875,0.035278 -15.636875,0.035278 0,1.2e-6 0.01469,0.092945 -0.185208,0.1852084 -0.199903,0.092263 -0.542751,0.015378 -1.234722,0 -0.691972,-0.015378 -1.981217,0.011537 -2.319514,0.1499305 -0.338298,0.1383945 -0.934647,0.8331097 -1.472848,1.3405557 -0.5382,0.507445 -0.674373,0.736537 -1.781527,0.767291 -1.107155,0.03075 -7.8230944,-0.202485 -7.9307342,-0.202485 -0.1076402,0 -0.1300311,0.09543 -0.1146528,0.264584 0.015378,0.169148 0.026252,3.631669 0.010874,3.800818 -0.015378,0.169148 0.00724,0.244684 0.1763889,0.229305 0.1691485,-0.01538 4.1933311,-0.306646 5.3004861,-0.352777 1.107155,-0.04613 1.556772,4.51e-4 2.786944,0.123472 1.230172,0.123017 3.14719,0.180685 3.377847,0.14993 0.230657,-0.03075 0.355039,0.04364 0.370417,-0.07937 0.01538,-0.123017 0.06649,-2.04318 0.15875,-2.442986 0.09226,-0.399806 0.332663,-0.458611 0.855486,-0.458611 0.522823,0 0.677063,0.320672 0.723194,0.582084 0.04613,0.261411 0,1.26118 0,1.26118 l 4.550834,0 0,-1.569861 c 0,0 -0.369748,-0.08819 -0.784931,-0.08819 -0.415183,0 -0.503163,-0.0778 -0.62618,-0.246945 -0.123017,-0.169149 -0.143146,-0.466306 -0.09701,-0.758472 0.04613,-0.292166 0.311624,-0.549066 0.511528,-0.564445 0.199902,-0.01537 1.964032,0.01764 2.425347,0.01764 0.482231,0.0051 0.946672,0.559223 0.846666,1.031875 -0.06623,0.313048 0.159888,0.352778 0.467431,0.352778 0.307543,0 9.409903,-1.420158 9.886596,-1.481667 0.476688,-0.06151 0.478508,-0.196744 0.493889,-0.335138 0.01538,-0.138405 -0.192,-0.9244728 -0.238129,-1.0936215 C 35.126899,9.4684697 34.914098,9.0356357 34.652684,9.0202574 z M 18.768865,11.233938 c 0.299095,-0.0022 0.630365,9.2e-5 0.749652,0.0088 0.445805,0.03262 0.582084,0.499567 0.582084,0.749653 0,0.250086 -0.270866,0.664116 -0.564445,0.696736 -0.293579,0.03262 -0.754243,0.02851 -1.243541,0.01764 -0.369051,-0.0094 -0.987112,-0.227787 -0.864306,-0.996597 0.108733,-0.304452 0.254193,-0.478305 0.776111,-0.467431 0,0 0.265349,-0.0066 0.564445,-0.0088 z"
     id="path11913" /><path
     inkscape:connector-curvature="0"
     style="fill:#7c3d13;fill-opacity:1;stroke:none"
     d="m 35.217128,9.8140074 -8.607777,0.035278 c 0,0 -0.846022,1.9244316 -1.190625,2.6546526 1.682187,-0.22714 9.068601,-1.382094 9.498541,-1.43757 0.476688,-0.06151 0.478508,-0.196745 0.493889,-0.335138 0.01295,-0.116449 -0.120308,-0.637022 -0.194028,-0.9172223 z"
     id="path12479" /><path
     inkscape:connector-curvature="0"
     style="fill:#592e27;fill-opacity:1;stroke:none"
     d="m 18.962892,9.1437296 c -0.02716,0.028163 -0.06291,0.064993 -0.132291,0.097014 -0.199903,0.092263 -0.542751,0.015378 -1.234722,0 -0.691972,-0.015378 -1.981216,0.011537 -2.319514,0.1499305 -0.338297,0.1383945 -0.934648,0.8331099 -1.472848,1.3405559 -0.5382,0.507446 -0.674373,0.736541 -1.781527,0.767291 -0.0692,0.0019 -0.313389,-0.0014 -0.423334,0 -0.119077,0.587324 -0.235323,1.482393 -0.202847,2.002014 0.03262,0.521918 0.23885,1.167187 0.608542,1.384653 0.369692,0.217466 1.163321,0.0076 1.26118,-0.07937 0.09786,-0.08699 0.308681,-0.220486 0.308681,-0.220486 l -0.273403,0.855486 c 1.059502,0.06614 2.157275,0.09336 2.328333,0.07055 0.230658,-0.03076 0.355037,0.04364 0.370417,-0.07937 0.01369,-0.109535 0.05898,-1.63138 0.132292,-2.248958 -0.037,-0.0026 -0.04901,-0.0064 -0.105834,-0.0088 -0.511044,-0.02175 -0.969413,0.05642 -1.393472,-0.0088 -0.424058,-0.06524 -0.749894,0.0031 -0.608541,-0.246944 0.141352,-0.250086 0.632704,-1.321588 0.78493,-1.702153 0.152226,-0.380565 0.488935,-1.136017 0.608542,-1.331736 0.119606,-0.1957194 0.15585,-0.3092845 0.264583,-0.3527778 0.108733,-0.043493 1.06232,-0.044097 1.508125,-0.044097 0.445805,0 1.313856,-0.033224 1.455208,-0.044097 0.141353,-0.010874 0.295754,-0.1320501 0.3175,-0.2734028 0.001,-0.00657 -0.001,-0.01874 0,-0.026458 z"
     id="path12423" /><path
     style="fill:#ffffff;fill-opacity:1;stroke:none"
     d="m 25.488493,9.4884934 c -0.01538,0.02691 -0.253723,2.4795656 -0.265256,2.6025826 -0.01153,0.123017 0.03075,0.257567 0.16146,0.261412 0.130706,0.0038 0.222969,-0.08842 0.234502,-0.219125 0.01153,-0.130706 0.253723,-2.4949425 0.2691,-2.6410255 0.01538,-0.146083 -0.06151,-0.2229685 -0.153771,-0.2268129 -0.09226,-0.00384 -0.226813,0.02691 -0.246035,0.2229688 z"
     id="path12429"
     inkscape:connector-curvature="0" /><path
     style="fill:#966547;fill-opacity:1;stroke:none"
     d="m 4.6972602,10.316112 c 0.010874,-0.05437 0.1413527,-0.7393835 0.1413527,-0.7393835 l 7.7635271,-0.141353 0,0.8046235 z"
     id="path12549"
     inkscape:connector-curvature="0" /><path
     sodipodi:type="arc"
     style="fill:#000000;fill-opacity:1;stroke:none"
     id="path12431"
     sodipodi:cx="90.269623"
     sodipodi:cy="33.852211"
     sodipodi:rx="0.39502326"
     sodipodi:ry="0.39502326"
     d="m 90.664646,33.852211 a 0.39502326,0.39502326 0 1 1 -0.790046,0 0.39502326,0.39502326 0 1 1 0.790046,0 z"
     transform="matrix(0.28222222,0,0,0.28222222,0.23921232,-0.04613145)" /><path
     transform="matrix(0.28222222,0,0,0.28222222,0.18923757,0.40749461)"
     sodipodi:type="arc"
     style="fill:#000000;fill-opacity:1;fill-rule:evenodd;stroke:none"
     id="path12431-3"
     sodipodi:cx="90.269623"
     sodipodi:cy="33.852211"
     sodipodi:rx="0.39502326"
     sodipodi:ry="0.39502326"
     d="m 90.664646,33.852211 a 0.39502326,0.39502326 0 1 1 -0.790046,0 0.39502326,0.39502326 0 1 1 0.790046,0 z" /><path
     transform="matrix(0.28222222,0,0,0.28222222,0.12004039,0.86496484)"
     sodipodi:type="arc"
     style="fill:#000000;fill-opacity:1;fill-rule:evenodd;stroke:none"
     id="path12431-6"
     sodipodi:cx="90.269623"
     sodipodi:cy="33.852211"
     sodipodi:rx="0.39502326"
     sodipodi:ry="0.39502326"
     d="m 90.664646,33.852211 a 0.39502326,0.39502326 0 1 1 -0.790046,0 0.39502326,0.39502326 0 1 1 0.790046,0 z" /><path
     transform="matrix(0.28222222,0,0,0.28222222,0.02008892,1.6261337)"
     sodipodi:type="arc"
     style="fill:#000000;fill-opacity:1;fill-rule:evenodd;stroke:none"
     id="path12431-39"
     sodipodi:cx="90.269623"
     sodipodi:cy="33.852211"
     sodipodi:rx="0.39502326"
     sodipodi:ry="0.39502326"
     d="m 90.664646,33.852211 a 0.39502326,0.39502326 0 1 1 -0.790046,0 0.39502326,0.39502326 0 1 1 0.790046,0 z" /><path
     transform="matrix(0.28222222,0,0,0.28222222,-0.0375754,2.0874484)"
     sodipodi:type="arc"
     style="fill:#000000;fill-opacity:1;fill-rule:evenodd;stroke:none"
     id="path12431-30"
     sodipodi:cx="90.269623"
     sodipodi:cy="33.852211"
     sodipodi:rx="0.39502326"
     sodipodi:ry="0.39502326"
     d="m 90.664646,33.852211 a 0.39502326,0.39502326 0 1 1 -0.790046,0 0.39502326,0.39502326 0 1 1 0.790046,0 z" /><path
     transform="matrix(0.28222222,0,0,0.28222222,-0.08370685,2.5410743)"
     sodipodi:type="arc"
     style="fill:#000000;fill-opacity:1;fill-rule:evenodd;stroke:none"
     id="path12431-7"
     sodipodi:cx="90.269623"
     sodipodi:cy="33.852211"
     sodipodi:rx="0.39502326"
     sodipodi:ry="0.39502326"
     d="m 90.664646,33.852211 a 0.39502326,0.39502326 0 1 1 -0.790046,0 0.39502326,0.39502326 0 1 1 0.790046,0 z" /><path
     sodipodi:type="arc"
     style="fill:#07050a;fill-opacity:1;stroke:none"
     id="path12481"
     sodipodi:cx="96.597816"
     sodipodi:cy="37.381207"
     sodipodi:rx="1.0498716"
     sodipodi:ry="1.0498716"
     d="m 97.647688,37.381207 a 1.0498716,1.0498716 0 1 1 -2.099743,0 1.0498716,1.0498716 0 1 1 2.099743,0 z"
     transform="matrix(0.28222222,0,0,0.28222222,0.23921232,-0.04613145)" /><path
     transform="matrix(0.28222222,0,0,0.28222222,2.1882489,-0.07059583)"
     sodipodi:type="arc"
     style="fill:#07050a;fill-opacity:1;fill-rule:evenodd;stroke:none"
     id="path12481-0"
     sodipodi:cx="96.597816"
     sodipodi:cy="37.381207"
     sodipodi:rx="1.0498716"
     sodipodi:ry="1.0498716"
     d="m 97.647688,37.381207 a 1.0498716,1.0498716 0 1 1 -2.099743,0 1.0498716,1.0498716 0 1 1 2.099743,0 z" /><path
     transform="matrix(0.28222222,0,0,0.28222222,4.156314,-0.08690576)"
     sodipodi:type="arc"
     style="fill:#07050a;fill-opacity:1;fill-rule:evenodd;stroke:none"
     id="path12481-4"
     sodipodi:cx="96.597816"
     sodipodi:cy="37.381207"
     sodipodi:rx="1.0498716"
     sodipodi:ry="1.0498716"
     d="m 97.647688,37.381207 a 1.0498716,1.0498716 0 1 1 -2.099743,0 1.0498716,1.0498716 0 1 1 2.099743,0 z" /><path
     transform="matrix(0.28222222,0,0,0.28222222,6.1135057,-0.09777905)"
     sodipodi:type="arc"
     style="fill:#07050a;fill-opacity:1;fill-rule:evenodd;stroke:none"
     id="path12481-7"
     sodipodi:cx="96.597816"
     sodipodi:cy="37.381207"
     sodipodi:rx="1.0498716"
     sodipodi:ry="1.0498716"
     d="m 97.647688,37.381207 a 1.0498716,1.0498716 0 1 1 -2.099743,0 1.0498716,1.0498716 0 1 1 2.099743,0 z" /><path
     style="fill:#060000;fill-opacity:1;stroke:none"
     d="m 32.2991,9.1526701 c 0.176711,-5.4e-6 1.210745,-0.017001 1.345568,-0.010874 0.119609,0.00544 0.212031,0.2446491 -0.01631,0.2337757 -0.364256,-0.00271 -1.117231,-0.010868 -1.266738,-0.00815 -0.149507,0.00271 -0.209335,-0.2147438 -0.06252,-0.2147483 z"
     id="path12515"
     inkscape:connector-curvature="0"
     sodipodi:nodetypes="sscss" /><path
     style="fill:#060000;fill-opacity:1;fill-rule:evenodd;stroke:none"
     d="m 30.408687,9.1792186 c 0.176711,-5.4e-6 1.210745,-0.017001 1.345568,-0.010874 0.119609,0.00544 0.212031,0.2446491 -0.01631,0.2337757 -0.364256,-0.00271 -1.117231,-0.010868 -1.266738,-0.00815 -0.149507,0.00271 -0.209335,-0.2147438 -0.06252,-0.2147483 z"
     id="path12515-3"
     inkscape:connector-curvature="0"
     sodipodi:nodetypes="sscss" /><path
     style="fill:#060000;fill-opacity:1;fill-rule:evenodd;stroke:none"
     d="m 28.478855,9.1869072 c 0.176711,-5.4e-6 1.210745,-0.017001 1.345568,-0.010874 0.119608,0.00544 0.212031,0.2446492 -0.01631,0.2337757 -0.364255,-0.00271 -1.11723,-0.010868 -1.266737,-0.00815 -0.149507,0.00271 -0.209336,-0.2147437 -0.06252,-0.2147482 z"
     id="path12515-0"
     inkscape:connector-curvature="0"
     sodipodi:nodetypes="sscss" /><path
     style="fill:#060000;fill-opacity:1;fill-rule:evenodd;stroke:none"
     d="m 26.387562,9.2022843 c 0.176711,-5.3e-6 1.210745,-0.017001 1.345568,-0.010874 0.119609,0.00544 0.212031,0.2446491 -0.01631,0.2337757 -0.364255,-0.00271 -1.11723,-0.010868 -1.266737,-0.00815 -0.149507,0.00271 -0.209336,-0.2147438 -0.06252,-0.2147483 z"
     id="path12515-34"
     inkscape:connector-curvature="0"
     sodipodi:nodetypes="sscss" /><path
     inkscape:connector-curvature="0"
     style="fill:#592e27;fill-opacity:1;stroke:none"
     d="m 12.604073,9.4347713 -0.335139,0.00882 c -0.02616,0.036481 -0.05141,0.054613 -0.07937,0.097014 -0.234078,0.3548922 -0.363025,0.5805117 -0.423333,0.7055557 l 0.837847,-0.0088 0,-0.80257 z"
     id="path12551" /><path
     style="font-size:medium;font-style:normal;font-variant:normal;font-weight:normal;font-stretch:normal;text-indent:0;text-align:start;text-decoration:none;line-height:normal;letter-spacing:normal;word-spacing:normal;text-transform:none;direction:ltr;block-progression:tb;writing-mode:lr-tb;text-anchor:start;baseline-shift:baseline;color:#000000;fill:#7c3d13;fill-opacity:1;stroke:none;stroke-width:0.2;marker:none;visibility:visible;display:inline;overflow:visible;enable-background:accumulate;font-family:Sans;-inkscape-font-specification:Sans"
     d="m 17.745809,13.200674 0,0.06174 4.540021,0.01764 0,-0.05292 -4.540021,-0.02646 z"
     id="path12561"
     inkscape:connector-curvature="0" /><path
     style="font-size:medium;font-style:normal;font-variant:normal;font-weight:normal;font-stretch:normal;text-indent:0;text-align:start;text-decoration:none;line-height:normal;letter-spacing:normal;word-spacing:normal;text-transform:none;direction:ltr;block-progression:tb;writing-mode:lr-tb;text-anchor:start;baseline-shift:baseline;color:#000000;fill:#7c3d13;fill-opacity:1;stroke:none;stroke-width:0.2;marker:none;visibility:visible;display:inline;overflow:visible;enable-background:accumulate;font-family:Sans;-inkscape-font-specification:Sans"
     d="m 22.287158,13.818036 c 0,0 -1.12119,0.0061 -2.249633,0.0088 -1.12844,0.0027 -2.265519,0.0088 -2.28492,0.0088 l 0,0.05292 c 0.0241,0 1.156479,-0.0061 2.28492,-0.0088 1.128443,-0.0027 2.249633,0 2.249633,0 l 0,-0.06174 z"
     id="path12563"
     inkscape:connector-curvature="0" /></svg>