<?xml version="1.0" encoding="UTF-8" standalone="no"?>
<!-- Creator: CorelDRAW -->

<svg
   xmlns:dc="http://purl.org/dc/elements/1.1/"
   xmlns:cc="http://creativecommons.org/ns#"
   xmlns:rdf="http://www.w3.org/1999/02/22-rdf-syntax-ns#"
   xmlns:svg="http://www.w3.org/2000/svg"
   xmlns="http://www.w3.org/2000/svg"
   xmlns:sodipodi="http://sodipodi.sourceforge.net/DTD/sodipodi-0.dtd"
   xmlns:inkscape="http://www.inkscape.org/namespaces/inkscape"
   xml:space="preserve"
   width="50.8mm"
   height="25.4mm"
   style="shape-rendering:geometricPrecision; text-rendering:geometricPrecision; image-rendering:optimizeQuality; fill-rule:evenodd; clip-rule:evenodd"
   viewBox="0 0 50.8 25.4"
   id="svg4458"
   version="1.1"
   inkscape:version="0.48.4 r9939"
   sodipodi:docname="anschutz1903.svg"><metadata
     id="metadata4482"><rdf:RDF><cc:Work
         rdf:about=""><dc:format>image/svg+xml</dc:format><dc:type
           rdf:resource="http://purl.org/dc/dcmitype/StillImage" /><dc:title></dc:title></cc:Work></rdf:RDF></metadata><sodipodi:namedview
     pagecolor="#ffffff"
     bordercolor="#666666"
     borderopacity="1"
     objecttolerance="10"
     gridtolerance="10"
     guidetolerance="10"
     inkscape:pageopacity="0"
     inkscape:pageshadow="2"
     inkscape:window-width="1920"
     inkscape:window-height="1056"
     id="namedview4480"
     showgrid="false"
     inkscape:zoom="18.35335"
     inkscape:cx="86.526541"
     inkscape:cy="38.98433"
     inkscape:window-x="0"
     inkscape:window-y="24"
     inkscape:window-maximized="1"
     inkscape:current-layer="svg4458" /><defs
     id="defs4460"><style
       type="text/css"
       id="style4462">
    .fil4 {fill:#1F1A17}
    .fil0 {fill:#605D5C}
    .fil1 {fill:#E77817}
    .fil3 {fill:#6D473F}
    .fil2 {fill:#7C6053}
   </style></defs><path
     style="fill:#23221d;fill-opacity:1;stroke:none"
     d="m 17.135694,11.185766 c 0.139051,0.07892 0.417153,0 0.400794,0.394584 -0.05239,0.57891 0.189764,1.039313 0.588924,1.099674 0.212666,0 1.701332,-0.07497 1.848563,-0.09076 0.147231,-0.01579 0.327179,-0.08287 0.327179,-0.08287 0,0 -0.261744,-0.03946 -0.310821,-0.02368 -0.04908,0.01579 -0.220845,0 -0.327179,0.03946 -0.106333,0.03946 -1.415051,0.04735 -1.545923,0.03157 -0.431763,-0.127398 -0.484611,-0.543414 -0.482594,-0.949732 0.01636,-0.165725 0.04908,-0.260425 0.212667,-0.347233 0.163589,-0.0868 0.498948,-0.197291 0.498948,-0.197291 l -0.957,-0.07102 z"
     id="path14805"
     inkscape:connector-curvature="0"
     sodipodi:nodetypes="cccsccsccsccc" /><rect
     style="fill:#1e1711;fill-opacity:1;stroke:none"
     id="rect14841"
     width="3.6090722"
     height="0.8258782"
     x="8.140131"
     y="9.923315" /><rect
     style="fill:#000200;fill-opacity:1;stroke:none"
     id="rect14843"
     width="0.55524182"
     height="1.3950646"
     x="9.1002378"
     y="10.113045" /><rect
     style="fill:#000200;fill-opacity:1;fill-rule:evenodd;stroke:none"
     id="rect14843-4"
     width="0.55524188"
     height="1.3950646"
     x="10.453639"
     y="10.129785" /><path
     style="fill:#7b5737;fill-opacity:1;stroke:none"
     d="m 6.1505145,9.5996603 c 0.3007559,0.323655 0.9716732,1.0044467 1.0989163,1.0714097 0.1272429,0.06696 1.0757812,0.08929 1.0757812,0.08929 l 0.011569,-0.546865 3.157938,0 c 0,0 -0.04626,0.524544 0,0.524544 0.04626,0 2.452318,-0.03348 2.452318,-0.03348 0,0 -0.04626,-1.3504228 -0.0694,-1.4731883 -0.02313,-0.1227659 -0.02313,-0.189729 -0.254486,-0.2008894 -0.231351,-0.011161 -6.1770652,-0.011161 -6.3158758,-0.011161 -0.1388106,0 -1.156754,0.580347 -1.156754,0.580347 z"
     id="path14839"
     inkscape:connector-curvature="0" /><path
     style="fill:#714a26;fill-opacity:1;stroke:none"
     d="m 12.484512,9.0309697 c -0.102193,0.2115359 -0.206498,0.4286661 -0.337771,0.7241935 -0.202724,0.4563788 -0.320085,0.7785388 -0.384685,0.9867148 0.444264,-0.0058 2.186137,-0.03622 2.186137,-0.03622 0,0 -0.05192,-1.3527797 -0.07506,-1.4755453 -0.02313,-0.1227653 -0.02199,-0.1879928 -0.25333,-0.1991532 -0.04117,-0.00198 -0.797171,0.00134 -1.13529,0 z"
     id="path14863"
     inkscape:connector-curvature="0" /><path
     style="fill:#765438;fill-opacity:1;stroke:none"
     d="m 18.944211,9.1085974 c 0,0 4.441936,-0.011161 4.788962,-0.033482 0.347026,-0.022322 0.566809,-0.2566918 0.566809,-0.2566918 0,0 12.608617,-0.022319 12.816833,0.011161 0.208215,0.033482 0.474271,0.2901733 0.682486,0.8035571 0.208214,0.5133833 0.266053,0.7923963 0.277621,0.9374833 0.01156,0.145087 0.04626,0.234371 -0.358594,0.290174 -0.404864,0.0558 -7.912197,1.029997 -9.924949,1.275528 -2.012752,0.245532 -3.377721,0.401779 -4.164315,0.457582 -0.786591,0.0558 -3.736315,0 -3.875124,0 -0.13881,0 -0.01157,-0.122767 0.06941,-0.167409 0.08098,-0.04464 0.266054,-0.312494 0.219783,-0.513382 -0.04626,-0.20089 0,-0.516364 -0.474269,-0.694932 -0.474269,-0.178568 -1.191456,-0.07812 -1.50378,-0.05581 -0.312323,0.02233 -0.832863,0 -1.179889,0.100442 -0.347027,0.100441 -0.694053,0.435259 -0.79816,0.613827 -0.104108,0.178569 -0.150378,2.198371 -0.173514,2.499705 -0.02313,0.301334 0,0.368297 -0.347026,0.357136 -0.347025,-0.01116 -1.376537,-0.100441 -1.781401,-0.189728 -0.404863,-0.08929 -0.520539,-0.234371 -0.694052,-0.357137 -0.173512,-0.122766 -0.355907,-0.369688 -1.345625,-0.251313 -0.989716,0.118376 -2.2738952,0.315667 -2.9200746,0.441934 -0.6461794,0.126267 -0.9743946,0.110713 -1.2867179,0.400886 -0.3123236,0.290174 -0.3123236,0.491063 -0.5205393,0.546865 -0.2082156,0.0558 -2.7812839,0.256693 -2.8622566,0.245532 -0.080973,-0.01116 -0.09254,-0.07812 -0.1156755,-0.256692 -0.023137,-0.178567 -0.1388105,-1.841485 -0.1156754,-2.790129 0.023134,-0.948644 0.069405,-2.176301 0.080973,-2.254424 0.011568,-0.07812 0.1619453,-0.06697 0.219783,-0.06697 0.057838,0 1.751773,-0.01116 1.9484212,0 0.1966482,0.01116 0.948538,0.703113 1.0989163,0.870521 0.150378,0.167408 0.4974041,0.223211 0.7981601,0.223211 0.3007559,0 4.3956647,-0.03349 4.5923117,-0.0558 0.196649,-0.02233 0.393297,0.01116 0.439568,0.100441 0.04626,0.08929 0.196647,0.234371 0.497403,0.290173 0.300756,0.0558 0.439567,0.07812 0.601512,0.01116 0.161946,-0.06696 0.242919,-0.312495 0.323891,-0.513384 0.08098,-0.200889 0.497405,-1.4731879 0.647783,-1.6629167 0.150377,-0.1897288 0.740322,-0.368297 0.948538,-0.3794574 0.208215,-0.011161 1.052646,0.011161 1.145186,0.011161 0.09255,0 0.04626,0.1785682 0.185081,0.189729 0.13881,0.011161 0.994809,0.011161 1.179888,0 0.185082,-0.011161 0.312324,-0.1785685 0.312324,-0.1785685 z"
     id="path14293"
     inkscape:connector-curvature="0"
     sodipodi:nodetypes="cscssccsssccscsscsssssssccssssssccsscssssscc" /><path
     style="fill:#1f1f1f;fill-opacity:1;stroke:none"
     d="m 15.524462,9.3478044 c -0.06643,0.00654 -0.176866,0.034908 -0.272094,0.045262 -0.03092,0.023063 -0.05626,0.048704 -0.07506,0.07242 -0.150377,0.1897289 -0.566426,1.4647556 -0.647395,1.6656446 -0.08098,0.20089 -0.166444,0.439973 -0.32839,0.506937 -0.161945,0.06696 -0.299727,0.04675 -0.600483,-0.009 -0.300757,-0.0558 -0.45101,-0.200389 -0.497277,-0.289677 -0.04626,-0.08929 -0.244331,-0.121901 -0.440979,-0.09957 -0.02937,0.0033 -0.497855,0.0054 -0.675545,0.009 l -0.02815,0.0181 c -0.254486,0.43526 -0.415917,0.811618 -0.300242,1.403125 0.115676,0.591507 0.364507,0.757427 0.769371,0.869031 0.404863,0.111606 1.5309,-0.08085 1.473062,-0.03622 -0.04507,0.03479 -0.274014,0.643664 -0.394069,0.959558 0.07499,0.0315 0.169723,0.05682 0.281478,0.08147 0.404864,0.08929 1.426277,0.178934 1.773304,0.190101 0.347026,0.01116 0.324015,-0.06076 0.347154,-0.362097 0.01754,-0.228334 0.0534,-1.503472 0.112591,-2.190685 -0.01112,-7.75e-4 -0.0164,6.12e-4 -0.02815,0 -0.427999,-0.02233 -1.226032,-0.06337 -1.341707,-0.06337 -0.115676,0 -0.01092,-0.155132 0.04691,-0.244416 0.05783,-0.08928 0.875405,-2.0302206 0.910108,-2.2087895 0.0347,-0.1785682 0.0066,-0.2743008 -0.02815,-0.3077823 -0.0087,-0.00837 -0.02973,-0.011668 -0.05629,-0.00905 z"
     id="path14803"
     inkscape:connector-curvature="0" /><path
     style="fill:#2f2c27;fill-opacity:1;stroke:none"
     d="m 15.262591,10.58925 21.201224,-0.142051 c 0,0 0.0818,-0.299885 -0.03272,-0.4735008 -0.114513,-0.1736173 -0.31082,-0.4261509 -0.31082,-0.4261509 l -20.623193,0.063274 z"
     id="path14833"
     inkscape:connector-curvature="0" /><g
     transform="scale(0.96975235,1.0311911)"
     style="font-size:0.75940168px;font-style:normal;font-weight:normal;line-height:125%;letter-spacing:0px;word-spacing:0px;fill:#ffffff;fill-opacity:1;stroke:none;font-family:Sans"
     id="text14835"><path
       d="m 23.323198,9.5953132 -0.1016,0.2755056 0.20357,0 -0.10197,-0.2755056 m -0.04227,-0.07379 0.08491,0 0.210986,0.5536063 -0.07787,0 -0.05043,-0.1420166 -0.24955,0 -0.05043,0.1420166 -0.07898,0 0.211357,-0.5536063"
       style=""
       id="path14904" /><path
       d="m 23.65729,9.5215237 0.100858,0 0.245471,0.4631312 0,-0.4631312 0.07268,0 0,0.5536063 -0.100858,0 -0.245471,-0.4631307 0,0.4631307 -0.07268,0 0,-0.5536063"
       style=""
       id="path14906" /><path
       d="m 24.557226,9.539693 0,0.073048 c -0.02843,-0.013596 -0.05525,-0.023731 -0.08046,-0.030406 -0.02521,-0.00667 -0.04956,-0.010011 -0.07305,-0.010012 -0.04079,5e-7 -0.07231,0.00791 -0.09455,0.023731 -0.022,0.015821 -0.033,0.038317 -0.033,0.067486 0,0.024473 0.0073,0.043013 0.02188,0.05562 0.01483,0.01236 0.04277,0.022372 0.0838,0.030035 l 0.04524,0.00927 c 0.05587,0.01063 0.09703,0.029417 0.123477,0.056362 0.0267,0.026698 0.04005,0.062542 0.04005,0.1075325 -1e-6,0.053643 -0.01805,0.094307 -0.05414,0.1219938 -0.03584,0.02769 -0.0885,0.04153 -0.157962,0.04153 -0.0262,0 -0.05414,-0.003 -0.0838,-0.0089 -0.02942,-0.0059 -0.05995,-0.01471 -0.09159,-0.02633 l 0,-0.077127 c 0.03041,0.017057 0.06019,0.029911 0.08936,0.038563 0.02917,0.0087 0.05785,0.01298 0.08603,0.01298 0.04277,0 0.07577,-0.0084 0.099,-0.025214 0.02324,-0.016809 0.03486,-0.040788 0.03486,-0.071936 -1e-6,-0.027192 -0.0084,-0.048451 -0.02521,-0.063778 -0.01656,-0.015326 -0.04388,-0.026821 -0.08195,-0.034485 l -0.04561,-0.0089 c -0.05587,-0.011124 -0.09628,-0.028551 -0.121252,-0.052283 -0.02497,-0.023731 -0.03745,-0.056732 -0.03745,-0.099004 0,-0.048945 0.01718,-0.087509 0.05154,-0.1156901 0.03461,-0.02818 0.08219,-0.042271 0.142758,-0.042271 0.02596,6e-7 0.05241,0.00235 0.07935,0.00705 0.02694,0.0047 0.05451,0.011743 0.08269,0.021136"
       style=""
       id="path14908" /><path
       d="m 25.121956,9.5641659 0,0.078981 c -0.02521,-0.023484 -0.05216,-0.041035 -0.08083,-0.052654 -0.02843,-0.011618 -0.05871,-0.017427 -0.09085,-0.017428 -0.06328,5e-7 -0.111735,0.019406 -0.145354,0.058216 -0.03362,0.038564 -0.05043,0.094431 -0.05043,0.1676024 0,0.072924 0.01681,0.1287919 0.05043,0.1676023 0.03362,0.038563 0.08207,0.057845 0.145354,0.057845 0.03214,0 0.06242,-0.0058 0.09085,-0.01743 0.02867,-0.011618 0.05562,-0.02917 0.08083,-0.052654 l 0,0.078239 c -0.0262,0.0178 -0.05401,0.03115 -0.08343,0.04005 -0.02917,0.0089 -0.06007,0.01335 -0.0927,0.01335 -0.0838,0 -0.149804,-0.02559 -0.198008,-0.07676 -0.0482,-0.051418 -0.07231,-0.1214994 -0.07231,-0.2102447 0,-0.088992 0.0241,-0.1590735 0.07231,-0.2102445 0.0482,-0.051417 0.114206,-0.077126 0.198008,-0.077127 0.03312,6e-7 0.06427,0.00445 0.09344,0.013349 0.02942,0.00865 0.05698,0.021754 0.08269,0.039305"
       style=""
       id="path14910" /><path
       d="m 25.238388,9.5215237 0.0749,0 0,0.2269306 0.272168,0 0,-0.2269306 0.0749,0 0,0.5536063 -0.0749,0 0,-0.2636395 -0.272168,0 0,0.2636395 -0.0749,0 0,-0.5536063"
       style=""
       id="path14912" /><path
       d="m 25.800894,9.5215237 0.07527,0 0,0.336317 c 0,0.059328 0.01075,0.1020942 0.03226,0.1282974 0.02151,0.025956 0.05636,0.038934 0.104566,0.038934 0.04796,0 0.08269,-0.01298 0.104195,-0.038934 0.02151,-0.026203 0.03226,-0.068969 0.03226,-0.1282974 l 0,-0.336317 0.07527,0 0,0.3455871 c 0,0.072183 -0.01792,0.1266906 -0.05377,0.1635232 -0.0356,0.03683 -0.08825,0.05525 -0.157961,0.05525 -0.06996,0 -0.122859,-0.01842 -0.158703,-0.05525 -0.0356,-0.036833 -0.0534,-0.09134 -0.0534,-0.1635232 l 0,-0.3455871"
       style=""
       id="path14914" /><path
       d="m 26.288869,9.5215237 0.468322,0 0,0.063036 -0.196524,0 0,0.4905701 -0.07527,0 0,-0.4905701 -0.196525,0 0,-0.063036"
       style=""
       id="path14916" /><path
       d="m 26.79798,9.5215237 0.43495,0 0,0.057103 -0.350037,0.4334669 0.358565,0 0,0.06304 -0.452007,0 0,-0.0571 0.350037,-0.4334671 -0.341508,0 0,-0.063036"
       style=""
       id="path14918" /></g></svg>