<?xml version="1.0" encoding="UTF-8" standalone="no"?>
<!-- Creator: CorelDRAW -->

<svg
   xmlns:dc="http://purl.org/dc/elements/1.1/"
   xmlns:cc="http://creativecommons.org/ns#"
   xmlns:rdf="http://www.w3.org/1999/02/22-rdf-syntax-ns#"
   xmlns:svg="http://www.w3.org/2000/svg"
   xmlns="http://www.w3.org/2000/svg"
   xmlns:sodipodi="http://sodipodi.sourceforge.net/DTD/sodipodi-0.dtd"
   xmlns:inkscape="http://www.inkscape.org/namespaces/inkscape"
   xml:space="preserve"
   width="50.8mm"
   height="25.4mm"
   style="shape-rendering:geometricPrecision; text-rendering:geometricPrecision; image-rendering:optimizeQuality; fill-rule:evenodd; clip-rule:evenodd"
   viewBox="0 0 50.8 25.4"
   id="svg3045"
   version="1.1"
   inkscape:version="0.48.4 r9939"
   sodipodi:docname="bi7-4.svg"><metadata
     id="metadata3067"><rdf:RDF><cc:Work
         rdf:about=""><dc:format>image/svg+xml</dc:format><dc:type
           rdf:resource="http://purl.org/dc/dcmitype/StillImage" /></cc:Work></rdf:RDF></metadata><sodipodi:namedview
     pagecolor="#ffffff"
     bordercolor="#666666"
     borderopacity="1"
     objecttolerance="10"
     gridtolerance="10"
     guidetolerance="10"
     inkscape:pageopacity="0"
     inkscape:pageshadow="2"
     inkscape:window-width="640"
     inkscape:window-height="480"
     id="namedview3065"
     showgrid="false"
     inkscape:zoom="27.288889"
     inkscape:cx="18.722561"
     inkscape:cy="48.455259"
     inkscape:window-x="10"
     inkscape:window-y="34"
     inkscape:window-maximized="0"
     inkscape:current-layer="svg3045" /><defs
     id="defs3047"><style
       type="text/css"
       id="style3049">
    .fil2 {fill:#1F1A17}
    .fil1 {fill:#605D5C}
    .fil0 {fill:#B6491C}
    .fil3 {fill:#BC6D4B}
   </style></defs><g
     id="Vrstva_x0020_1"
     transform="translate(-0.26889251,0.24820847)"><metadata
       id="CorelCorpID_0Corel-Layer" /><path
       class="fil0"
       d="m 7.9914,10.1717 c 0,0 3.4354,0.1158 3.7828,0.1158 0.3474,0 1.158,0.0965 1.2545,0 0.0965,-0.0965 0.2316,-0.6948 0.2316,-0.8685 0,-0.1737 -0.4439,-0.2702 -0.6755,-0.2895 -0.2316,-0.0193 -3.9565,-0.0193 -4.3039,0 -0.3474,0.0193 -0.4825,0.2316 -0.4825,0.386 0,0.1544 -0.0965,0.3088 0.193,0.6562 z"
       id="path3053"
       inkscape:connector-curvature="0"
       style="fill:#b6491c" /><path
       class="fil0"
       d="m 3.784,10.6156 0,3.7635 1.8142,0.0386 c 0,0 0.2316,-0.8878 1.8528,-0.9457 1.6212,-0.0579 2.7406,0.0579 3.7056,0.0965 0.965,0.0386 1.3124,0.1158 1.6019,0.6369 0.2895,0.5211 0.2702,0.6755 0.3667,0.6755 0.0965,0 1.2352,0 2.0844,0.0193 0.8492,0.0193 0.9843,0.0386 1.0229,-0.2316 0.0386,-0.2702 0.0965,-1.6212 0.1737,-2.0844 0.0772,-0.4632 0.5211,-0.5211 0.6755,-0.4825 0.1544,0.0386 0.4632,0.0965 0.6755,0.5211 0.2123,0.4246 0.2123,0.5404 0.3667,0.5404 0.1544,0 0.772,0.0193 1.1387,0.0193 0.3667,0 0.579,0.4053 0.7141,0.5983 0.1351,0.193 0.2509,0.4246 0.4246,0.5404 0.1737,0.1158 0.6369,0.0193 1.0808,0.0193 0.4439,0 1.0615,-0.0579 1.4475,-0.0579 0.386,0 0.386,-0.2702 0.2509,-0.4632 -0.1351,-0.193 -0.5597,-0.7527 -1.1773,-1.1194 -0.6176,-0.3667 -0.7913,-0.6369 -0.5983,-1.1966 0.193,-0.5597 0.6562,-0.5018 1.2738,-0.5211 0.6176,-0.0193 1.158,-0.0579 1.2738,0.1351 0.1158,0.193 0.8299,0.8299 0.9071,0.965 0.0772,0.1351 4.053,-0.3474 5.3654,-0.5018 1.3124,-0.1544 3.2617,-0.4439 3.2617,-0.4439 0,0 -0.0579,-1.0036 -0.0965,-1.4089 -0.0386,-0.4053 -0.0965,-0.6562 -0.0965,-0.6562 0,0 -5.0759,-0.0579 -5.8286,-0.0386 -0.7527,0.0193 -0.7913,0.0193 -1.0422,0.0193 -0.2509,0 -0.3667,-0.1544 -0.5404,-0.1544 -0.1737,0 -9.7079,0.0193 -9.7079,0.0193 0,0 -0.4053,1.0229 -0.9071,1.3124 -0.5018,0.2895 -0.9264,0.6562 -2.1616,0.5983 C 11.8707,10.77 11.8321,10.7121 11.4847,10.7314 11.1373,10.7507 3.784,10.6156 3.784,10.6156 z m 14.1083,1.0808 c -0.0193,0.4825 0.386,0.7141 0.5404,0.7334 0.1544,0.0193 1.1387,0.0193 1.4282,-0.0193 0.2895,-0.0386 0.5404,-0.4439 0.5597,-0.7141 0.0193,-0.2702 -0.2123,-0.6369 -0.4825,-0.6755 -0.2702,-0.0386 -1.3703,-0.0579 -1.5826,0 -0.2123,0.0579 -0.4439,0.3281 -0.4632,0.6755 z"
       id="path3055"
       inkscape:connector-curvature="0"
       style="fill:#b6491c" /><circle
       class="fil1"
       cx="24.569599"
       cy="10.2472"
       r="0.32159999"
       id="circle3057"
       sodipodi:cx="24.569599"
       sodipodi:cy="10.2472"
       sodipodi:rx="0.32159999"
       sodipodi:ry="0.32159999"
       style="fill:#605d5c"
       d="m 24.891199,10.2472 c 0,0.177615 -0.143985,0.3216 -0.3216,0.3216 -0.177615,0 -0.3216,-0.143985 -0.3216,-0.3216 0,-0.177615 0.143985,-0.3216 0.3216,-0.3216 0.177615,0 0.3216,0.143985 0.3216,0.3216 z" /><polygon
       class="fil2"
       points="11.7742,10.2875 11.7456,10.7322 8.087,10.6903 8.1042,10.1755 "
       id="polygon3059"
       style="fill:#1f1a17" /><path
       class="fil3"
       d="m 14.979,14.8955 0.2306,0.0047 c 0.8492,0.0193 0.9843,0.0386 1.0229,-0.2316 0.0386,-0.2702 0.0965,-1.6212 0.1737,-2.0844 0.0138,-0.0827 0.0394,-0.1524 0.0728,-0.211 -0.1705,-0.0519 -0.4289,-0.115 -0.729,-0.1364 -0.5404,-0.0386 -1.1001,-0.0386 -1.1001,-0.0386 0,0 0.3088,-1.0808 0.4632,-1.5247 0.0449,-0.1291 0.1225,-0.3009 0.21,-0.4793 -0.0184,0.0128 -0.0369,0.0246 -0.0556,0.0354 -0.5018,0.2895 -0.9264,0.6562 -2.1616,0.5983 l -0.0794,-0.0038 c -0.2289,0.262 -0.5509,0.6405 -0.6926,0.853 -0.2316,0.3474 -0.386,1.4668 0.386,2.1423 0.772,0.6755 2.2589,1.0761 2.2589,1.0761 l 2e-4,0 z"
       id="path3061"
       inkscape:connector-curvature="0"
       style="fill:#bc6d4b" /><path
       class="fil2"
       d="m 4.7876,11.7157 c 0.0193,-0.2123 0.0965,-0.3667 0.3088,-0.3667 0.2123,0 5.9444,0.0386 6.2532,0.0193 0.3088,-0.0193 0.3088,0.1351 0.3088,0.3281 0,0.193 -0.0386,2.4511 -0.0386,2.4511 l -0.6179,0.0237 -0.0195,-0.8289 -0.9176,-0.0071 0.0022,0.8362 -0.7545,-5e-4 0.0021,-0.8133 -1.0532,-0.0131 0,0.812 -0.6029,-0.011 0.0023,-0.8015 -0.9775,-0.0075 -10e-5,0.8102 -0.67,-0.0081 0,-0.7982 -1.1291,-0.0035 -0.0965,-1.6212 z"
       id="path3063"
       inkscape:connector-curvature="0"
       style="fill:#1f1a17" /></g></svg>