<?xml version="1.0" encoding="UTF-8" standalone="no"?>
<!-- Creator: CorelDRAW -->

<svg
   xmlns:dc="http://purl.org/dc/elements/1.1/"
   xmlns:cc="http://creativecommons.org/ns#"
   xmlns:rdf="http://www.w3.org/1999/02/22-rdf-syntax-ns#"
   xmlns:svg="http://www.w3.org/2000/svg"
   xmlns="http://www.w3.org/2000/svg"
   xmlns:sodipodi="http://sodipodi.sourceforge.net/DTD/sodipodi-0.dtd"
   xmlns:inkscape="http://www.inkscape.org/namespaces/inkscape"
   xml:space="preserve"
   width="50.8mm"
   height="25.4mm"
   style="shape-rendering:geometricPrecision; text-rendering:geometricPrecision; image-rendering:optimizeQuality; fill-rule:evenodd; clip-rule:evenodd"
   viewBox="0 0 50.8 25.4"
   id="svg4105"
   version="1.1"
   inkscape:version="0.48.4 r9939"
   sodipodi:docname="bi7.svg"><metadata
     id="metadata4125"><rdf:RDF><cc:Work
         rdf:about=""><dc:format>image/svg+xml</dc:format><dc:type
           rdf:resource="http://purl.org/dc/dcmitype/StillImage" /></cc:Work></rdf:RDF></metadata><sodipodi:namedview
     pagecolor="#ffffff"
     bordercolor="#666666"
     borderopacity="1"
     objecttolerance="10"
     gridtolerance="10"
     guidetolerance="10"
     inkscape:pageopacity="0"
     inkscape:pageshadow="2"
     inkscape:window-width="1920"
     inkscape:window-height="1056"
     id="namedview4123"
     showgrid="false"
     inkscape:zoom="12.977778"
     inkscape:cx="51.944355"
     inkscape:cy="39.010329"
     inkscape:window-x="0"
     inkscape:window-y="24"
     inkscape:window-maximized="1"
     inkscape:current-layer="svg4105" /><defs
     id="defs4107"><style
       type="text/css"
       id="style4109">
    .fil0 {fill:#1F1A17}
    .fil4 {fill:#330000}
    .fil2 {fill:#996633}
    .fil1 {fill:#1F1A17;fill-rule:nonzero}
    .fil3 {fill:#FFCC99;fill-opacity:0.239216}
   </style></defs><g
     id="Vrstva_x0020_1"><metadata
       id="CorelCorpID_0Corel-Layer" /><g
       id="_142847448"><polygon
         id="_138651032"
         class="fil0"
         points="6.872,10.1368 6.8798,11.3305 7.0444,11.3295 7.0633,11.5231 6.9584,11.5288 6.9892,11.7977 7.6208,11.7784 7.6304,11.5384 7.5248,11.5384 7.5236,11.3267 7.707,11.3257 7.8016,10.1136 " /><path
         id="_142844784"
         class="fil1"
         d="M17.7464 11.5291c0.0115,0.2121 0.0078,0.3872 0.0049,0.529 -0.0032,0.1594 -0.0056,0.2742 0.016,0.3434l0 0.0008 0.0079 0.026 0.0004 0.0004c0.0345,0.1146 0.0744,0.2465 0.4608,0.2389 0.2093,-0.0041 0.549,-0.0029 0.8938,-0.0018 0.4588,0.0015 0.9276,0.0031 1.1087,-0.0078 0.1259,-0.0076 0.2058,-0.0487 0.2554,-0.1133 0.0542,-0.0707 0.0803,-0.1743 0.0929,-0.2965 0.0084,-0.081 0.0226,-0.1705 0.0368,-0.2601 0.0323,-0.204 0.0652,-0.4115 0.027,-0.5098l0 -0.0004 -0.0004 -0.001 -0.0001 0.0001c-0.0524,-0.1349 -0.0907,-0.233 -0.271,-0.2323 -0.1421,0.0005 -0.7438,0.0163 -1.3136,0.0351 -0.4152,0.0136 -0.8144,0.0291 -1.0037,0.0414 -0.3361,0.0219 -0.3162,0.2005 -0.3162,0.2009l0.0004 0.007zm-0.1943 0.525c0.0028,-0.1359 0.0062,-0.3036 -0.0046,-0.5091 -0.0022,-0.0241 -0.0272,-0.3885 0.5023,-0.423 0.1848,-0.012 0.5878,-0.0275 1.0099,-0.0414 0.5693,-0.0187 1.1738,-0.0345 1.319,-0.0351 0.3172,-0.0012 0.3766,0.1507 0.4578,0.3597l0 0.0004 0.0004 0.001 0.0001 -0.0001c0.0575,0.1479 0.0203,0.3822 -0.0162,0.6128 -0.0135,0.0853 -0.0271,0.1704 -0.0352,0.2493 -0.0161,0.1561 -0.0528,0.2929 -0.1327,0.3971 -0.0847,0.1104 -0.2115,0.18 -0.4022,0.1915 -0.1817,0.011 -0.6562,0.0094 -1.1205,0.0078 -0.3431,-0.001 -0.6811,-0.0022 -0.8898,0.0018 -0.5381,0.0105 -0.6014,-0.1991 -0.6562,-0.3811l0.0003 -0.0001 -0.0076 -0.0248 -0.0002 0.0001c-0.0309,-0.099 -0.0283,-0.2278 -0.0246,-0.4068z" /><polygon
         id="_142847112"
         class="fil0"
         points="9.464,10.1368 9.4718,11.3305 9.6364,11.3295 9.6553,11.5231 9.5504,11.5288 9.5812,11.7977 10.2128,11.7784 10.2224,11.5384 10.1168,11.5384 10.1156,11.3267 10.299,11.3257 10.3936,10.1136 " /><path
         id="_142844616"
         class="fil2"
         d="m 15.4352,9.0136 c 0,0 -0.1056,1.2864 -1.0848,1.7184 -0.9792,0.432 -2.0544,-0.2016 -2.0544,-0.2016 L 5.4512,10.5688 5.0096,10.06 c 0,0 -1.0464,0.192 -1.44,0.24 -0.3936,0.048 -0.4796151,0.03585 -0.4796151,0.03585 0,0 0.013521,2.479347 0.023121,3.535347 0.0096,1.056 0.0192,2.7072 0.0192,2.784 0,0.0768 0.2260945,0.2352 0.8692945,0.1848 0.6432,-0.0504 1.1904,-0.2904 1.6416,-0.636 0.4512,-0.3456 0.8352,-0.6048 1.9776,-0.7584 1.1424,-0.1536 3.7928,-0.4104 4.6324,-0.4164 0.8396,-0.006 1.4732,0.4068 1.6076,0.4548 0.1344,0.048 2.3808,0.096 2.3808,0.096 0,0 0.096,-1.0272 0.1248,-1.7184 0.0288,-0.6912 0.0672,-1.3632 0.3744,-1.5264 0.3072,-0.1632 0.8448,-0.1152 0.8448,-0.1152 0,0 0.0312,-0.4388 0.054,-0.637 0.0228,-0.1982 0.1188,-0.4286 0.5316,-0.4286 0.4128,0 2.0544,-0.0096 2.3616,-0.0096 0.3072,0 0.3264,0.384 0.3072,0.6048 -0.0192,0.2208 -0.1824,0.8256 -0.1824,0.8256 0,0 1.056,0.0672 1.1616,0.0672 0.1056,0 0.4608,-0.6048 0.9024,-0.5568 0.4416,0.048 0.672,0.5184 0.7776,0.528 0.1056,0.0096 2.6304,-0.0096 3.3408,0.0096 0.7104,0.0192 4.7616,-0.6624 5.664,-0.7872 0.9024,-0.1248 2.2446,-0.3689 2.56,-0.4167 0.3154,-0.0478 0.2136,-0.3007 0.1228,-0.6092 C 35.096,10.5016 34.8132,9.5678 34.7242,9.3337 34.6352,9.0996 34.5491,9.1004 34.1937,9.1124 c -0.3554,0.012 -7.1233,0.074 -7.4497,0.074 -0.3264,0 -0.4608,-0.0096 -0.4608,-0.0096 0,0 0.0097,-0.1591 -0.125,-0.161 C 26.0235,9.0139 15.4352,9.0136 15.4352,9.0136 z m -10.32,3.8592 c -0.0288,-0.2976 -0.048,-0.4512 -0.048,-0.6912 0,-0.24 -0.0288,-0.4032 0.0768,-0.576 0.1056,-0.1728 0.192,-0.24 0.4416,-0.2592 0.2496,-0.0192 4.7712,-0.0288 5.1456,-0.0384 0.3744,-0.0096 0.519,0.2406 0.5475,0.4659 0.0285,0.2253 -0.1251,0.5997 -0.1347,0.7053 -0.0096,0.1056 -0.1056,0.1632 -0.1056,0.1632 z"
         inkscape:connector-curvature="0"
         style="fill:#996633"
         sodipodi:nodetypes="cscccscssssssscsscsssscsssssssssscsccsssssscc" /><path
         id="_142847544"
         class="fil3"
         d="M15.4352 9.0136c0,0 -0.1056,1.2864 -1.0848,1.7184 -0.9792,0.432 -2.0544,-0.2016 -2.0544,-0.2016l-0.1127 0.0006 -0.0001 0.0001c0,0 -0.5072,0.6833 -0.5248,1.9566 -0.0176,1.2733 0.0133,1.5658 0.2109,1.9236 0.1976,0.3578 0.1651,0.8866 1.3667,0.3307 1.2016,-0.5559 2.5397,-3.836 2.3821,-4.9848 -0.0409,-0.2982 -0.0776,-0.5436 -0.1097,-0.7436l-0.0732 0z" /><path
         id="_138651344"
         class="fil4"
         d="M16.2771 15.1753c0.0305,-0.3622 0.072,-0.8985 0.0893,-1.3137 0.014,-0.3372 0.0304,-0.6698 0.0791,-0.941 -0.3767,-0.0958 -1.0199,-0.307 -1.2215,-0.5854 -0.2016,-0.2784 -0.426,-0.5318 -0.5922,-0.5491 -0.1662,-0.0173 -0.9246,-0.2861 -0.915,0.6355 0.0096,0.9216 0.0412,1.283 0.1166,1.6303 0.0754,0.3473 0.421,0.8753 0.7474,0.9809 0.3264,0.1056 1.2902,0.1122 1.6963,0.1425z" /><path
         id="_142844712"
         class="fil4"
         d="M24.9542 12.6148c0.7302,-0.0012 1.5324,-0.0012 1.8858,0.0084 0.7104,0.0192 4.7616,-0.6624 5.664,-0.7872 0.6402,-0.0885 1.5018,-0.2371 2.061,-0.3331 -0.277,-0.1419 -0.8173,-0.2608 -1.5426,-0.2333 -0.7584,0.0288 -2.6016,0 -4.7908,0.1217 -2.1892,0.1217 -2.726,0.3679 -3.062,0.4831 -0.2751,0.0943 -0.2716,0.468 -0.2154,0.7404z" /><path
         id="_142845096"
         class="fil0"
         d="M4.4816 15.2056c0,-0.3648 -0.0096,-1.1424 -0.0384,-1.5456 -0.0288,-0.4032 -0.1825,-1.3504 -0.1825,-1.3504l0.5761 -0.0287 0.0088 0.6202 1.1189 -0.0614 0.0381 -0.6096 0.605 -0.0141 0.0232 0.5978 1.1231 -0.0437 0.0158 -0.6635 0.5729 -0.0194 0.0165 0.6252 1.1131 -0.0091 0.0154 -0.7265 0.5697 0.0003 0.0296 0.7024 1.0426 -0.0401 0.2387 -0.0286c0,0 0.1694,1.5292 0.179,1.6924 0.0096,0.1632 -0.0288,0.3648 -0.2592,0.384 -0.2304,0.0192 -5.8464,0.624 -6.3072,0.6528 -0.4608,0.0288 -0.4992,-0.1344 -0.4992,-0.1344z" /><path
         id="_142846944"
         class="fil2"
         d="M5.7104 8.8024c-0.2592,0.0768 -0.4896,0.4128 -0.5568,0.5568 -0.0672,0.144 -0.1152,0.2976 -0.0384,0.4608 0.0768,0.1632 0.1431,0.3352 0.4215,0.4024 0.2784,0.0672 0.9609,0.0392 0.9609,0.0392l5.7903 -0.0045c0,0 0.2769,-0.2355 0.4497,-0.5427 0.1728,-0.3072 0.2208,-0.5664 0.288,-0.72 0.0672,-0.1536 -0.0192,-0.2112 -0.1152,-0.2112 -0.096,0 -7.2,0.0192 -7.2,0.0192z" /></g></g></svg>