<?xml version="1.0" encoding="UTF-8"?>
<!DOCTYPE svg PUBLIC "-//W3C//DTD SVG 1.1//EN" "http://www.w3.org/Graphics/SVG/1.1/DTD/svg11.dtd">
<!-- Creator: CorelDRAW -->
<svg xmlns="http://www.w3.org/2000/svg" xml:space="preserve" width="50.8mm" height="25.4mm" style="shape-rendering:geometricPrecision; text-rendering:geometricPrecision; image-rendering:optimizeQuality; fill-rule:evenodd; clip-rule:evenodd"
viewBox="0 0 50.8 25.4"
 xmlns:xlink="http://www.w3.org/1999/xlink">
 <defs>
  <style type="text/css">
   <![CDATA[
    .fil0 {fill:#E77817}
    .fil2 {fill:#765531}
    .fil1 {fill:#8D683B}
   ]]>
  </style>
 </defs>
 <g id="Vrstva_x0020_1">
  <metadata id="CorelCorpID_0Corel-Layer"/>
  <polygon class="fil0" points="7.0768,9.72 7.0384,10.4784 7.7488,10.5168 7.8544,9.7104 "/>
  <polygon class="fil0" points="9.496,9.6816 9.5152,10.7088 10.2736,10.728 10.2448,9.7104 "/>
  <path class="fil1" d="M3.4536 9.6816c0,0 -0.1536,2.064 -0.1728,2.976 -0.0192,0.912 0.0384,1.8816 0.0384,1.8816 0,0 2.5192,-0.4032 3.748,-0.48 1.2288,-0.0768 2.7456,-0.1536 3.216,-0.096 0.4704,0.0576 1.104,0.5088 2.0736,1.1328 0.9696,0.624 1.9584,0.8832 2.5152,0.912 0.5568,0.0288 0.768,0.0576 0.768,-0.0672 0,-0.1248 -0.1982,-0.1166 -0.2287,-0.2455 -0.0305,-0.1289 0.0199,-0.2909 0.1339,-0.5171 0.114,-0.2262 0.3348,-0.6102 0.3924,-0.9942 0.0576,-0.384 0.0384,-0.7968 0.048,-0.9408 0.0096,-0.144 0.5376,-0.528 0.768,-0.192 0.2304,0.336 0.384,0.5664 0.4608,0.7392 0.0768,0.1728 0.3744,0.0384 0.5568,0.0384 0.1824,0 0.6528,0.1344 0.8256,0.2592 0.1728,0.1248 0.3456,0.3168 0.5376,0.3744 0.192,0.0576 0.5856,0.096 0.8832,0.24 0.2976,0.144 0.576,0.3552 0.7392,0.4704 0.1632,0.1152 0.3648,0.1824 0.672,0.1824 0.3072,0 1.1904,0 1.44,-0.0096 0.2496,-0.0096 0.3264,-0.2784 0.2976,-0.6144 -0.0288,-0.336 -0.0192,-0.4224 -0.2304,-0.6624 -0.2112,-0.24 -0.7872,-0.624 -1.056,-0.8736 -0.2688,-0.2496 -0.4032,-0.72 -0.3168,-0.96 0.0864,-0.24 0.3744,-0.5952 0.864,-0.624 0.4896,-0.0288 1.7184,-0.0192 2.0928,-0.0192 0.3744,0 0.9024,0.0384 1.0848,0.0384 0.1824,0 0.576,0.1824 0.7296,0.3168 0.1536,0.1344 0.5376,0.432 0.7872,0.4128 0.2496,-0.0192 2.8416,-0.3456 3.696,-0.432 0.8544,-0.0864 3.5424,-0.3744 3.9264,-0.4224 0.384,-0.048 1.1328,-0.2592 1.248,-0.3456 0.1152,-0.0864 0.2016,-0.1632 0.2016,-0.336 0,-0.1728 -0.0288,-0.7488 -0.0672,-0.9216 -0.0384,-0.1728 -0.3552,-0.3552 -0.576,-0.5376 -0.2208,-0.1824 -0.2496,-0.1824 -0.4992,-0.24 -0.2496,-0.0576 -1.096,0.0012 -1.096,0.0012l-15.0154 -0.2123 -0.2316 0.4053 -2.9929 -0.086c0,0 -0.3267,0.5685 -0.5004,0.7808 -0.1737,0.2123 -1.1193,0.9581 -2.1326,0.8554 -1.0133,-0.1027 -1.766,-0.3729 -2.1134,-0.3922 -0.3474,-0.0193 -2.5669,-0.0772 -3.5512,-0.0965 -0.2827,-0.0055 -4.7724,-0.338 -3.9641,-0.6989zm1.9837 1.2861c-0.0858,0.0283 -0.3189,-0.0478 -0.59,0.0319 -0.2711,0.0797 -0.4306,0.3987 -0.3828,0.606 0.0478,0.2073 0.1435,0.4465 0.3349,0.4784 0.1914,0.0319 1.091,0.0436 1.3723,-0.0362 0.2813,-0.0798 0.4814,-0.1167 0.5329,-0.5558 0.0515,-0.4391 -0.4221,-0.4446 -0.6772,-0.4605 -0.2551,-0.0159 -0.5901,-0.0638 -0.5901,-0.0638zm11.9006 0.8989c-0.2123,0.3667 -0.0965,0.9457 0.1737,1.1001 0.2702,0.1544 1.4089,0.3474 1.7949,0.2702 0.386,-0.0772 0.9071,-0.3474 0.9071,-0.7527 0,-0.4053 -0.2702,-0.7334 -0.579,-0.9264 -0.3088,-0.193 -1.3722,-0.1525 -1.7014,-0.1359 -0.3292,0.0166 -0.5953,0.4447 -0.5953,0.4447z"/>
  <path class="fil1" d="M6.1168 9.8256c0,0 4.8384,0.0192 5.2896,-0.0096 0.4512,-0.0288 0.72,-0.0768 0.9024,-0.2784 0.1824,-0.2016 0.576,-0.4128 0.576,-0.4128 0,0 -0.7296,-0.2688 -1.0944,-0.2784 -0.3648,-0.0096 -5.328,-0.0288 -5.328,-0.0288 0,0 -0.2784,0.1152 -0.288,0.2592 -0.0096,0.144 -0.0576,0.7488 -0.0576,0.7488z"/>
  <path class="fil2" d="M20.9279 15.2682c0.1323,0.056 0.2922,0.087 0.5009,0.087 0.1725,0 0.5268,0 0.8484,-0.0017 -0.0169,-0.1462 -0.0472,-0.3105 -0.1003,-0.4726 -0.1548,-0.4723 -0.6755,-0.965 -1.1387,-1.158 -0.4632,-0.193 -1.1773,-0.2702 -1.1773,-0.2702l-0.7912 -0.1982c0,0 0.2315,0.4491 0.4245,0.7386 0.193,0.2895 0.9457,0.6948 1.4337,1.2751z"/>
  <path class="fil2" d="M15.3511 9.8251c-0.0495,0.0741 -0.0968,0.1405 -0.1362,0.1887 -0.1737,0.2123 -1.1193,0.9581 -2.1326,0.8554 -0.4189,-0.0425 -0.7931,-0.1134 -1.1127,-0.1836l-0.4077 0.1037c0,0 0.2123,1.7756 0.4632,2.7213 0.2509,0.9457 1.1194,1.2738 1.4089,1.2545 0.2895,-0.0193 0.3667,-0.7913 0.6369,-1.3896 0.2702,-0.5983 1.8142,-3.6863 1.8142,-3.6863l-0.534 0.1359z"/>
  <path class="fil2" d="M27.9319 12.2669c0.9046,-0.1086 2.3014,-0.2798 2.8857,-0.3389 0.8544,-0.0864 3.5424,-0.3744 3.9264,-0.4224 0.384,-0.048 1.1328,-0.2592 1.248,-0.3456 0,0 -0.8262,-0.5251 -1.6754,-0.4479 -0.8492,0.0772 -3.3389,0.4053 -4.7285,0.5404 -1.3896,0.1351 -1.6598,0.6755 -1.6562,1.0144z"/>
 </g>
</svg>
