<?xml version="1.0" encoding="UTF-8"?>
<!DOCTYPE svg PUBLIC "-//W3C//DTD SVG 1.1//EN" "http://www.w3.org/Graphics/SVG/1.1/DTD/svg11.dtd">
<!-- Creator: CorelDRAW -->
<svg xmlns="http://www.w3.org/2000/svg" xml:space="preserve" width="50.8mm" height="25.4mm" style="shape-rendering:geometricPrecision; text-rendering:geometricPrecision; image-rendering:optimizeQuality; fill-rule:evenodd; clip-rule:evenodd"
viewBox="0 0 50.8 25.4"
 xmlns:xlink="http://www.w3.org/1999/xlink">
 <defs>
  <style type="text/css">
   <![CDATA[
    .fil4 {fill:#1F1A17}
    .fil0 {fill:#605D5C}
    .fil1 {fill:#E77817}
    .fil3 {fill:#6D473F}
    .fil2 {fill:#7C6053}
   ]]>
  </style>
 </defs>
 <g id="Vrstva_x0020_1">
  <metadata id="CorelCorpID_0Corel-Layer"/>
  <path class="fil0" d="M17.305 12.4445c-0.0037,0.3093 0.7417,0.4099 1.0505,0.4099 0.3088,0 1.5576,-0.1983 1.5576,-0.1983l0.1614 0.0871c0,0 -0.199,0.0742 -0.4581,0.1027 -0.4621,0.0508 -1.1271,0.1541 -1.2755,0.1527 -0.5272,-0.0049 -1.3943,-0.2986 -1.4329,-0.4337 -0.0386,-0.1351 0.397,-0.1204 0.397,-0.1204z"/>
  <polygon class="fil1" points="6.07,11.8037 6.2476,12.4665 6.9285,12.4103 6.7142,11.6104 "/>
  <polygon class="fil1" points="10.1141,11.3504 10.2917,12.0132 10.9726,11.957 10.7583,11.1571 "/>
  <path class="fil2" d="M3.7478 9.7354c-0.1686,0.0076 -0.276,0.0076 -0.3067,0.2304 -0.0306,0.2228 -0.023,1.4516 -0.023,1.4516 0,0 0.0079,1.2211 0.0461,1.5822 0.0383,0.361 0.0537,2.0584 0.0843,2.6958 0.0307,0.6375 0.0536,0.9217 0.069,1.0676 0.0154,0.1459 0.0537,0.2534 0.207,0.2381 0.1533,-0.0154 0.2683,-0.0384 0.3756,-0.0384 0.1073,0 0.2377,-0.3072 0.9276,-0.8372 0.6899,-0.5299 0.8816,-0.5914 1.2342,-0.6528 0.3526,-0.0614 3.2887,-0.5069 3.7563,-0.5453 0.4677,-0.0384 1.081,0.0691 1.3723,0.1997 0.2913,0.1305 1.7402,0.8754 2.9897,0.8217 1.2496,-0.0537 1.3108,-0.0998 1.3645,-0.1997 0.0537,-0.0998 0.1458,-0.6604 0.1534,-1.1212 0.0076,-0.4609 -0.023,-0.9217 0,-1.1905 0.023,-0.2689 0.115,-0.3688 0.2223,-0.4763 0.1074,-0.1074 0.2836,-0.1766 0.4676,-0.1766 0.184,0 0.5674,0 0.6133,-0.0307 0.046,-0.0307 -0.023,-0.3994 0,-0.6221 0.023,-0.2228 0.0537,-0.4992 0.391,-0.5607 0.3373,-0.0615 1.5024,-0.0691 1.7171,-0.0691 0.2147,0 0.5214,0.2458 0.5444,0.5223 0.023,0.2765 -0.0001,0.4224 -0.1304,0.5376 -0.1303,0.1152 -0.207,0.2841 -0.207,0.2841l3.3271 -0.1459c0,0 0.115,-0.3916 0.5059,-0.4147 0.391,-0.0231 0.5213,0.3456 0.5213,0.3456 0,0 4.8757,-0.5684 5.8186,-0.6528 0.9428,-0.0845 3.994,-0.4225 4.6072,-0.4686 0.6132,-0.046 0.7283,-0.1152 0.8356,-0.1305 0.1073,-0.0154 0.3066,-0.1305 0.2683,-0.3917 -0.0383,-0.2612 -0.2836,-1.1367 -0.3373,-1.3902 -0.0537,-0.2534 -0.3756,-0.2611 -0.5366,-0.2688 -0.161,-0.0076 -4.4693,-0.0231 -5.8032,-0.0384 -1.3339,-0.0154 -9.9351,-0.0845 -9.9351,-0.0845 0,0 -0.1074,0.0922 -0.299,0.0922 -0.1916,0 -2.7752,0.0384 -3.0588,0.0461 -0.2835,0.0077 -0.9352,0.4916 -1.6021,1.1751 -0.667,0.6836 -1.0503,1.0982 -1.8245,1.1904 -0.7743,0.0922 -1.7325,0.1307 -2.2845,0.1614 -0.552,0.0307 -3.6873,0.3533 -3.925,0.3686 -0.2377,0.0154 -0.5979,-0.4762 -0.6439,-0.6067 -0.0461,-0.1306 -0.483,-1.2672 -0.5213,-1.4439 -0.0383,-0.1767 -0.069,-0.4531 -0.115,-0.4839 -0.046,-0.0308 -0.8663,0.0307 -0.8663,0.0307z"/>
  <path class="fil3" d="M15.5304 9.3437c-0.2835,0.0077 -0.9352,0.4916 -1.6021,1.1751 -0.667,0.6836 -1.0503,1.0982 -1.8245,1.1904 -0.2397,0.0285 -0.497,0.0518 -0.7545,0.0715l-0.0001 0.0001c0,0 0.0931,2.7889 1.1039,3.3665 1.0108,0.5776 1.8281,-0.7942 1.9725,-2.3751 0.1059,-1.1594 1.1048,-3.4285 1.1048,-3.4285z"/>
  <path class="fil2" d="M12.5714 9.5204c0,0 -0.3527,0.9139 -0.4447,1.1597 -0.0919,0.2457 -0.2912,0.6529 -0.3602,0.6913 -0.0691,0.0383 -1.5869,0.1612 -1.8399,0.1612 -0.253,0 -0.3449,0.0077 -0.3449,0.0077 0,0 -0.0077,-0.8909 -0.1917,-1.0446 -0.184,-0.1536 -0.322,-0.2611 -0.7359,-0.2534 -0.414,0.0077 -1.104,0.0615 -1.3186,0.0768 -0.2146,0.0154 -0.3297,0.2766 -0.3373,0.3994 -0.0076,0.1228 0.092,1.0676 0.092,1.0676 0,0 -1.0579,0.1228 -1.2572,0.1305 -0.1994,0.0078 -0.4063,-0.2918 -0.4677,-0.4608 -0.0613,-0.1689 -0.5902,-1.7819 -0.5902,-1.7819l7.7963 -0.1535z"/>
  <path class="fil4" d="M25.6113 9.2608c0,0 0.0287,1.5864 0.0287,1.8456 0,0.2592 0.1344,0.3168 0.3936,0.3072 0.2592,-0.0096 5.6352,-0.048 6,-0.0576 0.3648,-0.0096 0.3456,-0.3936 0.3936,-0.6336 0.048,-0.24 0.2112,-1.2768 0.2112,-1.2768l0.0007 -0.1311 -7.0278 -0.0537z"/>
 </g>
</svg>
