<?xml version="1.0" encoding="UTF-8" standalone="no"?>
<!-- Creator: CorelDRAW -->

<svg
   xmlns:dc="http://purl.org/dc/elements/1.1/"
   xmlns:cc="http://creativecommons.org/ns#"
   xmlns:rdf="http://www.w3.org/1999/02/22-rdf-syntax-ns#"
   xmlns:svg="http://www.w3.org/2000/svg"
   xmlns="http://www.w3.org/2000/svg"
   xmlns:sodipodi="http://sodipodi.sourceforge.net/DTD/sodipodi-0.dtd"
   xmlns:inkscape="http://www.inkscape.org/namespaces/inkscape"
   xml:space="preserve"
   width="50.8mm"
   height="25.4mm"
   style="shape-rendering:geometricPrecision; text-rendering:geometricPrecision; image-rendering:optimizeQuality; fill-rule:evenodd; clip-rule:evenodd"
   viewBox="0 0 50.8 25.4"
   id="svg4458"
   version="1.1"
   inkscape:version="0.48.4 r9939"
   sodipodi:docname="default.svg"><metadata
     id="metadata4482"><rdf:RDF><cc:Work
         rdf:about=""><dc:format>image/svg+xml</dc:format><dc:type
           rdf:resource="http://purl.org/dc/dcmitype/StillImage" /></cc:Work></rdf:RDF></metadata><sodipodi:namedview
     pagecolor="#ffffff"
     bordercolor="#666666"
     borderopacity="1"
     objecttolerance="10"
     gridtolerance="10"
     guidetolerance="10"
     inkscape:pageopacity="0"
     inkscape:pageshadow="2"
     inkscape:window-width="1557"
     inkscape:window-height="1028"
     id="namedview4480"
     showgrid="false"
     inkscape:zoom="12.977778"
     inkscape:cx="105.72474"
     inkscape:cy="37.637892"
     inkscape:window-x="0"
     inkscape:window-y="24"
     inkscape:window-maximized="0"
     inkscape:current-layer="svg4458" /><defs
     id="defs4460"><style
       type="text/css"
       id="style4462">
    .fil4 {fill:#1F1A17}
    .fil0 {fill:#605D5C}
    .fil1 {fill:#E77817}
    .fil3 {fill:#6D473F}
    .fil2 {fill:#7C6053}
   </style></defs><g
     id="Vrstva_x0020_1"
     transform="matrix(0.9999753,-0.00702821,0.00702821,0.9999753,-0.09161683,0.13710132)"><metadata
       id="CorelCorpID_0Corel-Layer" /><path
       class="fil0"
       d="m 17.305,12.4445 c -0.0037,0.3093 0.7417,0.4099 1.0505,0.4099 0.3088,0 1.5576,-0.1983 1.5576,-0.1983 l 0.1614,0.0871 c 0,0 -0.199,0.0742 -0.4581,0.1027 C 19.1543,12.8967 18.4893,13 18.3409,12.9986 17.8137,12.9937 16.9466,12.7 16.908,12.5649 c -0.0386,-0.1351 0.397,-0.1204 0.397,-0.1204 z"
       id="path4466"
       inkscape:connector-curvature="0"
       style="fill:#605d5c" /><polygon
       class="fil1"
       points="6.2476,12.4665 6.9285,12.4103 6.7142,11.6104 6.07,11.8037 "
       id="polygon4468"
       style="fill:#e77817" /><polygon
       class="fil1"
       points="10.2917,12.0132 10.9726,11.957 10.7583,11.1571 10.1141,11.3504 "
       id="polygon4470"
       style="fill:#e77817" /><path
       class="fil2"
       d="M 3.7478,9.7354 C 3.5792,9.743 3.4718,9.743 3.4411,9.9658 c -0.0306,0.2228 -0.023,1.4516 -0.023,1.4516 0,0 0.0079,1.2211 0.0461,1.5822 0.0383,0.361 0.0537,2.0584 0.0843,2.6958 0.0307,0.6375 0.0536,0.9217 0.069,1.0676 0.0154,0.1459 0.0537,0.2534 0.207,0.2381 0.1533,-0.0154 0.2683,-0.0384 0.3756,-0.0384 0.1073,0 0.2377,-0.3072 0.9276,-0.8372 0.6899,-0.5299 0.8816,-0.5914 1.2342,-0.6528 0.3526,-0.0614 3.2887,-0.5069 3.7563,-0.5453 0.4677,-0.0384 1.081,0.0691 1.3723,0.1997 0.2913,0.1305 1.7402,0.8754 2.9897,0.8217 1.2496,-0.0537 1.3108,-0.0998 1.3645,-0.1997 0.0537,-0.0998 0.1458,-0.6604 0.1534,-1.1212 0.0076,-0.4609 -0.023,-0.9217 0,-1.1905 0.023,-0.2689 0.115,-0.3688 0.2223,-0.4763 0.1074,-0.1074 0.2836,-0.1766 0.4676,-0.1766 0.184,0 0.5674,0 0.6133,-0.0307 0.046,-0.0307 -0.023,-0.3994 0,-0.6221 0.023,-0.2228 0.0537,-0.4992 0.391,-0.5607 0.3373,-0.0615 1.5024,-0.0691 1.7171,-0.0691 0.2147,0 0.5214,0.2458 0.5444,0.5223 0.023,0.2765 -10e-5,0.4224 -0.1304,0.5376 -0.1303,0.1152 -0.207,0.2841 -0.207,0.2841 L 22.9435,12.7 c 0,0 0.115,-0.3916 0.5059,-0.4147 0.391,-0.0231 0.5213,0.3456 0.5213,0.3456 0,0 4.8757,-0.5684 5.8186,-0.6528 0.9428,-0.0845 3.994,-0.4225 4.6072,-0.4686 0.6132,-0.046 0.7283,-0.1152 0.8356,-0.1305 0.1073,-0.0154 0.3066,-0.1305 0.2683,-0.3917 C 35.4621,10.7261 35.2168,9.8506 35.1631,9.5971 35.1094,9.3437 34.7875,9.336 34.6265,9.3283 34.4655,9.3207 30.1572,9.3052 28.8233,9.2899 27.4894,9.2745 18.8882,9.2054 18.8882,9.2054 c 0,0 -0.1074,0.0922 -0.299,0.0922 -0.1916,0 -2.7752,0.0384 -3.0588,0.0461 -0.2835,0.0077 -0.9352,0.4916 -1.6021,1.1751 -0.667,0.6836 -1.0503,1.0982 -1.8245,1.1904 -0.7743,0.0922 -1.7325,0.1307 -2.2845,0.1614 -0.552,0.0307 -3.6873,0.3533 -3.925,0.3686 C 5.6566,12.2546 5.2964,11.763 5.2504,11.6325 5.2043,11.5019 4.7674,10.3653 4.7291,10.1886 4.6908,10.0119 4.6601,9.7355 4.6141,9.7047 4.5681,9.6739 3.7478,9.7354 3.7478,9.7354 z"
       id="path4472"
       inkscape:connector-curvature="0"
       style="fill:#7c6053" /><path
       class="fil3"
       d="m 15.5304,9.3437 c -0.2835,0.0077 -0.9352,0.4916 -1.6021,1.1751 -0.667,0.6836 -1.0503,1.0982 -1.8245,1.1904 -0.2397,0.0285 -0.497,0.0518 -0.7545,0.0715 l -10e-5,10e-5 c 0,0 0.0931,2.7889 1.1039,3.3665 1.0108,0.5776 1.8281,-0.7942 1.9725,-2.3751 0.1059,-1.1594 1.1048,-3.4285 1.1048,-3.4285 z"
       id="path4474"
       inkscape:connector-curvature="0"
       style="fill:#6d473f" /><path
       class="fil2"
       d="m 12.5714,9.5204 c 0,0 -0.3527,0.9139 -0.4447,1.1597 -0.0919,0.2457 -0.2912,0.6529 -0.3602,0.6913 -0.0691,0.0383 -1.5869,0.1612 -1.8399,0.1612 -0.253,0 -0.3449,0.0077 -0.3449,0.0077 0,0 -0.0077,-0.8909 -0.1917,-1.0446 -0.184,-0.1536 -0.322,-0.2611 -0.7359,-0.2534 -0.414,0.0077 -1.104,0.0615 -1.3186,0.0768 -0.2146,0.0154 -0.3297,0.2766 -0.3373,0.3994 -0.0076,0.1228 0.092,1.0676 0.092,1.0676 0,0 -1.0579,0.1228 -1.2572,0.1305 C 5.6336,11.9244 5.4267,11.6248 5.3653,11.4558 5.304,11.2869 4.7751,9.6739 4.7751,9.6739 l 7.7963,-0.1535 z"
       id="path4476"
       inkscape:connector-curvature="0"
       style="fill:#7c6053" /><path
       class="fil4"
       d="m 25.6113,9.2608 c 0,0 0.0287,1.5864 0.0287,1.8456 0,0.2592 0.1344,0.3168 0.3936,0.3072 0.2592,-0.0096 5.6352,-0.048 6,-0.0576 0.3648,-0.0096 0.3456,-0.3936 0.3936,-0.6336 0.048,-0.24 0.2112,-1.2768 0.2112,-1.2768 l 7e-4,-0.1311 -7.0278,-0.0537 z"
       id="path4478"
       inkscape:connector-curvature="0"
       style="fill:#1f1a17" /></g></svg>