<?xml version="1.0" encoding="UTF-8"?>
<!DOCTYPE svg PUBLIC "-//W3C//DTD SVG 1.1//EN" "http://www.w3.org/Graphics/SVG/1.1/DTD/svg11.dtd">
<!-- Creator: CorelDRAW -->
<svg xmlns="http://www.w3.org/2000/svg" xml:space="preserve" width="50.8mm" height="25.4mm" style="shape-rendering:geometricPrecision; text-rendering:geometricPrecision; image-rendering:optimizeQuality; fill-rule:evenodd; clip-rule:evenodd"
viewBox="0 0 50.8 25.4"
 xmlns:xlink="http://www.w3.org/1999/xlink">
 <defs>
  <style type="text/css">
   <![CDATA[
    .fil2 {fill:#C2C1C1}
    .fil1 {fill:#DEDEDD}
    .fil0 {fill:#C33C5C;fill-rule:nonzero}
   ]]>
  </style>
 </defs>
 <g id="Vrstva_x0020_1">
  <metadata id="CorelCorpID_0Corel-Layer"/>
  <g id="_138651224">
   <path id="_138647984" class="fil0" d="M26.9498 6.0974c-1.1165,0.0194 -2.1544,0.3575 -3.0825,0.8266 -0.9383,0.4741 -1.7662,1.0834 -2.452,1.6359 -0.7332,0.5906 -1.9341,1.1981 -3.4183,1.7309 -1.4066,0.505 -3.0715,0.9455 -4.8354,1.2428 -4.6455,0.7831 -2.8758,-0.4784 -2.8709,-0.4819l0.291 0.4042c0,0 -0.0244,0.0107 2.4979,-0.4145 1.7371,-0.2928 3.372,-0.7249 4.7494,-1.2194 1.4317,-0.5139 2.5819,-1.0933 3.2739,-1.6507 0.7073,-0.5698 1.5631,-1.1992 2.5398,-1.6927 0.9869,-0.4988 2.096,-0.8583 3.2993,-0.8792l0.0078 0.498z"/>
   <path id="_138647048" class="fil1" d="M26.2106 5.8871c-0.0579,0.2316 0.0386,0.4439 0.4053,0.4632 0.3667,0.0193 2.7599,0.2123 3.6284,0.3281 0.8685,0.1158 2.2388,0.4632 2.8371,0.6176 0.5983,0.1544 1.2738,0.5983 1.2738,0.5983l0.7527 -0.8106c0,0 0.2358,-0.2971 -0.2874,-0.6986 -0.5232,-0.4015 -2.4532,-0.691 -3.2059,-0.8068 -0.7527,-0.1158 -1.7756,-0.2509 -2.6827,-0.2316 -0.9071,0.0193 -1.93,0.0579 -2.2002,0.0772 -0.2702,0.0193 -0.5211,0.4632 -0.5211,0.4632z"/>
   <path id="_142844040" class="fil0" d="M27.7548 16.9738c-0.8666,-0.0211 -2.3081,-0.2507 -3.7983,-0.6156 -1.2918,-0.3163 -2.6263,-0.7355 -3.6628,-1.21 -1.0036,-0.4594 -2.0242,-0.8671 -2.9772,-1.21 -1.125,-0.4049 -2.1554,-0.7202 -2.9524,-0.9248 -0.4727,-0.1214 -0.9141,-0.2501 -1.3236,-0.3695 -0.8865,-0.2585 -1.6223,-0.4729 -2.0474,-0.4379l-0.6809 0.0562 -0.041 -0.498 0.6809 -0.0562c0.5133,-0.0423 1.2905,0.1843 2.227,0.4573 0.4124,0.1203 0.8567,0.2498 1.308,0.3657 0.812,0.2085 1.8586,0.5285 2.9974,0.9384 0.967,0.348 2.0014,0.761 3.0162,1.2256 1.006,0.4606 2.3086,0.8692 3.573,1.1788 1.4587,0.3572 2.8599,0.5818 3.6929,0.602l-0.0118 0.498z"/>
   <path id="_142843800" class="fil1" d="M27.0405 16.4056c-0.1158,0.2316 -0.2123,0.3667 -0.0193,0.5404 0.193,0.1737 0.3281,0.2509 0.6562,0.2509 0.3281,0 3.3968,0.0965 4.7478,-0.2509 1.351,-0.3474 2.2723,-0.8771 2.442,-1.2195 0.1697,-0.3424 0.1635,-1 0.1635,-1l-0.2123 -0.1737c0,0 -0.1544,0.193 -0.6948,0.4632 -0.5404,0.2702 -1.7177,0.8299 -3.3582,1.0808 -1.6405,0.2509 -2.9336,0.1737 -3.7249,0.3088z"/>
   <path id="_142847688" class="fil2" d="M34.3035 6.1388c0.3281,0.2316 0.7658,1.0028 0.2833,1.273 -0.4825,0.2702 -1.5819,0.9779 -2.123,1.3317 -0.5411,0.3538 -0.772,1.0422 -0.772,1.4861 0,0.4439 0.0493,1.057 0.401,1.5128 0.3517,0.4558 1.529,1.5945 1.8957,2.0577 0.3667,0.4632 0.8299,0.965 0.8106,1.351 -0.0193,0.386 -0.0193,0.7334 -0.0193,0.7334 0,0 1.1773,-1.9879 0.5404,-3.0301 -0.6369,-1.0422 -1.2045,-1.2551 -1.1966,-2.3932 0.0079,-1.1381 0.9959,-1.4606 1.2561,-1.8188 0.2602,-0.3582 0.4616,-1.3464 -0.1174,-1.9061 -0.579,-0.5597 -0.9588,-0.5975 -0.9588,-0.5975z"/>
  </g>
 </g>
</svg>
