<?xml version="1.0" encoding="UTF-8" standalone="no"?>
<!-- Creator: CorelDRAW -->

<svg
   xmlns:dc="http://purl.org/dc/elements/1.1/"
   xmlns:cc="http://creativecommons.org/ns#"
   xmlns:rdf="http://www.w3.org/1999/02/22-rdf-syntax-ns#"
   xmlns:svg="http://www.w3.org/2000/svg"
   xmlns="http://www.w3.org/2000/svg"
   xmlns:sodipodi="http://sodipodi.sourceforge.net/DTD/sodipodi-0.dtd"
   xmlns:inkscape="http://www.inkscape.org/namespaces/inkscape"
   xml:space="preserve"
   width="50.8mm"
   height="25.4mm"
   style="shape-rendering:geometricPrecision; text-rendering:geometricPrecision; image-rendering:optimizeQuality; fill-rule:evenodd; clip-rule:evenodd"
   viewBox="0 0 50.8 25.4"
   id="svg3270"
   version="1.1"
   inkscape:version="0.48.4 r9939"
   sodipodi:docname="blue.svg"><metadata
     id="metadata3286"><rdf:RDF><cc:Work
         rdf:about=""><dc:format>image/svg+xml</dc:format><dc:type
           rdf:resource="http://purl.org/dc/dcmitype/StillImage" /><dc:title></dc:title></cc:Work></rdf:RDF></metadata><sodipodi:namedview
     pagecolor="#ffffff"
     bordercolor="#666666"
     borderopacity="1"
     objecttolerance="10"
     gridtolerance="10"
     guidetolerance="10"
     inkscape:pageopacity="0"
     inkscape:pageshadow="2"
     inkscape:window-width="1554"
     inkscape:window-height="1028"
     id="namedview3284"
     showgrid="false"
     inkscape:zoom="3.2444445"
     inkscape:cx="60.546943"
     inkscape:cy="-1.5216496"
     inkscape:window-x="10"
     inkscape:window-y="24"
     inkscape:window-maximized="0"
     inkscape:current-layer="_138651224" /><defs
     id="defs3272"><style
       type="text/css"
       id="style3274">
    .fil2 {fill:#C2C1C1}
    .fil1 {fill:#DEDEDD}
    .fil0 {fill:#C33C5C;fill-rule:nonzero}
   </style></defs><g
     id="_138651224"><path
       sodipodi:nodetypes="ccczccczcccc"
       style="fill:#ececec;fill-rule:nonzero"
       inkscape:connector-curvature="0"
       d="m 26.9498,6.0974 c -1.1165,0.0194 -2.1544,0.3575 -3.0825,0.8266 -0.9383,0.4741 -1.7662,1.0834 -2.452,1.6359 -0.7332,0.5906 -2.059886,1.135887 -3.4183,1.7309 -1.358414,0.595013 -3.0715,1.509944 -4.8354,1.807244 -3.93967,0.910832 -3.5253461,0.102367 -2.5799,-0.0777 0,0 -0.0244,0.0107 2.4979,-0.4145 1.7371,-0.2928 3.456149,-1.187447 4.7494,-1.783844 1.293251,-0.5963971 2.5819,-1.0933 3.2739,-1.6507 0.7073,-0.5698 1.5631,-1.1992 2.5398,-1.6927 0.9869,-0.4988 2.096,-0.8583 3.2993,-0.8792 z"
       class="fil0"
       id="_138647984" /><path
       style="fill:#cc535a;fill-opacity:1"
       inkscape:connector-curvature="0"
       d="m 26.2106,5.8871 c -0.0579,0.2316 0.0386,0.4439 0.4053,0.4632 0.3667,0.0193 2.7599,0.2123 3.6284,0.3281 0.8685,0.1158 2.2388,0.4632 2.8371,0.6176 0.5983,0.1544 1.2738,0.5983 1.2738,0.5983 l 0.7527,-0.8106 c 0,0 0.2358,-0.2971 -0.2874,-0.6986 C 34.2973,5.9836 32.3673,5.6941 31.6146,5.5783 30.8619,5.4625 29.839,5.3274 28.9319,5.3467 28.0248,5.366 27.0019,5.4046 26.7317,5.4239 26.4615,5.4432 26.2106,5.8871 26.2106,5.8871 z"
       class="fil1"
       id="_138647048" /><path
       sodipodi:nodetypes="ccccccccccccccccc"
       style="fill:#ececec;fill-rule:nonzero"
       inkscape:connector-curvature="0"
       d="m 27.7548,16.9738 c -0.8666,-0.0211 -2.3081,-0.2507 -3.7983,-0.6156 -1.2918,-0.3163 -2.6263,-0.7355 -3.6628,-1.21 -1.0036,-0.4594 -2.0242,-0.8671 -2.9772,-1.21 C 16.1915,13.5333 15.1611,13.218 14.3641,13.0134 13.8914,12.892 13.45,12.7633 13.0405,12.6439 12.154,12.3854 11.410511,12.447789 10.985411,12.482789 l -0.6809,0.0562 -0.041,-0.498 0.6809,-0.0562 c 0.5133,-0.0423 1.298189,-0.09249 2.234689,0.180511 0.4124,0.1203 0.8567,0.2498 1.308,0.3657 0.812,0.2085 1.8586,0.5285 2.9974,0.9384 0.967,0.348 2.0014,0.761 3.0162,1.2256 1.006,0.4606 2.3086,0.8692 3.573,1.1788 1.4587,0.3572 2.8599,0.5818 3.6929,0.602 z"
       class="fil0"
       id="_142844040" /><path
       style="fill:#cc535a;fill-opacity:1"
       inkscape:connector-curvature="0"
       d="m 27.0405,16.4056 c -0.1158,0.2316 -0.2123,0.3667 -0.0193,0.5404 0.193,0.1737 0.3281,0.2509 0.6562,0.2509 0.3281,0 3.3968,0.0965 4.7478,-0.2509 1.351,-0.3474 2.2723,-0.8771 2.442,-1.2195 0.1697,-0.3424 0.1635,-1 0.1635,-1 l -0.2123,-0.1737 c 0,0 -0.1544,0.193 -0.6948,0.4632 -0.5404,0.2702 -1.7177,0.8299 -3.3582,1.0808 -1.6405,0.2509 -2.9336,0.1737 -3.7249,0.3088 z"
       class="fil1"
       id="_142843800" /><path
       style="fill:#b60000;fill-opacity:1"
       inkscape:connector-curvature="0"
       d="m 34.3035,6.1388 c 0.3281,0.2316 0.7658,1.0028 0.2833,1.273 -0.4825,0.2702 -1.5819,0.9779 -2.123,1.3317 -0.5411,0.3538 -0.772,1.0422 -0.772,1.4861 0,0.4439 0.0493,1.057 0.401,1.5128 0.3517,0.4558 1.529,1.5945 1.8957,2.0577 0.3667,0.4632 0.8299,0.965 0.8106,1.351 -0.0193,0.386 -0.0193,0.7334 -0.0193,0.7334 0,0 1.1773,-1.9879 0.5404,-3.0301 C 34.6833,11.8122 34.1157,11.5993 34.1236,10.4612 34.1315,9.3231 35.1195,9.0006 35.3797,8.6424 35.6399,8.2842 35.8413,7.296 35.2623,6.7363 34.6833,6.1766 34.3035,6.1388 34.3035,6.1388 z"
       class="fil2"
       id="_142847688" /></g></svg>