<?xml version="1.0" encoding="UTF-8" standalone="no"?>
<!-- Created with Inkscape (http://www.inkscape.org/) -->

<svg
   xmlns:dc="http://purl.org/dc/elements/1.1/"
   xmlns:cc="http://creativecommons.org/ns#"
   xmlns:rdf="http://www.w3.org/1999/02/22-rdf-syntax-ns#"
   xmlns:svg="http://www.w3.org/2000/svg"
   xmlns="http://www.w3.org/2000/svg"
   xmlns:sodipodi="http://sodipodi.sourceforge.net/DTD/sodipodi-0.dtd"
   xmlns:inkscape="http://www.inkscape.org/namespaces/inkscape"
   width="100"
   height="100"
   id="svg11051"
   version="1.1"
   inkscape:version="0.48.4 r9939"
   sodipodi:docname="biking.svg">
  <defs
     id="defs11053" />
  <sodipodi:namedview
     id="base"
     pagecolor="#ffffff"
     bordercolor="#666666"
     borderopacity="1.0"
     inkscape:pageopacity="0.0"
     inkscape:pageshadow="2"
     inkscape:zoom="5.6"
     inkscape:cx="3.3605181"
     inkscape:cy="33.925647"
     inkscape:document-units="px"
     inkscape:current-layer="layer1"
     showgrid="false"
     inkscape:window-width="1920"
     inkscape:window-height="1056"
     inkscape:window-x="0"
     inkscape:window-y="24"
     inkscape:window-maximized="1" />
  <metadata
     id="metadata11056">
    <rdf:RDF>
      <cc:Work
         rdf:about="">
        <dc:format>image/svg+xml</dc:format>
        <dc:type
           rdf:resource="http://purl.org/dc/dcmitype/StillImage" />
        <dc:title></dc:title>
      </cc:Work>
    </rdf:RDF>
  </metadata>
  <g
     inkscape:label="Layer 1"
     inkscape:groupmode="layer"
     id="layer1"
     transform="translate(0,-952.36218)">
    <path
       style="font-size:medium;font-style:normal;font-variant:normal;font-weight:normal;font-stretch:normal;text-indent:0;text-align:start;text-decoration:none;line-height:normal;letter-spacing:normal;word-spacing:normal;text-transform:none;direction:ltr;block-progression:tb;writing-mode:lr-tb;text-anchor:start;baseline-shift:baseline;color:#000000;fill:#000000;fill-opacity:1;stroke:none;stroke-width:3.27346087;marker:none;visibility:visible;display:inline;overflow:visible;enable-background:accumulate;font-family:Sans;-inkscape-font-specification:Sans"
       d="m 25.386939,1012.2406 c -8.809972,0 -15.9846115,7.1747 -15.9846115,15.9846 0,8.81 7.1746395,15.9847 15.9846115,15.9847 8.809973,0 15.984612,-7.1747 15.984612,-15.9847 0,-8.8099 -7.174639,-15.9846 -15.984612,-15.9846 z m 0,2.6062 c 7.404828,0 13.378426,5.9736 13.378426,13.3784 0,7.4049 -5.973598,13.3785 -13.378426,13.3785 -7.404827,0 -13.378425,-5.9736 -13.378425,-13.3785 0,-7.4048 5.973598,-13.3784 13.378425,-13.3784 z"
       id="path11198"
       inkscape:connector-curvature="0" />
    <path
       style="font-size:medium;font-style:normal;font-variant:normal;font-weight:normal;font-stretch:normal;text-indent:0;text-align:start;text-decoration:none;line-height:normal;letter-spacing:normal;word-spacing:normal;text-transform:none;direction:ltr;block-progression:tb;writing-mode:lr-tb;text-anchor:start;baseline-shift:baseline;color:#000000;fill:#000000;fill-opacity:1;stroke:none;stroke-width:3.27346087;marker:none;visibility:visible;display:inline;overflow:visible;enable-background:accumulate;font-family:Sans;-inkscape-font-specification:Sans"
       d="m 74.861012,1004.0108 c -8.809972,0 -15.984611,7.1747 -15.984611,15.9847 0,8.8099 7.174639,15.9846 15.984611,15.9846 8.809973,0 15.984612,-7.1747 15.984612,-15.9846 0,-8.81 -7.174639,-15.9847 -15.984612,-15.9847 z m 0,2.6062 c 7.404828,0 13.378426,5.9736 13.378426,13.3785 0,7.4048 -5.973598,13.3784 -13.378426,13.3784 -7.404827,0 -13.378425,-5.9736 -13.378425,-13.3784 0,-7.4049 5.973598,-13.3785 13.378425,-13.3785 z"
       id="path11198-6"
       inkscape:connector-curvature="0" />
    <path
       style="font-size:medium;font-style:normal;font-variant:normal;font-weight:normal;font-stretch:normal;text-indent:0;text-align:start;text-decoration:none;line-height:normal;letter-spacing:normal;word-spacing:normal;text-transform:none;direction:ltr;block-progression:tb;writing-mode:lr-tb;text-anchor:start;baseline-shift:baseline;color:#000000;fill:#000000;fill-opacity:1;stroke:none;stroke-width:2.5999999;marker:none;visibility:visible;display:inline;overflow:visible;enable-background:accumulate;font-family:Sans;-inkscape-font-specification:Sans"
       d="m 67.53125,993.36218 a 1.30013,1.30013 0 0 0 -1.0625,1.8125 l 3.40625,8.21872 a 1.3028852,1.3028852 0 1 0 2.40625,-1 L 68.875,994.17468 a 1.30013,1.30013 0 0 0 -1.34375,-0.8125 z"
       id="path11218"
       inkscape:connector-curvature="0" />
    <path
       style="font-size:medium;font-style:normal;font-variant:normal;font-weight:normal;font-stretch:normal;text-indent:0;text-align:start;text-decoration:none;line-height:normal;letter-spacing:normal;word-spacing:normal;text-transform:none;direction:ltr;block-progression:tb;writing-mode:lr-tb;text-anchor:start;baseline-shift:baseline;color:#000000;fill:#000000;fill-opacity:1;stroke:none;stroke-width:2.5999999;marker:none;visibility:visible;display:inline;overflow:visible;enable-background:accumulate;font-family:Sans;-inkscape-font-specification:Sans"
       d="m 65.90625,998.01843 a 1.30013,1.30013 0 0 0 -0.1875,0.0625 l -37.5,11.06247 a 1.3006346,1.3006346 0 1 0 0.71875,2.5 l 37.5,-11.0625 a 1.3084946,1.3084946 0 1 0 -0.53125,-2.56247 z"
       id="path11220"
       inkscape:connector-curvature="0" />
    <path
       style="font-size:medium;font-style:normal;font-variant:normal;font-weight:normal;font-stretch:normal;text-indent:0;text-align:start;text-decoration:none;line-height:normal;letter-spacing:normal;word-spacing:normal;text-transform:none;direction:ltr;block-progression:tb;writing-mode:lr-tb;text-anchor:start;baseline-shift:baseline;color:#000000;fill:#000000;fill-opacity:1;stroke:none;stroke-width:2.5999999;marker:none;visibility:visible;display:inline;overflow:visible;enable-background:accumulate;font-family:Sans;-inkscape-font-specification:Sans"
       d="M 67.8125,1001.3934 A 1.30013,1.30013 0 0 0 67,1001.7372 l -25,21.25 a 1.30013,1.30013 0 1 0 1.6875,1.9687 l 25,-21.25 a 1.30013,1.30013 0 0 0 -0.875,-2.3125 z"
       id="path11222"
       inkscape:connector-curvature="0" />
    <path
       style="font-size:medium;font-style:normal;font-variant:normal;font-weight:normal;font-stretch:normal;text-indent:0;text-align:start;text-decoration:none;line-height:normal;letter-spacing:normal;word-spacing:normal;text-transform:none;direction:ltr;block-progression:tb;writing-mode:lr-tb;text-anchor:start;baseline-shift:baseline;color:#000000;fill:#000000;fill-opacity:1;stroke:none;stroke-width:2.5999999;marker:none;visibility:visible;display:inline;overflow:visible;enable-background:accumulate;font-family:Sans;-inkscape-font-specification:Sans"
       d="m 26.09375,994.625 a 1.30013,1.30013 0 0 0 -1.125,1.4375 l 1.0625,10.5313 a 1.3028852,1.3028852 0 1 0 2.59375,-0.25 l -1.09375,-10.5313 a 1.30013,1.30013 0 0 0 -1.4375,-1.1875 z"
       id="path11224"
       inkscape:connector-curvature="0" />
    <path
       style="fill:#000000;fill-opacity:1;stroke:none"
       d="m 21.24361,995.33646 c 0,0 1.855121,-1.25096 6.705543,-1.16986 4.850422,0.0811 6.906549,0.96354 7.923002,0.32968 1.016454,-0.63385 -3.857189,-2.8651 -8.546577,-3.14073 -4.689388,-0.27562 -8.922704,0.48195 -6.081968,3.98091 z"
       id="path11734"
       inkscape:connector-curvature="0" />
  </g>
</svg>
