<?xml version="1.0" encoding="UTF-8" standalone="no"?>
<!-- Created with Inkscape (http://www.inkscape.org/) -->

<svg
   xmlns:dc="http://purl.org/dc/elements/1.1/"
   xmlns:cc="http://creativecommons.org/ns#"
   xmlns:rdf="http://www.w3.org/1999/02/22-rdf-syntax-ns#"
   xmlns:svg="http://www.w3.org/2000/svg"
   xmlns="http://www.w3.org/2000/svg"
   xmlns:sodipodi="http://sodipodi.sourceforge.net/DTD/sodipodi-0.dtd"
   xmlns:inkscape="http://www.inkscape.org/namespaces/inkscape"
   width="600"
   height="600"
   id="svg6889"
   version="1.1"
   inkscape:version="0.48.4 r9939"
   sodipodi:docname="buttPlate.svg">
  <defs
     id="defs6891">
    <style
       id="style3101"
       type="text/css">
    .fil0 {fill:#E77817}
    .fil2 {fill:#765531}
    .fil1 {fill:#8D683B}
   </style>
    <style
       id="style3101-5"
       type="text/css">
    .fil0 {fill:#E77817}
    .fil2 {fill:#765531}
    .fil1 {fill:#8D683B}
   </style>
    <style
       id="style3182"
       type="text/css">
    .fil0 {fill:#E77817}
    .fil1 {fill:#E9D856}
    .fil2 {fill:#EBC32E}
   </style>
  </defs>
  <sodipodi:namedview
     id="base"
     pagecolor="#ffffff"
     bordercolor="#666666"
     borderopacity="1.0"
     inkscape:pageopacity="0.0"
     inkscape:pageshadow="2"
     inkscape:zoom="0.7"
     inkscape:cx="838.23602"
     inkscape:cy="209.31201"
     inkscape:document-units="px"
     inkscape:current-layer="layer1"
     showgrid="false"
     inkscape:window-width="1920"
     inkscape:window-height="1056"
     inkscape:window-x="0"
     inkscape:window-y="24"
     inkscape:window-maximized="1" />
  <metadata
     id="metadata6894">
    <rdf:RDF>
      <cc:Work
         rdf:about="">
        <dc:format>image/svg+xml</dc:format>
        <dc:type
           rdf:resource="http://purl.org/dc/dcmitype/StillImage" />
        <dc:title></dc:title>
      </cc:Work>
    </rdf:RDF>
  </metadata>
  <g
     inkscape:label="Layer 1"
     inkscape:groupmode="layer"
     id="layer1"
     transform="translate(0,-452.36218)">
    <g
       style="fill-rule:evenodd;fill:#000050;fill-opacity:1"
       id="g7942"
       transform="matrix(39.709508,0,0,39.709508,845.75226,434.77584)">
      <path
         style="fill:#000050;fill-opacity:1;stroke:none"
         d="m -18.246095,6.5188524 c -0.0432,0.020802 -0.08557,0.051059 -0.124238,0.092758 -0.1161,0.1251797 -0.147682,0.2814888 -0.06585,0.4770094 0.08183,0.1955203 0.279638,0.3015793 0.559626,0.25078 0.279988,-0.0508 0.410411,-0.079705 0.577834,-0.057865 0.167422,0.021839 0.800273,0.1443895 1.039127,0.2027106 0.238856,0.05832 0.407526,0.1315452 0.592826,0.2327047 0.144245,0.078749 0.232498,0.026491 0.272264,-0.00629 l 2.021986,4.8314669 -0.334517,0.416982 -1.478458,0.62817 c 0,0 -0.274184,-0.206138 -0.472723,-0.12305 -0.363787,0.152247 -0.48088,0.446878 -0.48088,0.446878 l 0.299171,0.722477 c 0,0 0.217631,0.05734 0.623881,-0.11267 0.173796,-0.07273 0.267867,-0.351461 0.267867,-0.351461 l 1.494972,-0.603695 0.523985,0.03574 0.281783,0.673311 0.242819,-0.101619 -0.405738,-0.969496 0.245487,-0.102734 -0.192818,-0.460731 -0.245487,0.102733 -0.45115,-1.078008 4.5023716,-1.8842575 -0.406109,-0.9703847 -4.5023716,1.8842572 -0.606,-1.4480161 4.5201606,-1.8917028 -0.4064816,-0.9712744 -4.520161,1.8917023 -0.395686,-0.9454804 0.216135,-0.090453 -0.182768,-0.4367177 -0.216135,0.090453 -0.360697,-0.8618723 -0.242818,0.1016198 0.270244,0.6457374 c -0.07491,0.027682 -0.336142,0.1231549 -0.401654,0.1241932 -0.07607,0.0012 -0.641649,-0.058902 -0.74855,-0.070328 -0.106899,-0.011419 -0.603218,-0.1097173 -0.709408,-0.1316532 -0.106189,-0.021936 -0.257718,-0.1522384 -0.347641,-0.1963003 -0.06182,-0.030292 -0.159195,-0.031333 -0.254228,0.014416 z"
         id="rect3943"
         inkscape:connector-curvature="0" />
    </g>
  </g>
</svg>
