<?xml version="1.0" encoding="UTF-8" standalone="no"?>
<!-- Created with Inkscape (http://www.inkscape.org/) -->

<svg
   xmlns:dc="http://purl.org/dc/elements/1.1/"
   xmlns:cc="http://creativecommons.org/ns#"
   xmlns:rdf="http://www.w3.org/1999/02/22-rdf-syntax-ns#"
   xmlns:svg="http://www.w3.org/2000/svg"
   xmlns="http://www.w3.org/2000/svg"
   xmlns:sodipodi="http://sodipodi.sourceforge.net/DTD/sodipodi-0.dtd"
   xmlns:inkscape="http://www.inkscape.org/namespaces/inkscape"
   width="600"
   height="600"
   id="svg6889"
   version="1.1"
   inkscape:version="0.48.4 r9939"
   sodipodi:docname="harness.svg">
  <defs
     id="defs6891">
    <style
       id="style3101"
       type="text/css">
    .fil0 {fill:#E77817}
    .fil2 {fill:#765531}
    .fil1 {fill:#8D683B}
   </style>
  </defs>
  <sodipodi:namedview
     id="base"
     pagecolor="#ffffff"
     bordercolor="#666666"
     borderopacity="1.0"
     inkscape:pageopacity="0.0"
     inkscape:pageshadow="2"
     inkscape:zoom="0.7"
     inkscape:cx="1064.6646"
     inkscape:cy="209.31201"
     inkscape:document-units="px"
     inkscape:current-layer="layer1"
     showgrid="false"
     inkscape:window-width="1920"
     inkscape:window-height="1056"
     inkscape:window-x="0"
     inkscape:window-y="24"
     inkscape:window-maximized="1" />
  <metadata
     id="metadata6894">
    <rdf:RDF>
      <cc:Work
         rdf:about="">
        <dc:format>image/svg+xml</dc:format>
        <dc:type
           rdf:resource="http://purl.org/dc/dcmitype/StillImage" />
        <dc:title></dc:title>
      </cc:Work>
    </rdf:RDF>
  </metadata>
  <g
     inkscape:label="Layer 1"
     inkscape:groupmode="layer"
     id="layer1"
     transform="translate(0,-452.36218)">
    <path
       style="fill:#000000"
       d="m 248.52176,721.89312 -2.09177,2.09177 c -2.20517,2.20517 -4.55959,10.16985 -4.55959,15.46501 0,2.29731 0.38891,2.83616 3.19641,4.39507 l 3.19642,1.78623 -0.047,6.9334 -0.0705,6.9334 5.07666,0 c 6.44173,0 7.45046,0.39491 7.45046,2.98489 0,3.6818 -0.98822,3.90581 -19.36651,4.44207 -19.64377,0.57319 -21.2446,1.00109 -25.14826,6.67487 -3.88235,5.6428 -4.37157,8.56923 -4.37157,25.87686 0,8.62098 -0.27202,15.67653 -0.61108,15.67653 -0.33906,0 -1.32683,-0.82185 -2.18578,-1.80973 -2.63212,-3.0272 -6.13862,-3.67299 -17.79181,-3.31393 -11.80954,0.36386 -14.2336,1.07171 -16.42863,4.84162 -0.75586,1.29817 -1.89447,5.00727 -2.51483,8.24957 -0.62036,3.24231 -1.41263,6.18376 -1.76272,6.53385 -0.35009,0.3501 -1.77882,0.5331 -3.17292,0.39955 -3.04961,-0.29213 -3.62827,-1.32888 -6.04028,-10.76439 -0.95168,-3.72289 -1.80256,-6.88943 -1.88024,-7.02741 -0.0777,-0.13798 -3.70374,2.65418 -8.08505,6.2048 -4.38132,3.55062 -8.63071,6.46334 -9.42473,6.46334 -1.48551,0 -3.51797,-4.39518 -5.52321,-11.89254 -0.49301,-1.8433 -1.2825,-3.5057 -1.76273,-3.68998 -0.83154,-0.31909 -7.0895,3.6807 -10.55287,6.74537 -2.93994,2.60152 -4.00554,1.52279 -6.9334,-7.09792 -1.5005,-4.41802 -2.97077,-8.26468 -3.26692,-8.55511 -0.29615,-0.29043 -3.51137,1.49061 -7.14493,3.97202 -8.783887,5.99862 -15.032922,9.46178 -16.005573,8.86065 -0.436231,-0.26961 -2.774608,-3.46456 -5.217676,-7.09792 l -4.442077,-6.60436 -7.027411,-0.39955 c -7.414208,-0.42545 -10.354225,0.33318 -11.798531,3.03189 -3.240592,6.05509 -4.908406,29.76016 -4.39507,62.75314 0.528695,33.98011 2.667969,54.4264 6.674866,63.83428 1.807764,4.24446 4.013576,5.59869 7.920528,4.84163 3.15832,-0.61209 3.761465,-0.61487 8.132054,0 2.795336,0.39325 3.138323,0.23144 4.771119,-2.20929 0.966483,-1.44472 2.52601,-4.54296 3.478452,-6.88639 2.923004,-7.19189 2.974418,-7.1909 11.304969,-3.0554 3.95663,1.96418 9.09629,5.10484 11.39898,6.98041 2.30269,1.87556 4.4393,3.12335 4.77112,2.77336 0.33182,-0.35 1.15883,-3.51136 1.83323,-7.02741 0.67441,-3.51606 1.40156,-7.16627 1.59821,-8.08505 0.66806,-3.1213 3.01076,-3.54273 6.9569,-1.26917 1.94278,1.11933 4.95063,3.17063 6.67487,4.5596 3.89922,3.14104 4.74761,3.17528 4.74761,0.14101 0,-5.13192 3.57999,-14.90093 5.45271,-14.90093 0.99544,0 7.37518,4.59049 12.83266,9.2367 2.5187,2.14429 4.67266,3.45962 5.05316,3.0789 0.36371,-0.36392 1.04392,-3.19642 1.50419,-6.29882 0.46029,-3.1024 0.99977,-6.7457 1.19866,-8.08505 0.41061,-2.76503 2.37668,-4.15682 5.3822,-3.80749 1.84336,0.21425 2.16053,0.75203 3.59596,6.25181 0.8637,3.30923 2.09445,7.23722 2.74986,8.74313 1.71475,3.93992 4.62292,4.71314 17.58028,4.6301 9.01695,-0.0578 11.04253,-0.30122 13.53776,-1.5747 3.38058,-1.72534 5.29225,-3.63542 5.73474,-5.78175 0.17056,-0.82731 0.5545,0.42198 0.86961,2.79686 0.43537,3.28122 1.34788,5.45075 3.78399,9.00167 5.32435,7.76083 4.97626,7.62873 22.49242,8.29658 9.19773,0.35068 17.28664,1.05062 20.51816,1.78623 4.54204,1.03393 6.3384,1.08066 11.98656,0.32904 8.12657,-1.08145 10.93685,-2.17749 12.38611,-4.88863 l 1.10464,-2.09177 59.06312,0.54057 c 32.47903,0.30294 59.29357,0.70883 59.60373,0.89311 0.31024,0.18427 0.56408,1.13985 0.56408,2.11528 0,3.26123 2.80457,8.51806 5.19421,9.75376 3.29592,1.7044 9.49395,1.55526 10.7644,-0.25853 0.78797,-1.12501 2.1337,-1.4763 6.29881,-1.66872 l 5.28815,-0.25853 6.11079,5.4057 c 4.29275,3.78276 7.08416,5.64446 9.35429,6.22831 1.78022,0.45787 4.08946,1.12198 5.12359,1.48069 1.03421,0.35871 5.136,0.67237 9.11918,0.70509 6.29634,0.0516 7.76962,-0.20262 11.28147,-1.88024 7.94448,-3.79505 10.74401,-5.90025 12.69164,-9.56574 l 1.88025,-3.52546 40.07273,0 c 44.80464,-0.002 41.57227,0.43769 40.28423,-5.49972 -1.11784,-4.32735 -9.09549,-17.98085 -11.68098,-23.9261 l -2.91438,-4.98265 -31.3766,-0.42305 c -17.25478,-0.23266 -32.83312,-0.63642 -34.61996,-0.89312 -2.20206,-0.31635 -4.74641,-1.58737 -7.89702,-3.92501 -5.95376,-4.41752 -9.47207,-5.9667 -15.81759,-6.9804 -8.79503,-1.40501 -17.36375,0.95837 -25.31282,6.9804 -3.76463,2.85207 -4.74491,3.21228 -10.90542,3.99552 -3.72288,0.47334 -10.96558,0.91869 -16.09955,0.98713 -7.11477,0.0893 -7.3877,-2.12604 -9.23666,-3.17291 -4.50581,-2.77802 -11.19234,-6.61107 -15.55909,-8.90766 -2.64378,-1.39044 -5.35125,-2.85315 -6.01678,-3.26692 -0.66546,-0.41377 -5.45271,-3.10889 -10.62338,-5.96977 -5.17067,-2.86089 -10.24733,-5.77174 -11.28146,-6.46334 -1.03414,-0.69161 -4.75702,-2.7814 -8.27308,-4.65361 -3.51598,-1.8722 -7.57738,-4.07278 -9.02517,-4.88863 -2.62625,-1.47996 -7.96418,-4.42787 -15.79405,-8.71963 -4.45555,-2.44227 -16.09239,-9.06268 -24.1846,-13.77279 -4.36972,2.53832 -6.88967,-0.6025 -9.18969,-0.28203 -2.83262,0 -3.03236,-1.72637 -3.61947,-29.61385 -0.92666,-44.01565 -1.00114,-45.09084 -2.60884,-45.97196 -0.763,-0.41817 -1.64346,-1.17515 -1.97425,-1.69222 -0.3308,-0.51707 -1.24166,-0.94012 -1.99776,-0.94012 -1.66324,0 -3.37561,-1.89635 -2.70285,-2.98489 0.27021,-0.43722 3.11169,-0.7756 6.39283,-0.7756 l 5.87576,0 -0.39955,-7.87352 c -0.44525,-8.72399 -0.55397,-8.52661 5.35869,-9.80077 2.41387,-0.52018 2.42113,-1.03302 0.11752,-9.35421 -1.77479,-6.41098 -3.61224,-9.3982 -6.11079,-9.94179 -1.20102,-0.26131 -11.25435,-0.51512 -22.3514,-0.56408 l -20.18912,-0.0705 z"
       id="path7664"
       inkscape:connector-curvature="0" />
  </g>
</svg>
