<?xml version="1.0" encoding="UTF-8" standalone="no"?>
<!-- Created with Inkscape (http://www.inkscape.org/) -->

<svg
   xmlns:dc="http://purl.org/dc/elements/1.1/"
   xmlns:cc="http://creativecommons.org/ns#"
   xmlns:rdf="http://www.w3.org/1999/02/22-rdf-syntax-ns#"
   xmlns:svg="http://www.w3.org/2000/svg"
   xmlns="http://www.w3.org/2000/svg"
   xmlns:sodipodi="http://sodipodi.sourceforge.net/DTD/sodipodi-0.dtd"
   xmlns:inkscape="http://www.inkscape.org/namespaces/inkscape"
   width="100"
   height="100"
   id="svg11051"
   version="1.1"
   inkscape:version="0.48.4 r9939"
   sodipodi:docname="gym.svg">
  <defs
     id="defs11053" />
  <sodipodi:namedview
     id="base"
     pagecolor="#ffffff"
     bordercolor="#666666"
     borderopacity="1.0"
     inkscape:pageopacity="0.0"
     inkscape:pageshadow="2"
     inkscape:zoom="5.6"
     inkscape:cx="13.717661"
     inkscape:cy="41.068504"
     inkscape:document-units="px"
     inkscape:current-layer="layer1"
     showgrid="false"
     inkscape:window-width="1920"
     inkscape:window-height="1056"
     inkscape:window-x="0"
     inkscape:window-y="24"
     inkscape:window-maximized="1" />
  <metadata
     id="metadata11056">
    <rdf:RDF>
      <cc:Work
         rdf:about="">
        <dc:format>image/svg+xml</dc:format>
        <dc:type
           rdf:resource="http://purl.org/dc/dcmitype/StillImage" />
      </cc:Work>
    </rdf:RDF>
  </metadata>
  <g
     inkscape:label="Layer 1"
     inkscape:groupmode="layer"
     id="layer1"
     transform="translate(0,-952.36218)">
    <path
       style="fill:#000000;fill-opacity:1;stroke:none"
       d="m 29.546875,998.42468 c -1.385,0 -2.5,1.11499 -2.5,2.50002 l 0,40.1875 c 0,1.385 1.115,2.5 2.5,2.5 l 2.84375,0 c 1.385,0 2.5,-1.115 2.5,-2.5 l 0,-40.1875 c 0,-1.38503 -1.115,-2.50002 -2.5,-2.50002 l -2.84375,0 z m 38.03125,0 c -1.385,0 -2.5,1.11499 -2.5,2.50002 l 0,40.1875 c 0,1.385 1.115,2.5 2.5,2.5 l 2.84375,0 c 1.385,0 2.5,-1.115 2.5,-2.5 l 0,-40.1875 c 0,-1.38503 -1.115,-2.50002 -2.5,-2.50002 l -2.84375,0 z m -44.96875,6.15622 c -1.007273,0 -1.8125,0.8365 -1.8125,1.8438 l 0,29.2187 c 0,1.0072 0.805227,1.8125 1.8125,1.8125 l 2.09375,0 c 1.007273,0 1.8125,-0.8053 1.8125,-1.8125 l 0,-29.2187 c 0,-1.0073 -0.805227,-1.8438 -1.8125,-1.8438 l -2.09375,0 z m 52.6875,0 c -1.007273,0 -1.8125,0.8365 -1.8125,1.8438 l 0,29.2187 c 0,1.0072 0.805227,1.8125 1.8125,1.8125 l 2.0625,0 c 1.007272,0 1.8125,-0.8053 1.8125,-1.8125 l 0,-29.2187 c 0,-1.0073 -0.805228,-1.8438 -1.8125,-1.8438 l -2.0625,0 z m -57.96875,4.125 c -0.755455,0 -1.34375,0.5883 -1.34375,1.3438 l 0,21.9375 c 0,0.7555 0.588295,1.3437 1.34375,1.3437 l 1.5625,0 c 0.755454,0 1.375,-0.5882 1.375,-1.3437 l 0,-21.9375 c 0,-0.7555 -0.619546,-1.3438 -1.375,-1.3438 l -1.5625,0 z m 63.75,0 c -0.755455,0 -1.34375,0.5883 -1.34375,1.3438 l 0,21.9375 c 0,0.7555 0.588295,1.3437 1.34375,1.3437 l 1.5625,0 c 0.755454,0 1.375,-0.5882 1.375,-1.3437 l 0,-21.9375 c 0,-0.7555 -0.619546,-1.3438 -1.375,-1.3438 l -1.5625,0 z m -45.65625,9.5625 0,5.5313 28.75,0 0,-5.5313 -28.75,0 z"
       id="rect11065"
       inkscape:connector-curvature="0" />
  </g>
</svg>
