<?xml version="1.0" encoding="UTF-8" standalone="no"?>
<!-- Created with Inkscape (http://www.inkscape.org/) -->

<svg
   xmlns:dc="http://purl.org/dc/elements/1.1/"
   xmlns:cc="http://creativecommons.org/ns#"
   xmlns:rdf="http://www.w3.org/1999/02/22-rdf-syntax-ns#"
   xmlns:svg="http://www.w3.org/2000/svg"
   xmlns="http://www.w3.org/2000/svg"
   xmlns:sodipodi="http://sodipodi.sourceforge.net/DTD/sodipodi-0.dtd"
   xmlns:inkscape="http://www.inkscape.org/namespaces/inkscape"
   width="600"
   height="600"
   id="svg6889"
   version="1.1"
   inkscape:version="0.48.4 r9939"
   sodipodi:docname="harness.svg">
  <defs
     id="defs6891">
    <style
       id="style3101"
       type="text/css">
    .fil0 {fill:#E77817}
    .fil2 {fill:#765531}
    .fil1 {fill:#8D683B}
   </style>
  </defs>
  <sodipodi:namedview
     id="base"
     pagecolor="#ffffff"
     bordercolor="#666666"
     borderopacity="1.0"
     inkscape:pageopacity="0.0"
     inkscape:pageshadow="2"
     inkscape:zoom="0.7"
     inkscape:cx="459.3919"
     inkscape:cy="324.4768"
     inkscape:document-units="px"
     inkscape:current-layer="layer1"
     showgrid="false"
     inkscape:window-width="1920"
     inkscape:window-height="1056"
     inkscape:window-x="0"
     inkscape:window-y="24"
     inkscape:window-maximized="1" />
  <metadata
     id="metadata6894">
    <rdf:RDF>
      <cc:Work
         rdf:about="">
        <dc:format>image/svg+xml</dc:format>
        <dc:type
           rdf:resource="http://purl.org/dc/dcmitype/StillImage" />
        <dc:title></dc:title>
      </cc:Work>
    </rdf:RDF>
  </metadata>
  <g
     inkscape:label="Layer 1"
     inkscape:groupmode="layer"
     id="layer1"
     transform="translate(0,-452.36218)">
    <path
       style="fill:#000050;stroke:none;fill-opacity:1"
       d="m 439.93851,706.46029 c -4.13057,-2.71048 -8.84707,-4.40007 -13.97381,-4.96873 -4.90552,-0.54414 -13.07459,1.35416 -17.23345,3.99838 -5.83586,3.71053 -8.60243,12.09581 -7.66005,23.29849 0.70341,8.36073 3.35804,14.89685 12.11946,29.92051 7.68776,13.18278 11.11567,20.93198 12.95159,29.29804 4.0019,18.23707 -3.61238,27.68545 -22.68402,28.12822 -11.1892,0.2598 -24.82348,-11.95311 -29.93569,-26.81735 -1.97662,-5.74724 -3.20335,-17.86396 -2.73769,-26.89958 0.47523,-9.22143 3.88294,-34.6853 5.46819,-40.83536 4.30917,-16.71766 2.65061,-35.74887 -4.14551,-47.64517 -2.98933,-5.23271 -3.50761,-5.78544 -9.22682,-9.38695 -5.74511,-3.61727 -6.08077,-3.95607 -6.46142,-6.59009 l -0.39823,-2.77704 -12.80494,0.32009 c -7.03955,0.17239 -17.08779,0.64551 -22.34214,1.0501 -5.95778,0.45873 -10.74286,0.31171 -12.71334,-0.38613 -1.73781,-0.61547 -15.43599,-2.16115 -30.41746,-3.44084 -14.98148,-1.27969 -30.20636,-2.65536 -33.82978,-3.06022 -38.25118,-4.27394 -51.14995,-5.54402 -59.75953,-5.8822 -9.02143,-0.35436 -48.80328,0.50997 -52.96196,1.15436 -0.90444,0.14021 -2.20037,-0.0911 -2.87728,-0.51682 -1.67797,-1.05524 -6.57882,-0.57253 -18.07883,1.79222 -5.34482,1.09905 -15.18544,2.74653 -21.85905,3.64545 -18.70985,2.52015 -28.810006,5.78604 -36.285859,11.72994 -3.472356,2.76081 -4.560985,1.64241 -2.355275,-2.42134 l 1.801928,-3.33241 -2.878561,-2.89732 c -1.583183,-1.59355 -4.08545,-3.69481 -5.575675,-4.68165 l -2.591859,-1.71813 -0.03126,-0.13717 -0.09506,0.0578 -10.352275,5.6231 -4.433003,9.99203 0.110695,0.0109 c -0.01535,0.0519 -0.03476,0.085 -0.0241,0.13174 0.120681,0.52967 10.505825,9.76891 12.283201,10.92711 0.419554,0.27339 -0.235367,2.47907 -1.527408,5.09151 -2.755033,5.57056 -5.382913,15.57009 -5.3745,20.50522 0.0067,3.91723 1.337296,8.7423 3.316811,12.10417 1.971327,3.34796 21.843429,28.69322 27.63446,35.24152 4.75923,5.3816 16.70913,21.88894 53.08087,73.30823 13.0838,18.49679 34.84155,48.20633 42.48914,58.00973 10.42119,13.35888 23.00769,25.69635 31.81103,31.1697 4.80403,2.98684 7.34569,5.06103 9.55028,7.79821 3.02467,3.75538 23.51421,27.09849 24.57821,28.0019 0.3146,0.26707 1.52113,-0.0893 2.67005,-0.78869 2.02065,-1.23008 2.26642,-1.15971 7.62046,2.17772 9.83396,6.12995 18.41508,6.69796 37.29028,2.41608 14.59873,-3.31218 27.25097,-8.34522 47.41212,-18.86409 28.53324,-14.88687 52.166,-24.813 64.64177,-27.15427 11.27877,-2.11663 21.52508,-0.27122 30.8122,5.5694 12.34771,7.76529 18.9707,20.13664 17.60778,32.87258 -1.31855,12.31984 -7.18788,20.88455 -19.68288,28.63478 -10.11909,6.27675 -28.5992,9.53036 -44.55806,7.87906 -9.07131,-0.93857 -12.47218,-1.85398 -33.15641,-9.12947 -12.99563,-4.5711 -24.77226,-5.67901 -35.01547,-3.27706 -8.57323,2.01036 -13.88723,4.69108 -19.18697,9.67397 -6.45189,6.06627 -10.32814,13.94731 -11.70279,23.84082 -1.32579,9.54201 2.45376,20.01221 10.05586,27.82951 4.16735,4.2854 7.25685,6.1249 15.3409,9.1484 10.79917,4.039 19.38204,4.7483 34.59742,2.8672 3.94007,-0.4871 11.5035,-0.9375 16.79552,-1.0128 14.01084,-0.1994 25.32377,-2.4556 44.03603,-8.8243 9.12769,-3.1066 19.08933,-6.4635 22.15172,-7.4276 7.70535,-2.4257 23.14679,-8.1148 25.20702,-9.296 0.93628,-0.5372 1.82481,-1.5647 1.96767,-2.288 0.31591,-1.5995 -1.79867,-3.0934 -3.05192,-2.1544 -1.48137,1.1098 -37.9298,13.8447 -52.52495,18.3515 -18.6885,5.7708 -23.65032,6.8068 -32.79793,6.9313 -4.36547,0.059 -13.50731,0.5493 -20.29914,1.0716 -6.79183,0.5222 -15.09952,0.6145 -18.47251,0.2226 -18.16939,-2.1115 -33.6331,-11.8146 -38.21603,-23.9751 -1.7492,-4.6413 -2.17891,-11.90121 -0.94623,-16.10721 3.75457,-12.81082 12.80863,-20.54329 29.03067,-24.81254 9.38844,-2.47084 15.42678,-1.6416 36.10457,5.04903 17.40555,5.63167 24.30386,7.32008 33.58071,8.22117 16.4317,1.59608 33.68332,-2.88592 46.63934,-12.12282 5.30701,-3.78362 12.45638,-13.57171 14.91989,-20.40743 4.03212,-11.18799 2.98336,-22.24254 -2.97245,-31.57151 -7.5791,-11.87185 -15.44533,-17.4783 -28.46448,-20.28076 -8.72958,-1.87916 -16.10556,-1.17939 -26.9043,2.55844 -12.90414,4.46645 -39.22858,16.08888 -51.44307,22.7043 -14.97757,8.11183 -19.31229,10.11562 -33.8822,15.70941 -12.96784,4.9787 -27.08209,8.20397 -35.19735,8.03694 -6.56749,-0.13514 -13.5295,-2.4028 -17.02498,-5.53616 -2.44008,-2.18724 -2.58012,-2.57431 -1.49575,-4.3486 1.40176,-2.29382 1.57571,-2.0361 -12.34298,-17.83942 -10.32046,-11.71788 -13.69329,-16.93962 -16.10068,-24.99138 -0.88943,-2.97473 -2.46717,-7.07253 -3.51242,-9.08363 -3.37652,-6.49656 -13.79488,-21.1296 -25.61293,-36.02674 -15.13481,-19.07808 -21.83658,-28.34871 -51.57616,-71.21614 -26.20662,-37.77493 -40.19018,-59.34923 -41.78322,-64.4111 -0.52567,-1.67027 -0.74558,-5.3568 -0.4806,-8.20522 0.438,-4.70837 0.8608,-5.80675 4.71259,-11.93147 4.09461,-6.51086 4.47046,-6.86074 10.6777,-10.76544 6.85959,-4.31508 14.69025,-7.15335 26.49688,-9.57188 4.03123,-0.82572 7.9674,-1.98146 8.75674,-2.57221 1.75594,-1.31414 17.58361,-3.5545 27.06345,-3.83918 11.4805,-0.34472 40.8114,1.15822 55.33132,2.83293 7.4851,0.86331 17.89425,1.78071 23.14274,2.06815 5.24849,0.28744 14.84354,1.57032 21.31373,2.82754 14.86998,2.88937 20.10127,3.37429 32.7385,3.02027 7.49939,-0.21006 11.86576,-0.89955 16.62316,-2.56079 3.55147,-1.24014 8.13134,-2.51202 10.15731,-2.83718 5.18355,-0.83195 21.19045,-1.1506 29.48232,-0.58461 3.84236,0.26226 7.1203,0.26349 7.28646,-7.5e-4 0.16618,-0.26423 0.1841,-1.01278 0.0311,-1.68445 -1.05309,-4.62229 7.3246,0.33763 11.36431,6.73562 7.59188,12.0239 8.4752,22.91082 3.92258,49.12081 -3.03729,17.48615 -5.37849,39.49559 -5.14688,48.49971 0.52384,20.36487 10.58569,38.51385 24.47767,44.18527 10.23843,4.17985 23.15116,3.10406 30.07287,-2.50478 8.1182,-6.57842 10.22601,-15.324 7.13208,-29.65319 -2.11652,-9.80255 -5.06686,-16.44444 -13.55164,-30.58621 -7.34267,-12.23809 -10.20257,-19.28231 -10.82143,-26.51879 -0.80734,-9.44137 1.31123,-16.24415 6.11546,-19.62792 6.72301,-4.73521 16.9961,-4.20364 26.02879,1.35651 6.45049,3.97067 9.84645,8.1042 13.65652,16.63833 4.18177,9.36678 5.08257,17.84008 5.07308,47.75848 -0.01,31.10333 0.55284,39.60771 2.93857,45.59347 8.07169,20.25161 32.44937,43.39856 56.74419,53.8422 3.86685,1.66223 11.97605,5.69081 18.00655,8.97379 6.03052,3.28305 14.46624,7.35975 18.74712,9.05767 11.05525,4.38454 12.49341,5.0468 16.96378,7.64225 4.17669,2.42499 7.1402,2.83246 7.15452,1.00338 0.0148,-1.88975 -9.7719,-7.34271 -24.08646,-13.41442 -7.55146,-3.20312 -15.47949,-6.91735 -17.62888,-8.26629 -2.14945,-1.34916 -8.37388,-4.56944 -13.82539,-7.16687 -13.165,-6.2728 -32.18336,-18.91097 -39.27253,-26.07902 -12.00752,-12.14115 -19.94644,-25.51425 -21.33985,-35.95416 -0.43023,-3.2236 -0.77049,-9.64965 -0.74572,-14.27716 0.0247,-4.62751 0.0902,-14.11571 0.1432,-21.06283 0.22806,-29.92278 -1.1946,-40.78944 -6.88269,-53.00961 -3.05601,-6.56541 -7.39012,-11.72987 -12.70099,-15.21473 z"
       id="path7621"
       inkscape:connector-curvature="0" />
  </g>
</svg>
