<?xml version="1.0" encoding="UTF-8" standalone="no"?>
<!-- Creator: CorelDRAW -->

<svg
   xmlns:dc="http://purl.org/dc/elements/1.1/"
   xmlns:cc="http://creativecommons.org/ns#"
   xmlns:rdf="http://www.w3.org/1999/02/22-rdf-syntax-ns#"
   xmlns:svg="http://www.w3.org/2000/svg"
   xmlns="http://www.w3.org/2000/svg"
   xmlns:sodipodi="http://sodipodi.sourceforge.net/DTD/sodipodi-0.dtd"
   xmlns:inkscape="http://www.inkscape.org/namespaces/inkscape"
   xml:space="preserve"
   width="800"
   height="600"
   style="fill-rule:evenodd"
   viewBox="0 0 225.77777 169.33334"
   id="svg3037"
   version="1.1"
   inkscape:version="0.48.4 r9939"
   sodipodi:docname="messages.svg"><metadata
     id="metadata3049"><rdf:RDF><cc:Work
         rdf:about=""><dc:format>image/svg+xml</dc:format><dc:type
           rdf:resource="http://purl.org/dc/dcmitype/StillImage" /><dc:title></dc:title></cc:Work></rdf:RDF></metadata><sodipodi:namedview
     pagecolor="#ffffff"
     bordercolor="#666666"
     borderopacity="1"
     objecttolerance="10"
     gridtolerance="10"
     guidetolerance="10"
     inkscape:pageopacity="0"
     inkscape:pageshadow="2"
     inkscape:window-width="1920"
     inkscape:window-height="1021"
     id="namedview3047"
     showgrid="false"
     inkscape:zoom="0.74784139"
     inkscape:cx="348.64656"
     inkscape:cy="518.33738"
     inkscape:window-x="0"
     inkscape:window-y="27"
     inkscape:window-maximized="1"
     inkscape:current-layer="svg3037" /><defs
     id="defs3039"><style
       type="text/css"
       id="style3041">
    .fil0 {fill:#1F1A17}
   </style><style
       id="style3167"
       type="text/css">
    .fil0 {fill:#1F1A17}
   </style></defs><g
     style="fill:#d35f5f;fill-rule:evenodd"
     id="g3178"
     transform="matrix(1.6647765,0,0,1.6647765,-53.410967,-129.71792)"><g
       id="Vrstva_x0020_1-3"
       style="fill:#d35f5f"><metadata
         id="CorelCorpID_0Corel-Layer-6" /><path
         id="path3171"
         d="m 40.0468,84.7518 119.679,0 -21.1967,18.9194 c -3.4116,-1.5199 -7.1895,-2.366 -11.1648,-2.366 -15.1696,0 -27.4716,12.302 -27.4716,27.4716 0,2.8755 0.4429,5.6476 1.2627,8.2527 l -1.6008,1.4288 -59.5082,-53.7065 z m 110.563,44.025 c 0,12.8359 -10.4093,23.2452 -23.2452,23.2452 -12.8359,0 -23.2452,-10.4093 -23.2452,-23.2452 0,-12.8359 10.4093,-23.2452 23.2452,-23.2452 12.8359,0 23.2452,10.4093 23.2452,23.2452 z m 12.8553,-40.6877 0,84.7127 -127.144,0 0,-84.6874 61.55,55.5493 1.6559,1.4944 1.6742,-1.4944 2.0086,-1.7928 c 4.6525,8.5633 13.7262,14.3775 24.155,14.3775 15.1696,0 27.4716,-12.302 27.4716,-27.4716 0,-9.3146 -4.6391,-17.5469 -11.7316,-22.5147 l 20.3605,-18.173 z"
         class="fil0"
         inkscape:connector-curvature="0"
         style="fill:#d35f5f" /></g></g></svg>