<?xml version="1.0" encoding="UTF-8"?>
<!DOCTYPE svg PUBLIC "-//W3C//DTD SVG 1.1//EN" "http://www.w3.org/Graphics/SVG/1.1/DTD/svg11.dtd">
<!-- Creator: CorelDRAW -->
<svg xmlns="http://www.w3.org/2000/svg" xml:space="preserve" width="100mm" height="100mm" style="shape-rendering:geometricPrecision; text-rendering:geometricPrecision; image-rendering:optimizeQuality; fill-rule:evenodd; clip-rule:evenodd"
viewBox="0 0 100 100"
 xmlns:xlink="http://www.w3.org/1999/xlink">
 <defs>
  <style type="text/css">
   <![CDATA[
    .fil0 {fill:#1F1A17;fill-rule:nonzero}
   ]]>
  </style>
 </defs>
 <g id="Vrstva_x0020_1">
  <metadata id="CorelCorpID_0Corel-Layer"/>
  <path class="fil0" d="M81.0601 62.8033c0,8.5754 -3.4773,16.3405 -9.0985,21.9616 -5.6211,5.6212 -13.3862,9.0985 -21.9616,9.0985 -8.5754,0 -16.3405,-3.4773 -21.9616,-9.0985 -5.6212,-5.6211 -9.0985,-13.3862 -9.0985,-21.9616 0,-8.5754 3.4773,-16.3405 9.0985,-21.9616 5.6211,-5.6212 13.3862,-9.0985 21.9616,-9.0985 8.5754,0 16.3405,3.4773 21.9616,9.0985 5.6212,5.6211 9.0985,13.3862 9.0985,21.9616zm-15.0426 2.9794c-0.6109,3.3033 -2.2186,6.2575 -4.4996,8.5385 -2.9481,2.9481 -7.0206,4.7719 -11.5179,4.7719 -4.4973,0 -8.5698,-1.8238 -11.5179,-4.7719 -2.281,-2.281 -3.8887,-5.2352 -4.4996,-8.5385l-10.9709 0c0.6886,6.3064 3.5374,11.9646 7.7909,16.2181 4.9135,4.9135 11.7013,7.9532 19.1975,7.9532 7.4962,0 14.284,-3.0397 19.1975,-7.9532 4.2535,-4.2535 7.1023,-9.9117 7.7909,-16.2181l-10.9709 0zm-43.0059 -5.9588l10.9709 0c0.6109,-3.3033 2.2186,-6.2575 4.4996,-8.5385 2.9481,-2.9481 7.0206,-4.7719 11.5179,-4.7719 4.4973,0 8.5698,1.8238 11.5179,4.7719 2.281,2.281 3.8887,5.2352 4.4996,8.5385l10.9709 0c-0.6886,-6.3064 -3.5374,-11.9646 -7.7909,-16.2181 -4.9135,-4.9135 -11.7013,-7.9532 -19.1975,-7.9532 -7.4962,0 -14.284,3.0397 -19.1975,7.9532 -4.2535,4.2535 -7.1023,9.9117 -7.7909,16.2181zm34.0838 10.0748c1.816,-1.8159 2.9394,-4.3247 2.9394,-7.0954 0,-2.7707 -1.1234,-5.2795 -2.9394,-7.0954 -1.8159,-1.816 -4.3247,-2.9394 -7.0954,-2.9394 -2.7707,0 -5.2795,1.1234 -7.0954,2.9394 -1.816,1.8159 -2.9394,4.3247 -2.9394,7.0954 0,2.7707 1.1234,5.2795 2.9394,7.0954 1.8159,1.816 4.3247,2.9394 7.0954,2.9394 2.7707,0 5.2795,-1.1234 7.0954,-2.9394z"/>
 </g>
</svg>
