<?xml version="1.0" encoding="UTF-8" standalone="no"?>
<!-- Creator: CorelDRAW -->

<svg
   xmlns:dc="http://purl.org/dc/elements/1.1/"
   xmlns:cc="http://creativecommons.org/ns#"
   xmlns:rdf="http://www.w3.org/1999/02/22-rdf-syntax-ns#"
   xmlns:svg="http://www.w3.org/2000/svg"
   xmlns="http://www.w3.org/2000/svg"
   xmlns:sodipodi="http://sodipodi.sourceforge.net/DTD/sodipodi-0.dtd"
   xmlns:inkscape="http://www.inkscape.org/namespaces/inkscape"
   xml:space="preserve"
   width="50.8mm"
   height="25.4mm"
   style="shape-rendering:geometricPrecision; text-rendering:geometricPrecision; image-rendering:optimizeQuality; fill-rule:evenodd; clip-rule:evenodd"
   viewBox="0 0 50.8 25.4"
   id="svg3178"
   version="1.1"
   inkscape:version="0.48.4 r9939"
   sodipodi:docname="2hooks.svg"><metadata
     id="metadata3198"><rdf:RDF><cc:Work
         rdf:about=""><dc:format>image/svg+xml</dc:format><dc:type
           rdf:resource="http://purl.org/dc/dcmitype/StillImage" /><dc:title></dc:title></cc:Work></rdf:RDF></metadata><sodipodi:namedview
     pagecolor="#ffffff"
     bordercolor="#666666"
     borderopacity="1"
     objecttolerance="10"
     gridtolerance="10"
     guidetolerance="10"
     inkscape:pageopacity="0"
     inkscape:pageshadow="2"
     inkscape:window-width="1551"
     inkscape:window-height="1028"
     id="namedview3196"
     showgrid="false"
     inkscape:zoom="18.353349"
     inkscape:cx="25.992414"
     inkscape:cy="40.047107"
     inkscape:window-x="10"
     inkscape:window-y="24"
     inkscape:window-maximized="0"
     inkscape:current-layer="svg3178"
     showguides="true"
     inkscape:guide-bbox="true" /><defs
     id="defs3180"><style
       type="text/css"
       id="style3182">
    .fil0 {fill:#E77817}
    .fil1 {fill:#E9D856}
    .fil2 {fill:#EBC32E}
   </style><filter
       inkscape:collect="always"
       id="filter3955"
       x="-0.049951422"
       width="1.0999028"
       y="-0.17514004"
       height="1.3502801"><feGaussianBlur
         inkscape:collect="always"
         stdDeviation="0.044504025"
         id="feGaussianBlur3957" /></filter><filter
       inkscape:collect="always"
       id="filter4001"
       x="-0.05719737"
       width="1.1143947"
       y="-0.96599949"
       height="2.931999"><feGaussianBlur
         inkscape:collect="always"
         stdDeviation="0.098687716"
         id="feGaussianBlur4003" /></filter><filter
       inkscape:collect="always"
       id="filter4011"
       x="-0.15668014"
       width="1.3133603"
       y="-0.3133604"
       height="1.6267208"><feGaussianBlur
         inkscape:collect="always"
         stdDeviation="0.069362064"
         id="feGaussianBlur4013" /></filter><filter
       inkscape:collect="always"
       id="filter4041"
       x="-0.19754559"
       width="1.3950912"
       y="-0.30569736"
       height="1.6113947"><feGaussianBlur
         inkscape:collect="always"
         stdDeviation="0.13794788"
         id="feGaussianBlur4043" /></filter></defs><rect
     style="fill:#949392;fill-opacity:1;stroke:none"
     id="rect3943"
     width="0.2718322"
     height="0.38600171"
     x="2.6889803"
     y="10.062747" /><rect
     style="fill:#949392;fill-opacity:1;stroke:none"
     id="rect3941"
     width="0.27726883"
     height="0.40774831"
     x="2.7094741"
     y="15.238433" /><rect
     style="fill:#cf8228;fill-opacity:1;stroke:none"
     id="rect3921"
     width="1.5554525"
     height="0.85898972"
     x="2.6592267"
     y="11.285992" /><rect
     style="fill:#cf8228;fill-opacity:1;fill-rule:evenodd;stroke:none"
     id="rect3921-8"
     width="1.5554525"
     height="0.85898978"
     x="2.6532762"
     y="13.426108" /><path
     style="fill:#908e90;fill-opacity:1;stroke:none"
     d="M 2.5783774,10.68791 C 2.5629994,10.69171 2.4553601,10.74942 2.3477202,10.61487 2.2400801,10.480318 2.1362843,10.372678 1.9748242,10.253505 1.8133641,10.134332 1.3751153,9.8421671 1.2559424,9.7729699 1.1367695,9.7037727 1.0291294,9.6845514 0.8023164,9.6345754 0.57550348,9.5845998 0.46017484,9.4423612 0.46017484,9.2693683 c 0,-0.1729932 0.0730415,-0.280633 0.19990296,-0.3382975 0.1352265,-0.061467 0.26525589,-0.023066 0.31907589,0.038443 0.05382,0.061509 0.12686151,0.2075916 0.19990301,0.2575673 0.073041,0.049976 0.4151831,0.280633 0.4920688,0.3229203 0.076886,0.042287 0.4843803,0.2652559 0.5420446,0.2883214 0.057664,0.023066 0.3690517,0.034599 0.3690517,0.034599 z"
     id="path3917"
     inkscape:connector-curvature="0"
     sodipodi:nodetypes="csssssssssscc" /><path
     style="fill:#908e90;fill-opacity:1;stroke:none"
     d="M 2.5626849,15.912575 2.1712466,15.71614 0.8555787,15.699693 c 0,0 -0.1588356,0.180262 -0.31260704,0.180262 -0.35944279,0 -0.50560786,-0.111451 -0.50560786,-0.111451 l 0.002718,-0.638806 c 0,0 0.18101832,-0.184845 0.50288949,-0.184845 0.17566335,0 0.31711095,0.24185 0.31711095,0.24185 l 1.31116406,-0.0071 0.3914383,-0.212472 z"
     id="path3145"
     inkscape:connector-curvature="0"
     sodipodi:nodetypes="cccsccscccc" /><rect
     style="fill:#908e90;fill-opacity:1;stroke:none"
     id="rect3919"
     width="0.21528012"
     height="7.204195"
     x="2.5543787"
     y="9.3001223" /><path
     style="fill:#ffffff;fill-opacity:0.51141555;stroke:none;filter:url(#filter3955)"
     d="m 0.96318496,53.071489 c 0,0 0.88613014,-0.712757 1.40625004,-0.597175 0.5201199,0.115582 0.7320206,0.558647 0.7320206,0.558647 0,0 -0.4815925,-0.173373 -0.9246576,-0.115582 -0.4430651,0.05779 -1.21361304,0.15411 -1.21361304,0.15411 z"
     id="path3945"
     inkscape:connector-curvature="0"
     transform="matrix(0.28222222,0,0,0.28222222,-0.12301721,0.27678872)" /><path
     style="fill:#ffffff;fill-opacity:0.51141555;stroke:none;filter:url(#filter4001)"
     d="m 3.8412608,53.085756 4.1409337,-0.02724 0,0.245187 -4.1409337,0 z"
     id="path3959"
     inkscape:connector-curvature="0"
     transform="matrix(0.28222222,0,0,0.28222222,-0.12301721,0.27678872)" /><path
     style="fill:#ffffff;fill-opacity:0.51141555;stroke:none;filter:url(#filter4011)"
     d="m 8.3499748,52.963162 1.0624764,-0.531238 -0.013621,0.490374 z"
     id="path4005"
     inkscape:connector-curvature="0"
     transform="matrix(0.28222222,0,0,0.28222222,-0.12301721,0.27678872)" /><path
     style="fill:#ffffff;fill-opacity:0.51141555;stroke:none;filter:url(#filter4041)"
     d="m 2.6969179,31.072344 c 0.2696918,-0.250428 0.770548,-0.288955 0.8668665,-0.231164 0.096319,0.05779 0.3274828,0.577911 0.4623287,0.73202 0.1348459,0.15411 0.3467466,0.327483 0.3467466,0.327483 0,0 -0.8668664,-0.443065 -1.1943493,-0.558647 C 2.8510275,31.226454 2.6969179,31.072344 2.6969179,31.072344 z"
     id="path4015"
     inkscape:connector-curvature="0"
     transform="matrix(0.28222222,0,0,0.28222222,-0.12301721,0.27678872)" /></svg>