<?xml version="1.0" encoding="UTF-8" standalone="no"?>
<!-- Creator: CorelDRAW -->

<svg
   xmlns:dc="http://purl.org/dc/elements/1.1/"
   xmlns:cc="http://creativecommons.org/ns#"
   xmlns:rdf="http://www.w3.org/1999/02/22-rdf-syntax-ns#"
   xmlns:svg="http://www.w3.org/2000/svg"
   xmlns="http://www.w3.org/2000/svg"
   xmlns:sodipodi="http://sodipodi.sourceforge.net/DTD/sodipodi-0.dtd"
   xmlns:inkscape="http://www.inkscape.org/namespaces/inkscape"
   xml:space="preserve"
   width="50.8mm"
   height="25.4mm"
   style="shape-rendering:geometricPrecision; text-rendering:geometricPrecision; image-rendering:optimizeQuality; fill-rule:evenodd; clip-rule:evenodd"
   viewBox="0 0 50.8 25.4"
   id="svg3178"
   version="1.1"
   inkscape:version="0.48.4 r9939"
   sodipodi:docname="anschutz.svg"><metadata
     id="metadata3198"><rdf:RDF><cc:Work
         rdf:about=""><dc:format>image/svg+xml</dc:format><dc:type
           rdf:resource="http://purl.org/dc/dcmitype/StillImage" /><dc:title></dc:title></cc:Work></rdf:RDF></metadata><sodipodi:namedview
     pagecolor="#ffffff"
     bordercolor="#666666"
     borderopacity="1"
     objecttolerance="10"
     gridtolerance="10"
     guidetolerance="10"
     inkscape:pageopacity="0"
     inkscape:pageshadow="2"
     inkscape:window-width="1551"
     inkscape:window-height="1028"
     id="namedview3196"
     showgrid="false"
     inkscape:zoom="16"
     inkscape:cx="5.7534211"
     inkscape:cy="54.734673"
     inkscape:window-x="10"
     inkscape:window-y="24"
     inkscape:window-maximized="0"
     inkscape:current-layer="svg3178"
     showguides="true"
     inkscape:guide-bbox="true" /><defs
     id="defs3180"><style
       type="text/css"
       id="style3182">
    .fil0 {fill:#E77817}
    .fil1 {fill:#E9D856}
    .fil2 {fill:#EBC32E}
   </style><filter
       inkscape:collect="always"
       id="filter4001"
       x="-0.05719737"
       width="1.1143947"
       y="-0.96599949"
       height="2.931999"><feGaussianBlur
         inkscape:collect="always"
         stdDeviation="0.098687716"
         id="feGaussianBlur4003" /></filter><filter
       inkscape:collect="always"
       id="filter4011"
       x="-0.15668014"
       width="1.3133603"
       y="-0.3133604"
       height="1.6267208"><feGaussianBlur
         inkscape:collect="always"
         stdDeviation="0.069362064"
         id="feGaussianBlur4013" /></filter><filter
       inkscape:collect="always"
       id="filter3834"><feGaussianBlur
         inkscape:collect="always"
         stdDeviation="0.15712758"
         id="feGaussianBlur3836" /></filter></defs><path
     style="fill:#ffffff;fill-opacity:0.51141555;stroke:none;filter:url(#filter4011)"
     d="m 8.3499748,52.963162 1.0624764,-0.531238 -0.013621,0.490374 z"
     id="path4005"
     inkscape:connector-curvature="0"
     transform="matrix(0.28222222,0,0,0.28222222,-0.21656154,1.2116499)" /><path
     style="fill:#96999b;fill-opacity:1;stroke:none"
     d="m 2.6493029,9.9042357 -0.2116667,0.0088 -0.2028472,7.3201393 0.2116666,-0.0088 0.017639,-0.493889 0.15875,0 0,-1.031875 c 0,0 0.2822223,-0.06621 0.2822223,-0.229306 0,-0.163099 0.1031748,-3.855305 0.070555,-3.942291 -0.014961,-0.03991 -0.2045688,-0.05115 -0.2293055,-0.0441 l 0.00882,-1.128888 -0.1058333,-0.0088 z m 0.1825503,2.0795783 c 0,0 0.1146528,0.02633 0.1146528,0.09701 0,0.07068 -0.00338,0.537861 -0.00882,0.608541 -0.00544,0.07067 -0.058232,0.141111 -0.1234723,0.141111 -0.06524,0 -0.135671,-0.05956 -0.141111,-0.141111 -0.00544,-0.08155 0.00882,-0.451728 0.00882,-0.511528 0,-0.0598 0.014014,-0.188627 0.1499305,-0.194027 z m -0.052917,1.252361 c 0,0 0.1146527,0.02634 0.1146527,0.09701 0,0.07068 -0.00338,0.537865 -0.00882,0.608541 -0.00544,0.07068 -0.058233,0.141111 -0.1234722,0.141111 -0.06524,0 -0.1268549,-0.05956 -0.1322916,-0.141111 -0.00544,-0.08155 0.00882,-0.451724 0.00882,-0.511527 0,-0.0598 0.00519,-0.188593 0.1411111,-0.194028 z"
     id="path3790"
     inkscape:connector-curvature="0"
     sodipodi:nodetypes="cccccccsccccccscscsccscsssc" /><path
     style="fill:#737172;fill-opacity:1;stroke:none"
     d="m 2.8857364,13.591368 c -0.212029,-0.01631 -0.3044519,0.06524 -0.3153252,0.152227 -0.010873,0.08699 -0.043493,0.299015 0.1848459,0.293578 0.228339,-0.0054 0.1839399,0.0034 0.1839399,0.0034 l -0.00434,0.108582 c 0,0 0.9443083,0.02938 1.2561227,0.02938 l -0.00544,-0.543664 -1.1910793,-0.04349 z"
     id="path3814"
     inkscape:connector-curvature="0"
     sodipodi:nodetypes="csccccccc" /><path
     style="fill:#717173;fill-opacity:1;stroke:none"
     d="m 2.9074831,12.330067 c -0.228339,0 -0.3153253,0.08699 -0.3153253,0.201156 0,0.11417 0.04893,0.271832 0.2011559,0.271832 0.1522259,0 0.1739726,-0.01087 0.1739726,-0.01087 l -0.00316,0.139223 1.3029685,0.02931 0.00544,-0.581721 z"
     id="path3816"
     inkscape:connector-curvature="0"
     sodipodi:nodetypes="cssccccc" /><path
     style="fill:#96999b;fill-opacity:1;stroke:none"
     d="m 2.3120906,15.276728 c 0,0 -0.2201041,0.511045 -0.5680493,0.815497 -0.3479452,0.304452 -0.83724316,0.467551 -1.11994863,0.500171 -0.2827055,0.03262 -0.50017125,0.07611 -0.53279111,0.152226 -0.03261987,0.07611 -0.04349315,0.260959 -0.04349315,0.260959 0,0 -0.06523973,0.06524 0.23921232,0.05437 0.30445207,-0.01087 1.28304797,-0.08699 1.50051377,-0.108732 0.2174657,-0.02175 0.4675513,-0.05437 0.4675513,-0.05437 z"
     id="path3020"
     inkscape:connector-curvature="0"
     sodipodi:nodetypes="cssscsscc" /><path
     sodipodi:type="arc"
     style="fill:#414040;fill-opacity:1;stroke:none"
     id="path3818"
     sodipodi:cx="10.151969"
     sodipodi:cy="40.569347"
     sodipodi:rx="0.44306508"
     sodipodi:ry="0.50085616"
     d="m 10.595034,40.569347 a 0.44306508,0.50085616 0 1 1 -0.8861301,0 0.44306508,0.50085616 0 1 1 0.8861301,0 z"
     transform="matrix(0.28222222,0,0,0.28222222,-0.06636111,1.1033971)" /><path
     sodipodi:type="arc"
     style="fill:#414144;fill-opacity:1;stroke:none"
     id="path3820"
     sodipodi:cx="9.9785957"
     sodipodi:cy="45.096317"
     sodipodi:rx="0.46232876"
     sodipodi:ry="0.42380139"
     d="m 10.440924,45.096317 a 0.46232876,0.42380139 0 1 1 -0.924657,0 0.46232876,0.42380139 0 1 1 0.924657,0 z"
     transform="matrix(0.28222222,0,0,0.28222222,-0.06092447,1.0925238)" /><path
     style="opacity:0.54320984;fill:#eff0ec;fill-opacity:0.56621004;stroke:none;filter:url(#filter3834)"
     d="m 8.3635962,51.887065 c 0,0 -0.6538316,1.798037 -2.2884107,2.642569 -1.634579,0.844533 -3.432616,1.389393 -3.7050459,1.389393 -0.2724298,0 -1.2259343,0.108971 -1.2259343,0.108971 0,0 -0.1362149,0 -0.19070085,0.27243 -0.054486,0.27243 2.53359755,0 4.11369065,-0.108972 1.5800931,-0.108972 2.9149993,-0.108972 3.0784572,-0.326915 0.1634579,-0.217944 0.2179439,-3.977476 0.2179439,-3.977476 z"
     id="path3824"
     inkscape:connector-curvature="0"
     transform="matrix(0.28222222,0,0,0.28222222,-0.13703748,0.92398777)" /></svg>