<?xml version="1.0" encoding="UTF-8" standalone="no"?>
<!-- Creator: CorelDRAW -->

<svg
   xmlns:dc="http://purl.org/dc/elements/1.1/"
   xmlns:cc="http://creativecommons.org/ns#"
   xmlns:rdf="http://www.w3.org/1999/02/22-rdf-syntax-ns#"
   xmlns:svg="http://www.w3.org/2000/svg"
   xmlns="http://www.w3.org/2000/svg"
   xmlns:sodipodi="http://sodipodi.sourceforge.net/DTD/sodipodi-0.dtd"
   xmlns:inkscape="http://www.inkscape.org/namespaces/inkscape"
   xml:space="preserve"
   width="50.8mm"
   height="25.4mm"
   style="shape-rendering:geometricPrecision; text-rendering:geometricPrecision; image-rendering:optimizeQuality; fill-rule:evenodd; clip-rule:evenodd"
   viewBox="0 0 50.8 25.4"
   id="svg4458"
   version="1.1"
   inkscape:version="0.48.4 r9939"
   sodipodi:docname="atex.svg"><metadata
     id="metadata4482"><rdf:RDF><cc:Work
         rdf:about=""><dc:format>image/svg+xml</dc:format><dc:type
           rdf:resource="http://purl.org/dc/dcmitype/StillImage" /><dc:title></dc:title></cc:Work></rdf:RDF></metadata><sodipodi:namedview
     pagecolor="#ffffff"
     bordercolor="#666666"
     borderopacity="1"
     objecttolerance="10"
     gridtolerance="10"
     guidetolerance="10"
     inkscape:pageopacity="0"
     inkscape:pageshadow="2"
     inkscape:window-width="1920"
     inkscape:window-height="1056"
     id="namedview4480"
     showgrid="false"
     inkscape:zoom="25.955556"
     inkscape:cx="87.456441"
     inkscape:cy="52.915037"
     inkscape:window-x="0"
     inkscape:window-y="24"
     inkscape:window-maximized="1"
     inkscape:current-layer="svg4458" /><defs
     id="defs4460"><style
       type="text/css"
       id="style4462">
    .fil4 {fill:#1F1A17}
    .fil0 {fill:#605D5C}
    .fil1 {fill:#E77817}
    .fil3 {fill:#6D473F}
    .fil2 {fill:#7C6053}
   </style></defs><g
     id="g3790"
     transform="matrix(0.05326583,0,0,0.05326583,17.484662,10.644967)"><path
       transform="scale(0.28222222,0.28222222)"
       inkscape:connector-curvature="0"
       id="path3020"
       d="m 240.39209,-28.779408 c 0.43588,-1.089719 21.35849,-32.69158 21.35849,-32.69158 l 52.96036,-7.845979 55.1398,5.666541 11.33308,6.974203 c 0,0 1.74355,10.461306 1.08972,12.422801 -0.65383,1.961495 -4.57682,20.922611 -4.57682,20.922611 0,0 -15.47401,10.243362 -18.52523,11.551025 -3.05121,1.307663 -36.39662,14.1663514 -43.15288,14.1663514 -6.75626,0 -44.24261,-5.4485967 -44.24261,-5.4485967 L 248.45601,-13.087449 z"
       style="fill:#ffffff;stroke:none" /><path
       inkscape:connector-curvature="0"
       id="path3004"
       d="m 83.633828,-23.951791 c -2.721907,-0.0045 -5.118035,0.24402 -7.055556,0.943681 -6.888962,2.521852 -10.030211,7.193133 -10.706805,11.006666 -0.676597,3.8135334 -0.546927,10.4635549 4.189236,13.8465279 4.736163,3.382973 10.1452,3.6833426 15.680972,2.8222222 5.535775,-0.8611203 10.210066,-2.275015 14.208125,-4.55083326 3.99806,-2.27581824 9.40835,-5.59362864 11.25361,-8.54604164 1.84526,-2.9524132 1.66096,-5.6605442 0.0617,-7.6288192 -1.59923,-1.968275 -8.17738,-6.211847 -15.804447,-7.011458 -4.290224,-0.449782 -8.327283,-0.876133 -11.826875,-0.881945 z m 0.07937,8.563681 c 1.437659,-0.0016 3.313328,-1.79e-4 5.776736,0 5.719233,4.1e-4 10.421541,0.01539 10.451041,0.03528 0.0295,0.01989 0.360305,0.48355 0.732005,1.031875 0.37171,0.548326 0.69997,0.998498 0.73203,0.996598 0.032,-0.002 0.38069,-0.364524 0.76729,-0.80257 0.3866,-0.438046 0.79905,-0.894435 0.91722,-1.023055 l 0.21167,-0.238125 1.60514,0 c 1.19994,0 1.61281,0.01717 1.64041,0.06174 0.0239,0.03864 -0.64713,0.723001 -1.905,1.957916 -1.43237,1.406227 -1.9279,1.924815 -1.905,1.984375 0.017,0.04431 0.68195,0.96045 1.47285,2.037292 0.79089,1.0768423 1.44311,2.0116445 1.4552,2.0725695 l 0.0265,0.1058333 -1.70215,0 -1.70216,0 -0.79375,-1.1641667 c -0.43555,-0.6430972 -0.81513,-1.1827349 -0.83784,-1.190625 -0.0227,-0.00794 -0.52048,0.5221995 -1.11125,1.1729861 l -1.075972,1.1818056 -5.794375,0 c -4.916043,4.25e-4 -5.798445,-0.012196 -5.820833,-0.070556 -0.01451,-0.037833 0.01172,-0.2242111 0.05292,-0.4233333 0.04121,-0.1991227 0.31892,-1.5685369 0.626181,-3.0427075 0.307261,-1.474172 0.551507,-2.703329 0.537986,-2.725209 -0.01352,-0.02188 -0.717928,-0.03528 -1.569861,-0.03528 l -1.552222,0 -0.0441,0.105833 c -0.02628,0.06093 -0.323941,1.452782 -0.661459,3.086805 -0.337518,1.6340249 -0.647528,2.9958588 -0.679097,3.0338888 -0.04665,0.056216 -0.297902,0.070556 -1.367014,0.070556 -0.72327,0 -1.331315,-0.00841 -1.349375,-0.026458 -0.01805,-0.018052 -0.03528,-0.083401 -0.03528,-0.1411112 0,-0.05771 0.279002,-1.4450805 0.617362,-3.0779866 0.338359,-1.632906 0.605933,-2.98312 0.590902,-3.00743 -0.01526,-0.02469 -0.756172,-0.0441 -1.675694,-0.0441 l -1.649236,0 0,-0.114653 c 0,-0.164045 0.298207,-1.616955 0.352778,-1.719792 0.03249,-0.0612 0.352506,-0.0834 4.665486,-0.08819 z m -7.134931,0.0088 c 0.860022,-0.01704 1.074471,-0.002 1.12007,0.05292 0.07131,0.08593 1.846345,8.0518265 1.807986,8.1138886 -0.01659,0.026842 -0.635463,0.044097 -1.481667,0.044097 l -1.446389,0 -0.0441,-0.1058333 c -0.0442,-0.1021967 -0.584728,-3.2779723 -0.846667,-4.9741663 -0.06185,-0.400489 -0.140589,-0.729214 -0.167569,-0.732014 -0.02698,-0.0028 -0.212855,0.27707 -0.414514,0.62618 -0.201656,0.349112 -0.96176,1.65602 -1.684514,2.9015975 l -1.314097,2.2577778 -1.455209,0.017639 c -1.2478,0.011153 -1.466694,2.47e-4 -1.490486,-0.061736 -0.02782,-0.072498 0.182471,-0.4083501 2.487084,-4.0393053 1.584827,-2.496923 1.68978,-2.651024 2.143125,-3.104445 0.43625,-0.436325 0.836633,-0.687649 1.384652,-0.864305 0.302263,-0.09743 0.471803,-0.113852 1.402292,-0.132292 z m 20.134792,0.299861 c -0.01817,0.03465 -0.09302,0.357645 -0.16757,0.723195 -0.07455,0.36555 -0.160367,0.702262 -0.185208,0.749652 -0.04217,0.08045 -0.222386,0.0882 -2.725208,0.0882 l -2.681112,0 -0.01764,0.114653 c -0.128423,0.554742 -0.864306,4.1794522 -0.864306,4.2597912 l 0,0.1058334 2.654653,0 c 2.406311,0 2.662261,0.00725 2.68993,0.079375 0.01683,0.043851 -0.03788,0.3805676 -0.123472,0.7496528 -0.08559,0.3690857 -0.150179,0.7027892 -0.14993,0.7408333 3.04e-4,0.052091 0.02355,0.044171 0.105833,-0.026458 0.09099,-0.078109 3.326759,-3.1530287 3.951111,-3.7570837 l 0.194028,-0.194028 -1.322917,-1.843264 c -0.818405,-1.146365 -1.337745,-1.829357 -1.358194,-1.790347 z m -2.002014,2.883958 c 0.709481,-0.0018 1.37051,0.02164 1.411111,0.07056 0.06661,0.08027 -0.257339,1.659172 -0.352778,1.719792 -0.03329,0.02115 -0.981219,0.03488 -2.099028,0.03528 -2.277152,8.45e-4 -2.109851,0.03032 -2.05493,-0.370416 0.09079,-0.662382 0.656226,-1.219636 1.393472,-1.375834 0.234129,-0.04963 0.992671,-0.0776 1.702153,-0.07938 z m -17.136181,7.0026393 c 0.05545,-0.00426 0.118768,0 0.185209,0 0.305229,0 0.361837,0.00906 0.46743,0.1146528 0.146143,0.1461383 0.157099,0.2926927 0.02646,0.4233333 -0.122098,0.1220978 -0.235935,0.08322 -0.255764,-0.088194 -0.01398,-0.1208473 -0.03197,-0.1364147 -0.264584,-0.1499306 -0.294705,-0.017124 -0.429494,0.077044 -0.405694,0.2822223 0.01431,0.1234287 0.03163,0.1264135 0.370417,0.1499305 0.195043,0.013539 0.379433,0.05303 0.414513,0.088195 0.148218,0.1485725 0.0086,0.7335218 -0.202847,0.8466666 -0.0521,0.027881 -0.281121,0.052917 -0.511528,0.052917 -0.377091,0 -0.424899,-0.00734 -0.493888,-0.1058334 -0.04215,-0.06018 -0.07937,-0.1750514 -0.07937,-0.2469444 0,-0.2614814 0.305779,-0.3337848 0.335138,-0.079375 0.01504,0.1302879 0.0255,0.1322917 0.308681,0.1322917 0.269587,0 0.299827,-0.00741 0.343958,-0.1234722 0.09015,-0.2371175 0.07303,-0.252333 -0.299861,-0.2734028 -0.298884,-0.016889 -0.367033,-0.038905 -0.449791,-0.1411111 -0.07419,-0.091548 -0.09306,-0.167942 -0.07056,-0.3086806 0.06414,-0.4010767 0.193937,-0.5434592 0.582083,-0.5732639 z m 2.257778,0 c 0.576123,-0.00103 0.660919,0.057906 0.626181,0.4409722 -0.04881,0.538217 -0.215807,0.6879167 -0.749653,0.6879167 l -0.308681,0 -0.07055,0.2822222 c -0.06093,0.2506252 -0.08473,0.2860692 -0.202847,0.2998611 -0.1173,0.013697 -0.132292,-9.855e-4 -0.132292,-0.1234722 0,-0.241335 0.287779,-1.5109602 0.352778,-1.5522222 0.03415,-0.021681 0.254163,-0.034884 0.485069,-0.035278 z m 1.940278,0 c 0.05629,-0.00304 0.132052,0 0.220486,0 0.64663,0 0.69241,0.087725 0.493889,0.9789584 -0.10026,0.450108 -0.140468,0.55681 -0.291042,0.6790972 -0.07348,0.059678 -0.845402,0.079888 -0.978958,0.026458 -0.149694,-0.059888 -0.158462,-0.2524054 -0.03528,-0.8378472 0.105771,-0.5026911 0.142782,-0.5963172 0.273403,-0.714375 0.10252,-0.092662 0.148643,-0.1231702 0.3175,-0.1322917 z m 2.345972,0 c 0.638048,-0.00113 0.750381,0.130994 0.590903,0.7231945 -0.03498,0.1299049 -0.115867,0.2443686 -0.202847,0.3086805 -0.138111,0.1021114 -0.131835,0.1116559 -0.07056,0.3439584 0.07135,0.270482 0.03163,0.3587258 -0.132292,0.3351388 -0.09317,-0.013408 -0.131196,-0.072544 -0.194027,-0.2910416 -0.07443,-0.2588616 -0.08515,-0.2678532 -0.255764,-0.2822222 -0.192267,-0.016193 -0.177699,-0.034141 -0.282223,0.3704166 -0.04434,0.1716092 -0.0725,0.2116667 -0.167569,0.2116667 -0.06375,0 -0.12711,-0.034072 -0.141111,-0.070556 -0.03982,-0.1037768 0.287457,-1.5669703 0.361597,-1.6139583 0.0364,-0.023069 0.259958,-0.034884 0.493889,-0.035278 z m 4.162778,0 c 0.430377,-2.255e-4 0.571844,0.086085 0.564444,0.3439584 -0.0082,0.2869237 -0.277009,0.379645 -0.30868,0.1058333 -0.01455,-0.1258124 -0.02661,-0.1322917 -0.308681,-0.1322917 -0.273417,0 -0.301599,0.011823 -0.343958,0.1322917 -0.08211,0.2334827 -0.02208,0.2822222 0.326319,0.2822222 0.369237,0 0.47625,0.084714 0.47625,0.3615972 0,0.2283957 -0.06412,0.3911053 -0.202847,0.5203472 -0.09477,0.08829 -0.164533,0.1058334 -0.529167,0.1058334 -0.47914,0 -0.590902,-0.060902 -0.590902,-0.3263195 0,-0.2817305 0.273718,-0.3776288 0.326319,-0.1146527 0.02882,0.144097 0.03379,0.1411111 0.3175,0.1411111 0.302412,0 0.328617,-0.00755 0.352778,-0.238125 0.01237,-0.1181301 -0.0034,-0.1263046 -0.3175,-0.1499306 -0.499977,-0.037604 -0.614505,-0.1865271 -0.48507,-0.6526389 0.07592,-0.2734036 0.280874,-0.37899 0.723195,-0.3792361 z m 2.398889,0 c 0.120001,-0.030412 0.180884,0.1395984 0.211666,0.5732639 0.01773,0.2496284 0.04549,0.4592955 0.06174,0.4586111 0.01625,-6.858e-4 0.128846,-0.2235998 0.255764,-0.4938889 0.234606,-0.4996273 0.335145,-0.6085374 0.458611,-0.4850694 0.05908,0.059073 0.02541,0.1701597 -0.273402,0.8025694 -0.191751,0.4058102 -0.369297,0.7687226 -0.396875,0.8025695 -0.02758,0.033847 -0.11134,0.061736 -0.176389,0.061736 -0.15671,0 -0.211667,-0.1565416 -0.211667,-0.5909028 0,-0.1877816 -0.01431,-0.3439583 -0.03528,-0.3439583 -0.02097,0 -0.145621,0.2101915 -0.273402,0.4674305 -0.213518,0.4298358 -0.239223,0.4674306 -0.370417,0.4674306 -0.08034,0 -0.16072,-0.029727 -0.176389,-0.070556 -0.01532,-0.039901 -0.04302,-0.4181345 -0.06174,-0.8378472 -0.03057,-0.6854291 -0.0206,-0.7655359 0.05292,-0.79375 0.136815,-0.0525 0.224705,0.071639 0.229305,0.3175 0.0024,0.1253044 0.02463,0.340861 0.0441,0.47625 l 0.03528,0.2469445 0.238125,-0.4938889 c 0.133855,-0.2678348 0.279451,-0.5084251 0.32632,-0.5379861 0.01965,-0.012394 0.04459,-0.022114 0.06174,-0.026458 z m 4.383264,0 c 0.06106,0 0.13193,0.027889 0.15875,0.061736 0.06564,0.082855 0.285075,1.488138 0.246944,1.5875 -0.01829,0.047657 -0.07387,0.071286 -0.141111,0.061736 -0.08222,-0.011676 -0.124971,-0.066086 -0.15875,-0.2028472 l -0.0441,-0.1852083 -0.308681,0 c -0.296203,0 -0.306792,0.00478 -0.423333,0.1852083 -0.125911,0.1949405 -0.312798,0.2682748 -0.361597,0.1411111 -0.01597,-0.041623 0.153469,-0.3864452 0.396875,-0.8025694 0.506411,-0.8657697 0.493699,-0.8466667 0.635,-0.8466667 z m 2.063749,0 c 0.394632,-6.869e-4 0.436677,0.00452 0.546806,0.1146528 0.06646,0.066464 0.123472,0.1611957 0.123472,0.2116667 0,0.2121388 -0.158095,0.6079185 -0.282222,0.7055555 -0.12628,0.099326 -0.126416,0.101998 -0.07056,0.3439584 0.066,0.2859421 0.04795,0.3439583 -0.114652,0.3439583 -0.09889,0 -0.126938,-0.042391 -0.202848,-0.2822222 -0.08561,-0.2704652 -0.103008,-0.2856191 -0.273402,-0.2998611 l -0.176389,-0.017639 -0.07056,0.2910416 c -0.06058,0.2551831 -0.08191,0.2859462 -0.202847,0.2998611 -0.11664,0.013421 -0.132292,-0.00557 -0.132292,-0.1146527 0,-0.23204 0.299528,-1.5216217 0.361598,-1.5610417 0.03363,-0.021357 0.255727,-0.034884 0.493888,-0.035278 z m -11.456458,0.00882 c 0.09914,-0.00988 0.260384,-0.00602 0.537986,0 l 0.635,0.00882 0,0.1234722 c 0,0.1133842 -0.02396,0.1272535 -0.273402,0.1499306 l -0.264584,0.026458 -0.14993,0.6879167 c -0.142977,0.66379 -0.157418,0.6910205 -0.282223,0.7055555 -0.07437,0.00866 -0.137521,-0.016004 -0.14993,-0.052917 -0.01189,-0.035379 0.04183,-0.3431947 0.114653,-0.6879167 0.07283,-0.3447223 0.119893,-0.6385808 0.105833,-0.6526389 -0.01406,-0.014059 -0.111181,-0.026458 -0.211667,-0.026458 -0.220861,0 -0.318866,-0.089196 -0.229305,-0.2116667 0.02656,-0.036319 0.06843,-0.060678 0.167569,-0.070556 z m 7.055556,0 c 0.101047,-0.0054 0.235029,-0.00343 0.370416,0 0.489024,0.01239 0.493889,0.010042 0.493889,0.1322916 0,0.1196092 -0.01109,0.1260086 -0.414514,0.1499306 -0.411793,0.024418 -0.418902,0.02988 -0.458611,0.1763889 -0.06395,0.2359378 -0.02026,0.2645833 0.308681,0.2645833 0.231574,0 0.30222,0.016558 0.326319,0.079375 0.05098,0.1328632 -0.125145,0.2204861 -0.458611,0.2204861 -0.301597,0 -0.304659,-0.00248 -0.335139,0.1499306 -0.01692,0.084618 -0.02646,0.1791541 -0.02646,0.2028472 0,0.023693 0.152363,0.043703 0.335139,0.044097 0.371306,8.424e-4 0.467052,0.040288 0.440972,0.1763889 -0.01591,0.083033 -0.06814,0.093345 -0.564444,0.1058333 l -0.555625,0.00882 0,-0.1411111 c 0,-0.2506105 0.285388,-1.4997269 0.352777,-1.5434028 0.01792,-0.011615 0.08416,-0.021062 0.185209,-0.026458 z M 79.8591,-4.9018095 c -0.15085,0 -0.284511,0.019264 -0.299861,0.044097 -0.01535,0.024832 -0.03591,0.1493071 -0.05292,0.2734028 l -0.03528,0.2204861 0.238125,0 c 0.316865,-9.931e-4 0.375155,-0.037681 0.405694,-0.3086806 l 0.02646,-0.2293055 -0.282223,0 z m 2.116667,0 c -0.139697,0.00136 -0.281079,0.026669 -0.3175,0.070556 -0.05082,0.06123 -0.253165,0.8522795 -0.255764,1.0054167 -7.93e-4,0.047453 0.08796,0.054925 0.335139,0.044097 l 0.335139,-0.00882 0.105833,-0.4938889 c 0.06054,-0.2707778 0.100505,-0.5217781 0.08819,-0.555625 -0.01577,-0.043376 -0.151345,-0.063098 -0.291042,-0.061736 z m 14.993055,0.00882 c -0.05504,0.00446 -0.09534,0.01553 -0.105833,0.026458 -0.02097,0.021857 -0.05171,0.1447834 -0.07055,0.2734027 l -0.03528,0.2293056 0.264583,0 c 0.313662,0 0.380314,-0.053074 0.396875,-0.3263194 l 0.0088,-0.1852084 -0.264584,-0.017639 c -0.07301,-0.00416 -0.138991,-0.00446 -0.194028,0 z m -13.123333,0.017639 -0.06174,0.2204861 c -0.03022,0.12185 -0.03793,0.2354561 -0.02646,0.2557639 0.01148,0.020309 0.135845,0.035278 0.282222,0.035278 0.296438,0 0.355546,-0.046941 0.379236,-0.3439583 l 0.01764,-0.1675695 -0.299861,0 -0.291042,0 z m 11.130139,0.2557639 c -0.07218,0.051627 -0.282222,0.361451 -0.282222,0.4321528 0,0.015487 0.09216,0.026458 0.202847,0.026458 l 0.202847,0 -0.03528,-0.2116666 c -0.0187,-0.115081 -0.04989,-0.2248445 -0.07056,-0.2469445 -0.004,-0.00429 -0.0073,-0.00738 -0.01764,0 z"
       style="fill:#000000" /></g></svg>