<?xml version="1.0" encoding="UTF-8" standalone="no"?>
<!-- Creator: CorelDRAW -->

<svg
   xmlns:dc="http://purl.org/dc/elements/1.1/"
   xmlns:cc="http://creativecommons.org/ns#"
   xmlns:rdf="http://www.w3.org/1999/02/22-rdf-syntax-ns#"
   xmlns:svg="http://www.w3.org/2000/svg"
   xmlns="http://www.w3.org/2000/svg"
   xmlns:sodipodi="http://sodipodi.sourceforge.net/DTD/sodipodi-0.dtd"
   xmlns:inkscape="http://www.inkscape.org/namespaces/inkscape"
   xml:space="preserve"
   width="50.8mm"
   height="25.4mm"
   style="shape-rendering:geometricPrecision; text-rendering:geometricPrecision; image-rendering:optimizeQuality; fill-rule:evenodd; clip-rule:evenodd"
   viewBox="0 0 50.8 25.4"
   id="svg4458"
   version="1.1"
   inkscape:version="0.48.4 r9939"
   sodipodi:docname="viessmann.svg"><metadata
     id="metadata4482"><rdf:RDF><cc:Work
         rdf:about=""><dc:format>image/svg+xml</dc:format><dc:type
           rdf:resource="http://purl.org/dc/dcmitype/StillImage" /><dc:title /></cc:Work></rdf:RDF></metadata><sodipodi:namedview
     pagecolor="#ffffff"
     bordercolor="#666666"
     borderopacity="1"
     objecttolerance="10"
     gridtolerance="10"
     guidetolerance="10"
     inkscape:pageopacity="0"
     inkscape:pageshadow="2"
     inkscape:window-width="1920"
     inkscape:window-height="1056"
     id="namedview4480"
     showgrid="false"
     inkscape:zoom="3.2444445"
     inkscape:cx="219.07419"
     inkscape:cy="90.225197"
     inkscape:window-x="0"
     inkscape:window-y="24"
     inkscape:window-maximized="1"
     inkscape:current-layer="svg4458" /><defs
     id="defs4460"><style
       type="text/css"
       id="style4462">
    .fil4 {fill:#1F1A17}
    .fil0 {fill:#605D5C}
    .fil1 {fill:#E77817}
    .fil3 {fill:#6D473F}
    .fil2 {fill:#7C6053}
   </style></defs><g
     id="g5687"
     transform="matrix(1.0817207,0,0,1.0817207,-2.1728072,2.9915661)"><rect
       y="6.109365"
       x="20.989811"
       height="1.1263763"
       width="2.6564028"
       id="rect5672"
       style="fill:#ffffff;fill-opacity:1;stroke:none" /><path
       inkscape:connector-curvature="0"
       id="path5685"
       d="m 20.988389,6.6702964 0,-0.5635579 1.32881,0 1.32881,0 0,0.5635579 0,0.5635579 -1.32881,0 -1.32881,0 0,-0.5635579 z m 0.06334,0.5516521 c 0.02552,-0.00329 0.06909,-0.00992 0.09683,-0.014736 0.02773,-0.00482 0.101144,-0.016921 0.163135,-0.026894 0.06199,-0.00997 0.160763,-0.026187 0.219491,-0.036032 0.05873,-0.00985 0.13214,-0.021886 0.163135,-0.026757 0.031,-0.00487 0.07905,-0.012552 0.10678,-0.017069 0.139639,-0.022741 0.17165,-0.027918 0.201694,-0.032618 0.01795,-0.00281 0.05799,-0.00937 0.08898,-0.014575 0.031,-0.00521 0.07237,-0.012019 0.09195,-0.015133 0.01958,-0.00311 0.05828,-0.00964 0.08602,-0.014513 0.02773,-0.00487 0.08513,-0.014354 0.127542,-0.021081 0.04241,-0.00673 0.126504,-0.020236 0.186864,-0.030021 0.06036,-0.00979 0.135105,-0.021808 0.166101,-0.026718 0.031,-0.00491 0.0697,-0.011402 0.08602,-0.014428 0.01631,-0.00303 0.06436,-0.010985 0.106779,-0.017686 0.13707,-0.021657 0.18885,-0.030036 0.240254,-0.038875 0.1286,-0.022114 0.384739,-0.064227 0.403389,-0.066321 0.01142,-0.00128 0.02677,-0.00359 0.03411,-0.00512 l 0.01335,-0.00279 0,-0.3439539 c 0,-0.2959801 -0.0012,-0.3439539 -0.0086,-0.3439539 -0.0047,0 -0.04543,0.00553 -0.09047,0.012278 -0.04504,0.00675 -0.09924,0.01482 -0.120452,0.017927 -0.02121,0.00311 -0.04268,0.00693 -0.0477,0.00849 -0.005,0.00156 -0.02772,0.00535 -0.05042,0.00842 -0.03494,0.00472 -0.346774,0.055601 -0.527718,0.086108 -0.105585,0.017802 -0.162993,0.027276 -0.344067,0.05678 -0.351529,0.057279 -0.545952,0.089048 -0.578388,0.094512 -0.115734,0.019493 -0.147417,0.024701 -0.216525,0.035593 -0.04241,0.00668 -0.0918,0.014838 -0.109745,0.018119 -0.01794,0.00328 -0.08335,0.013991 -0.145339,0.023802 -0.165149,0.026136 -0.371722,0.059566 -0.387075,0.062642 l -0.01335,0.00267 0,0.3399991 c 0,0.1869995 0.0018,0.3417788 0.004,0.3439539 0.0048,0.00483 -0.0016,0.00507 0.05345,-0.00202 z m 0.901474,-0.231584 c -0.0018,-0.00888 -0.0049,-0.022847 -0.007,-0.031041 -0.0036,-0.014197 -0.0023,-0.015086 0.02789,-0.018868 0.0174,-0.00218 0.05299,-0.00771 0.07909,-0.012276 0.0261,-0.00457 0.05747,-0.00986 0.0697,-0.011754 0.01856,-0.00288 0.02225,-0.0058 0.02225,-0.017658 0,-0.00782 -0.0025,-0.015788 -0.0057,-0.017714 -0.0031,-0.00193 -0.03811,0.00203 -0.07776,0.0088 -0.0562,0.00959 -0.07633,0.010899 -0.09134,0.00595 -0.06356,-0.020978 -0.06754,-0.1142237 -0.006,-0.1399513 0.02191,-0.00916 0.208254,-0.042246 0.212638,-0.037759 0.0014,0.00145 0.0044,0.014992 0.0067,0.030096 l 0.0041,0.027463 -0.01985,0.0029 c -0.08239,0.012039 -0.151605,0.024156 -0.163235,0.028578 -0.01442,0.00548 -0.01916,0.026505 -0.0069,0.030592 0.0038,0.00127 0.03784,-0.00267 0.07564,-0.00876 0.07972,-0.012835 0.103155,-0.00919 0.127602,0.019867 0.0121,0.01438 0.01527,0.024513 0.01526,0.048833 -1.2e-5,0.044694 -0.02582,0.070865 -0.07662,0.077706 -0.0084,0.00113 -0.04068,0.00649 -0.07167,0.011901 -0.123887,0.021627 -0.111204,0.021285 -0.114842,0.0031 z m -0.769641,-0.042474 c -0.0052,-0.00422 -0.03859,-0.046376 -0.07415,-0.093672 -0.03557,-0.047296 -0.06934,-0.091178 -0.07505,-0.097517 -0.01514,-0.016803 -0.01336,-0.019115 0.0178,-0.023128 0.0155,-0.002 0.0378,-0.00532 0.04956,-0.0074 l 0.02139,-0.00377 0.04977,0.071553 c 0.02738,0.039354 0.05144,0.069672 0.05347,0.067374 0.002,-0.0023 0.01359,-0.037548 0.02567,-0.078331 0.01208,-0.040784 0.02511,-0.077142 0.02895,-0.080795 0.0083,-0.00787 0.08069,-0.022469 0.08585,-0.01731 0.0062,0.00618 -0.07717,0.246684 -0.08727,0.2518479 -0.0052,0.00264 -0.02141,0.00663 -0.03609,0.00886 -0.01468,0.00223 -0.03203,0.00539 -0.03856,0.00701 -0.0065,0.00162 -0.01613,-5.089e-4 -0.02135,-0.00473 z m 0.267482,-0.08346 c -0.0039,-0.023575 -0.01068,-0.062885 -0.01516,-0.087355 -0.0045,-0.02447 -0.0089,-0.057582 -0.0098,-0.073581 l -0.0017,-0.02909 0.03263,-0.00773 c 0.01795,-0.00425 0.03556,-0.00785 0.03914,-0.00799 0.0037,-1.427e-4 0.01086,0.026047 0.01658,0.060554 0.0055,0.033443 0.01445,0.085535 0.01981,0.1157605 0.006,0.033917 0.0076,0.056902 0.0042,0.060041 -0.0031,0.0028 -0.02201,0.0067 -0.04212,0.00867 l -0.03656,0.00359 -0.007,-0.042864 z m 0.169586,-0.03884 c -0.0053,-0.031577 -0.01396,-0.081729 -0.01919,-0.1114479 -0.01012,-0.057461 -0.0094,-0.068707 0.0042,-0.070849 0.0047,-7.396e-4 0.03327,-0.00564 0.06345,-0.0109 0.139763,-0.024337 0.162932,-0.028037 0.164524,-0.026273 9.38e-4,0.00104 0.0035,0.012656 0.0057,0.025818 l 0.0039,0.02393 -0.06745,0.013146 c -0.0371,0.00723 -0.07327,0.013146 -0.08039,0.013146 -0.01042,0 -0.01294,0.00346 -0.01294,0.017796 0,0.021384 0.0037,0.021782 0.07927,0.00856 0.02892,-0.00506 0.05384,-0.00793 0.05539,-0.00638 0.0015,0.00155 0.0049,0.012205 0.0075,0.023683 0.0052,0.023255 5.46e-4,0.027528 -0.03027,0.027528 -0.0097,0 -0.03617,0.00422 -0.05884,0.00937 -0.04211,0.00958 -0.04889,0.016767 -0.0356,0.037766 0.0047,0.00745 0.01269,0.00728 0.06071,-0.00136 0.03041,-0.00547 0.06762,-0.011584 0.08271,-0.01359 l 0.02742,-0.00365 0.0042,0.027799 c 0.0023,0.015289 0.0033,0.028534 0.0022,0.029433 -0.0023,0.00193 -0.09695,0.018122 -0.176927,0.030266 -0.031,0.00471 -0.05941,0.0097 -0.06315,0.011088 -0.0044,0.00165 -0.01016,-0.017428 -0.01647,-0.054883 z m 0.63662,-0.064991 c -0.0029,-0.00768 -0.0053,-0.018566 -0.0053,-0.024199 0,-0.00563 -0.0068,-0.051153 -0.01512,-0.1011555 -0.0083,-0.050003 -0.01403,-0.092005 -0.0127,-0.093339 0.003,-0.00299 0.112149,-0.020868 0.113534,-0.018591 0.0086,0.014101 0.05086,0.087553 0.0551,0.095712 0.0045,0.00864 0.0079,-3.496e-4 0.016,-0.041525 0.0057,-0.0289 0.01232,-0.056549 0.01481,-0.061443 0.0029,-0.00578 0.02407,-0.012157 0.06032,-0.018201 l 0.05579,-0.0093 0.0036,0.015235 c 0.002,0.00838 0.0082,0.045934 0.01385,0.083456 0.0056,0.037521 0.01291,0.082583 0.01622,0.1001379 0.0046,0.02458 0.0043,0.032983 -0.0015,0.03655 -0.0093,0.00577 -0.05902,0.013492 -0.06276,0.00975 -0.0015,-0.00151 -0.0073,-0.029588 -0.01295,-0.062386 -0.01469,-0.08592 -0.01471,-0.085916 -0.03649,0.010859 -0.01343,0.059669 -0.02127,0.071186 -0.04847,0.071186 -0.01428,0 -0.02154,-0.00783 -0.05558,-0.059952 -0.02153,-0.032973 -0.04064,-0.058465 -0.04246,-0.056648 -0.0018,0.00182 0.0012,0.026049 0.0067,0.053848 0.01443,0.072722 0.01311,0.076888 -0.02558,0.080772 -0.0293,0.00294 -0.03218,0.00211 -0.03708,-0.010768 z m -0.351522,-0.056027 c -0.002,-0.00743 -0.0037,-0.021728 -0.0037,-0.031767 l -8.1e-5,-0.018253 0.04894,-0.00722 c 0.09005,-0.01329 0.146096,-0.025908 0.14903,-0.033555 0.0016,-0.00417 -3.14e-4,-0.011987 -0.0043,-0.017375 -0.0066,-0.00907 -0.01245,-0.00888 -0.07871,0.00255 -0.06139,0.010595 -0.07481,0.011272 -0.09454,0.00477 -0.05819,-0.019177 -0.06754,-0.1067524 -0.01444,-0.1351725 0.01758,-0.00941 0.21798,-0.044867 0.223332,-0.039515 0.0011,0.00107 0.0036,0.014058 0.0056,0.028863 0.0037,0.026884 0.0037,0.026922 -0.01629,0.030251 -0.169169,0.028224 -0.176304,0.029848 -0.179168,0.040802 -0.0033,0.012716 0.01214,0.023225 0.02921,0.019849 0.101363,-0.020048 0.131475,-0.022133 0.155436,-0.010763 0.05416,0.025698 0.05793,0.1078277 0.0062,0.1339067 -0.01971,0.00993 -0.07515,0.021711 -0.159145,0.033824 -0.02447,0.00353 -0.04883,0.00774 -0.05414,0.00937 -0.0064,0.00196 -0.01086,-0.00157 -0.01327,-0.010563 z m 0.711228,-0.012031 c 0.0044,-0.013866 0.02176,-0.069258 0.03868,-0.1230929 0.01692,-0.053835 0.03378,-0.1009131 0.03748,-0.1046188 0.0037,-0.00371 0.0259,-0.00852 0.04934,-0.010703 0.03922,-0.00365 0.04315,-0.00298 0.04922,0.00834 0.0036,0.00677 0.0047,0.015335 0.0024,0.019035 -0.0025,0.00399 -0.0015,0.0051 0.0023,0.00272 0.0064,-0.00393 0.03855,0.034787 0.0784,0.094298 0.0049,0.00731 0.02048,0.028485 0.03464,0.047059 0.01416,0.018575 0.02431,0.035196 0.02257,0.036938 -0.0017,0.00174 -0.02028,0.00638 -0.0412,0.010314 l -0.03804,0.00715 -0.01373,-0.020037 -0.01373,-0.020036 -0.03695,0.00396 c -0.07073,0.00757 -0.07501,0.0094 -0.08223,0.035106 -0.006,0.021303 -0.009,0.023855 -0.03609,0.030888 -0.01626,0.00422 -0.03665,0.00772 -0.04531,0.00778 l -0.01573,1.144e-4 0.0079,-0.025212 z m 0.150348,-0.1030718 c 0.0102,-0.00204 0.01854,-0.00552 0.01854,-0.00773 0,-0.00221 -0.0086,-0.015675 -0.01904,-0.029917 l -0.01904,-0.025895 -0.0068,0.017311 c -0.0038,0.00952 -0.0086,0.024652 -0.01073,0.033624 -0.0043,0.017969 0.0011,0.019805 0.03712,0.012606 z M 22.974,6.6456677 c -0.0074,-0.031883 -0.03545,-0.2190352 -0.03313,-0.2213555 0.0014,-0.00139 0.02049,-0.00539 0.04245,-0.0089 l 0.03993,-0.00638 0.04888,0.04004 c 0.02689,0.022022 0.0532,0.044768 0.05848,0.050547 0.0053,0.00578 0.01255,0.010507 0.01617,0.010507 0.0066,0 0.006,-0.00795 -0.0054,-0.067029 -0.01055,-0.054646 -0.01012,-0.055492 0.03098,-0.060142 0.02564,-0.0029 0.03777,-0.00204 0.04082,0.0029 0.0024,0.00386 0.0073,0.028735 0.01089,0.055268 0.0036,0.026532 0.0105,0.069597 0.01532,0.095698 0.01446,0.078201 0.01444,0.078306 -0.02195,0.082923 -0.01713,0.00217 -0.03515,0.00501 -0.04004,0.0063 -0.0049,0.00129 -0.01958,-0.00724 -0.03263,-0.018964 -0.01305,-0.011721 -0.03676,-0.032324 -0.05268,-0.045784 -0.01592,-0.01346 -0.03242,-0.02781 -0.03665,-0.031889 -0.0042,-0.00408 -0.0092,-0.00742 -0.01109,-0.00742 -0.0052,0 -0.004,0.033195 0.0018,0.048554 0.0029,0.00755 0.0071,0.027375 0.0093,0.044049 l 0.0041,0.030315 -0.02269,0.00364 c -0.01248,0.002 -0.03101,0.00531 -0.04118,0.00734 -0.01598,0.00321 -0.01893,0.00182 -0.02174,-0.010224 z m 0.342999,-0.145584 c -0.0094,-0.054836 -0.01816,-0.1079083 -0.01954,-0.1179377 l -0.0025,-0.018235 0.04209,-0.00752 0.04209,-0.00752 0.02019,0.016859 c 0.0111,0.00927 0.04087,0.034061 0.06616,0.055086 l 0.04597,0.038227 -0.0044,-0.026363 c -0.01136,-0.068186 -0.01445,-0.097767 -0.01059,-0.1013488 0.0023,-0.00214 0.02089,-0.00576 0.04128,-0.00805 l 0.03708,-0.00415 0,0.018797 c 0,0.017519 0.0066,0.057608 0.0273,0.1657111 0.0046,0.024165 0.0072,0.045148 0.0057,0.046629 -0.0015,0.00148 -0.02053,0.00643 -0.04234,0.011002 l -0.03964,0.00831 -0.0387,-0.034176 c -0.07016,-0.061952 -0.08492,-0.07417 -0.08691,-0.071957 -0.0011,0.0012 0.0016,0.023544 0.0059,0.049646 0.01231,0.074191 0.01283,0.072182 -0.01967,0.076871 -0.0155,0.00224 -0.03364,0.00536 -0.04031,0.00694 -0.01137,0.0027 -0.0132,-0.00335 -0.02917,-0.096824 z"
       style="fill:#ff2401;fill-opacity:1" /></g></svg>