<?xml version="1.0" encoding="UTF-8" standalone="no"?>
<!-- Created with Inkscape (http://www.inkscape.org/) -->

<svg
   xmlns:dc="http://purl.org/dc/elements/1.1/"
   xmlns:cc="http://creativecommons.org/ns#"
   xmlns:rdf="http://www.w3.org/1999/02/22-rdf-syntax-ns#"
   xmlns:svg="http://www.w3.org/2000/svg"
   xmlns="http://www.w3.org/2000/svg"
   xmlns:sodipodi="http://sodipodi.sourceforge.net/DTD/sodipodi-0.dtd"
   xmlns:inkscape="http://www.inkscape.org/namespaces/inkscape"
   width="1000"
   height="1000"
   id="svg3879"
   version="1.1"
   inkscape:version="0.91 r13725"
   sodipodi:docname="1800m.svg">
  <defs
     id="defs3881" />
  <sodipodi:namedview
     id="base"
     pagecolor="#ffffff"
     bordercolor="#666666"
     borderopacity="1.0"
     inkscape:pageopacity="0.0"
     inkscape:pageshadow="2"
     inkscape:zoom="0.41109789"
     inkscape:cx="1327.7325"
     inkscape:cy="222"
     inkscape:document-units="px"
     inkscape:current-layer="layer1"
     showgrid="false"
     inkscape:window-width="1366"
     inkscape:window-height="705"
     inkscape:window-x="-8"
     inkscape:window-y="-8"
     inkscape:window-maximized="1" />
  <metadata
     id="metadata3884">
    <rdf:RDF>
      <cc:Work
         rdf:about="">
        <dc:format>image/svg+xml</dc:format>
        <dc:type
           rdf:resource="http://purl.org/dc/dcmitype/StillImage" />
        <dc:title></dc:title>
      </cc:Work>
    </rdf:RDF>
  </metadata>
  <g
     inkscape:label="Layer 1"
     inkscape:groupmode="layer"
     id="layer1"
     transform="translate(0,-52.362183)">
    <text
       xml:space="preserve"
       style="font-size:40px;font-style:normal;font-weight:normal;line-height:125%;letter-spacing:0px;word-spacing:0px;fill:#000000;fill-opacity:1;stroke:none;font-family:Sans"
       x="560"
       y="832.85712"
       id="text4491"
       sodipodi:linespacing="125%"
       transform="translate(0,52.362183)"><tspan
         sodipodi:role="line"
         id="tspan4493"
         x="560"
         y="832.85712" /></text>
    <path
       style="fill:none;fill-rule:evenodd;stroke:#cfcfcf;stroke-width:7.109;stroke-linecap:butt;stroke-linejoin:miter;stroke-opacity:1;stroke-miterlimit:4;stroke-dasharray:none"
       d="m 524.26917,610.42044 c -1.01015,-43.94163 -27.77919,-46.46702 -36.87057,-47.98224 -9.09137,-1.51523 -33.84011,5.55583 -46.97209,18.68782 -13.13198,13.13198 -103.54064,112.12693 -117.68277,123.23861 -14.14214,11.11168 -61.11423,12.12183 -74.75129,6.56599 -13.63706,-5.55584 -80.8122,-36.36549 -102.02541,-49.49748 -21.2132,-13.13198 -7.07107,-39.90102 -1.51523,-43.94163 5.55584,-4.04061 34.34519,-3.53553 51.01271,-3.53553 16.66751,0 29.29442,0 39.39595,-6.566 10.10152,-6.56599 27.77919,-14.14213 34.34518,-37.37564 6.56599,-23.23351 -9.09137,-56.06347 -21.2132,-69.19545 -12.12183,-13.13198 -46.46702,-38.3858 -59.599,-54.04316 -13.13198,-15.65737 -22.72843,-27.7792 -36.36549,-34.34519 -13.63706,-6.56599 -26.26397,-7.57614 -35.86042,-23.23351 -9.59645,-15.65736 5.55584,-28.78934 17.1726,-29.29442 11.61675,-0.50508 87.37819,14.14214 108.59139,17.17259 21.21321,3.03046 58.58885,11.11168 75.25637,11.11168 16.66752,0 56.56854,6.56599 66.67007,11.11168 10.10152,4.54569 19.1929,16.16244 16.66751,31.8198 -2.52538,15.65737 -2.0203,32.82996 -2.52538,44.95179 -0.50507,12.12183 16.66752,22.22336 26.26397,22.72844 9.59645,0.50507 19.69797,5.05076 26.76904,-0.50508 7.07107,-5.55584 13.63706,-11.61676 16.66752,-25.75889 3.03046,-14.14214 7.57614,-84.34774 10.6066,-105.05587 3.03046,-20.70812 24.74874,-46.46701 40.91118,-42.4264 16.16244,4.04061 45.45686,43.94163 62.12438,51.0127 16.66752,7.07107 40.91118,0 53.53808,-5.55584 12.62691,-5.55584 31.31473,-7.57614 42.42641,3.03046 11.11168,10.6066 23.73859,24.74874 22.22336,41.92133 -1.51523,17.17259 -1.01015,81.82236 -10.10153,132.83506 -9.09137,51.0127 -16.66751,94.44926 -28.28427,109.09647 -11.61675,14.64722 -20.20305,11.61676 -33.84011,8.5863 -13.63706,-3.03046 -50.00255,-5.05076 -56.06347,-1.01015 -6.06091,4.04061 -23.73858,27.27412 -28.28427,38.89087 -4.54568,11.61676 -18.68781,32.32488 -17.67766,2.52538 1.01015,-29.7995 -1.01016,-95.96449 -1.01016,-95.96449 z"
       id="path4159"
       inkscape:connector-curvature="0"
       sodipodi:nodetypes="cssssssssssssssssssssssssssssssssssc" />
    <path
       style="fill:none;fill-rule:evenodd;stroke:#cfcfcf;stroke-width:7.10900021;stroke-linecap:butt;stroke-linejoin:miter;stroke-miterlimit:4;stroke-dasharray:none;stroke-opacity:1"
       d="m 524.26917,610.42044 c -1.01015,-43.94163 -27.65849,-47.68782 -36.87057,-47.98224 -30.12754,-0.96287 -58.47446,35.24682 -54.35834,66.06465 5.06914,37.95328 -3.43872,104.06175 17.82381,126.77059 13.49549,14.41348 124.1627,55.12385 213.21961,74.21277 37.06464,7.94463 49.69378,22.52188 89.34543,17.80985 37.0265,-4.40007 55.61547,-70.72081 58.20813,-202.90142 0.74018,-37.73601 3.17208,-97.49335 -18.69864,-95.84913 -14.15842,1.06442 -30.33052,-6.73148 -49.66492,9.14986 -16.88013,13.86539 -25.45987,49.37301 -40.00609,68.19245 -18.65382,24.13375 -34.12275,38.50471 -34.12275,38.50471 -17.30104,7.08265 -28.20305,4.61676 -41.84011,1.5863 -13.63706,-3.03046 -50.00255,-5.05076 -56.06347,-1.01015 -6.06091,4.04061 -23.73858,27.27412 -28.28427,38.89087 -4.54568,11.61676 -18.68781,32.32488 -17.67766,2.52538 1.01015,-29.7995 -1.01016,-95.96449 -1.01016,-95.96449 z"
       id="path4159-6-0"
       inkscape:connector-curvature="0"
       sodipodi:nodetypes="cssssssssssssssc" />
    <path
       style="fill:#cfcfcf;fill-opacity:1;fill-rule:evenodd;stroke:none;stroke-width:1px;stroke-linecap:butt;stroke-linejoin:miter;stroke-opacity:1"
       d="m 511.2382,646.48289 0,57.6292 -33.94113,0 -0.70711,-56.9221 z"
       id="path4191"
       inkscape:connector-curvature="0"
       sodipodi:nodetypes="ccccc" />
    <path
       style="fill:none;fill-rule:evenodd;stroke:#002ede;stroke-width:7.10900021;stroke-linecap:butt;stroke-linejoin:miter;stroke-miterlimit:4;stroke-dasharray:none;stroke-opacity:1"
       d="m 524.26917,610.42044 c -1.01015,-43.94163 -27.77919,-46.46702 -36.87057,-47.98224 -44.21133,-42.46499 -27.6109,-51.65664 -19.69797,-89.90358 3.03046,-14.14214 7.57614,-84.34774 10.6066,-105.05587 3.03046,-20.70812 24.74874,-46.46701 40.91118,-42.4264 16.16244,4.04061 45.45686,43.94163 62.12438,51.0127 16.66752,7.07107 40.91118,0 53.53808,-5.55584 12.62691,-5.55584 31.31473,-7.57614 42.42641,3.03046 11.11168,10.6066 23.73859,24.74874 22.22336,41.92133 -1.51523,17.17259 -1.01015,81.82236 -10.10153,132.83506 -9.09137,51.0127 -16.66751,94.44926 -28.28427,109.09647 -11.61675,14.64722 -20.20305,11.61676 -33.84011,8.5863 -13.63706,-3.03046 -50.00255,-5.05076 -56.06347,-1.01015 -6.06091,4.04061 -23.73858,27.27412 -28.28427,38.89087 -4.54568,11.61676 -18.68781,32.32488 -17.67766,2.52538 1.01015,-29.7995 -1.01016,-95.96449 -1.01016,-95.96449 z"
       id="path4159-6"
       inkscape:connector-curvature="0"
       sodipodi:nodetypes="cccssssssssssssc" />
  </g>
</svg>
