<?xml version="1.0" encoding="UTF-8" standalone="no"?>
<!-- Creator: CorelDRAW -->

<svg
   xmlns:dc="http://purl.org/dc/elements/1.1/"
   xmlns:cc="http://creativecommons.org/ns#"
   xmlns:rdf="http://www.w3.org/1999/02/22-rdf-syntax-ns#"
   xmlns:svg="http://www.w3.org/2000/svg"
   xmlns="http://www.w3.org/2000/svg"
   xmlns:sodipodi="http://sodipodi.sourceforge.net/DTD/sodipodi-0.dtd"
   xmlns:inkscape="http://www.inkscape.org/namespaces/inkscape"
   xml:space="preserve"
   width="50.8mm"
   height="25.4mm"
   style="shape-rendering:geometricPrecision; text-rendering:geometricPrecision; image-rendering:optimizeQuality; fill-rule:evenodd; clip-rule:evenodd"
   viewBox="0 0 50.8 25.4"
   id="svg3097"
   version="1.1"
   inkscape:version="0.48.4 r9939"
   sodipodi:docname="anschutz1827f.svg"><metadata
     id="metadata3121"><rdf:RDF><cc:Work
         rdf:about=""><dc:format>image/svg+xml</dc:format><dc:type
           rdf:resource="http://purl.org/dc/dcmitype/StillImage" /><dc:title></dc:title></cc:Work></rdf:RDF></metadata><sodipodi:namedview
     pagecolor="#ffffff"
     bordercolor="#666666"
     borderopacity="1"
     objecttolerance="10"
     gridtolerance="10"
     guidetolerance="10"
     inkscape:pageopacity="0"
     inkscape:pageshadow="2"
     inkscape:window-width="1545"
     inkscape:window-height="1028"
     id="namedview3119"
     showgrid="false"
     inkscape:zoom="5.6568543"
     inkscape:cx="111.26618"
     inkscape:cy="30.776321"
     inkscape:window-x="10"
     inkscape:window-y="24"
     inkscape:window-maximized="0"
     inkscape:current-layer="svg3097"
     showguides="true"
     inkscape:guide-bbox="true"><sodipodi:guide
       orientation="0,1"
       position="112.44524,57.321433"
       id="guide4289" /></sodipodi:namedview><defs
     id="defs3099"><style
       type="text/css"
       id="style3101">
    .fil0 {fill:#E77817}
    .fil2 {fill:#765531}
    .fil1 {fill:#8D683B}
   </style><filter
       inkscape:collect="always"
       id="filter3847"
       x="-0.006064587"
       width="1.0121292"
       y="-0.56338798"
       height="2.126776"><feGaussianBlur
         inkscape:collect="always"
         stdDeviation="0.052963382"
         id="feGaussianBlur3849" /></filter><filter
       color-interpolation-filters="sRGB"
       inkscape:collect="always"
       id="filter3847-8"
       x="-0.0060645868"
       width="1.0121292"
       y="-0.56338799"
       height="2.126776"><feGaussianBlur
         inkscape:collect="always"
         stdDeviation="0.052963382"
         id="feGaussianBlur3849-1" /></filter><filter
       color-interpolation-filters="sRGB"
       inkscape:collect="always"
       id="filter3847-8-0"
       x="-0.0060645868"
       width="1.0121292"
       y="-0.56338799"
       height="2.126776"><feGaussianBlur
         inkscape:collect="always"
         stdDeviation="0.052963382"
         id="feGaussianBlur3849-1-0" /></filter><filter
       color-interpolation-filters="sRGB"
       inkscape:collect="always"
       id="filter3847-8-7"
       x="-0.0060645868"
       width="1.0121292"
       y="-0.56338799"
       height="2.126776"><feGaussianBlur
         inkscape:collect="always"
         stdDeviation="0.052963382"
         id="feGaussianBlur3849-1-3" /></filter><filter
       color-interpolation-filters="sRGB"
       inkscape:collect="always"
       id="filter3847-8-6"
       x="-0.0060645868"
       width="1.0121292"
       y="-0.56338799"
       height="2.126776"><feGaussianBlur
         inkscape:collect="always"
         stdDeviation="0.052963382"
         id="feGaussianBlur3849-1-08" /></filter></defs><rect
     style="fill:#7a7a76;fill-opacity:1;stroke:none"
     id="rect5049"
     width="2.8165467"
     height="1.8129497"
     x="59.503597"
     y="18.32374"
     transform="scale(0.28222222,0.28222222)" /><path
     style="fill:#090a0c;fill-opacity:1;stroke:none"
     d="m 58.176259,20.185251 3.383094,-0.01619 -0.01619,1.165468 -0.485612,0 0.03237,0.776979 c 0,0 0,0.776978 0.291367,1.489208 0.291367,0.712231 1.392086,1.651079 2.201439,2.169065 0.809352,0.517986 1.359712,0.874101 2.460432,0.906475 1.100719,0.03237 8.643884,0.129496 8.643884,0.129496 l 0,1.489209 -0.03237,0.323741 0,0.291367 -17.158273,0 0.06475,-1.845324 -0.388489,0.03237 0,-4.305755 1.035972,0 z"
     id="path5051"
     inkscape:connector-curvature="0"
     transform="scale(0.28222222,0.28222222)"
     sodipodi:nodetypes="cccccssscccccccccc" /><path
     style="fill:#0d0c0d;fill-opacity:1;stroke:none"
     d="m 53.643885,23.503597 1.26762,0 -0.005,-0.388489 1.715827,0 -0.03237,1.100719 c -0.276642,-0.01922 0.16726,0.232011 0.291367,0.453238 l 0.615108,0.06475 -0.09712,1.715827 -0.744605,-0.09712 -0.03237,1.327338 -2.266187,0 -0.679856,-0.16187 z"
     id="path5053"
     inkscape:connector-curvature="0"
     transform="scale(0.28222222,0.28222222)"
     sodipodi:nodetypes="ccccccccccccc" /><path
     sodipodi:type="arc"
     style="fill:#7a7a76;fill-opacity:1;stroke:none"
     id="path4539"
     sodipodi:cx="58.176258"
     sodipodi:cy="23.438848"
     sodipodi:rx="1.6510792"
     sodipodi:ry="1.5539569"
     d="m 59.827337,23.438848 a 1.6510792,1.5539569 0 1 1 -3.302158,0 1.6510792,1.5539569 0 1 1 3.302158,0 z"
     transform="scale(0.28222222,0.28222222)" /><path
     sodipodi:type="arc"
     style="fill:#3f4044;fill-opacity:1;stroke:none"
     id="path5055"
     sodipodi:cx="58.111206"
     sodipodi:cy="23.384436"
     sodipodi:rx="0.82411009"
     sodipodi:ry="0.82411009"
     d="m 58.935316,23.384436 a 0.82411009,0.82411009 0 1 1 -1.64822,0 0.82411009,0.82411009 0 1 1 1.64822,0 z"
     transform="matrix(0.27046296,0,0,0.27046296,0.69949625,0.28467456)" /><rect
     style="fill:#c9c7c5;fill-opacity:1;stroke:none"
     id="rect5057"
     width="0.16797601"
     height="1.2888927"
     x="15.557163"
     y="6.5220804" /></svg>