<?xml version="1.0" encoding="UTF-8" standalone="no"?>
<!-- Creator: CorelDRAW -->

<svg
   xmlns:dc="http://purl.org/dc/elements/1.1/"
   xmlns:cc="http://creativecommons.org/ns#"
   xmlns:rdf="http://www.w3.org/1999/02/22-rdf-syntax-ns#"
   xmlns:svg="http://www.w3.org/2000/svg"
   xmlns="http://www.w3.org/2000/svg"
   xmlns:sodipodi="http://sodipodi.sourceforge.net/DTD/sodipodi-0.dtd"
   xmlns:inkscape="http://www.inkscape.org/namespaces/inkscape"
   xml:space="preserve"
   width="50.8mm"
   height="25.4mm"
   style="shape-rendering:geometricPrecision; text-rendering:geometricPrecision; image-rendering:optimizeQuality; fill-rule:evenodd; clip-rule:evenodd"
   viewBox="0 0 50.8 25.4"
   id="svg2"
   version="1.1"
   inkscape:version="0.48.4 r9939"
   sodipodi:docname="bi7.svg"><metadata
     id="metadata29"><rdf:RDF><cc:Work
         rdf:about=""><dc:format>image/svg+xml</dc:format><dc:type
           rdf:resource="http://purl.org/dc/dcmitype/StillImage" /><dc:title></dc:title></cc:Work></rdf:RDF></metadata><sodipodi:namedview
     pagecolor="#ffffff"
     bordercolor="#666666"
     borderopacity="1"
     objecttolerance="10"
     gridtolerance="10"
     guidetolerance="10"
     inkscape:pageopacity="0"
     inkscape:pageshadow="2"
     inkscape:window-width="1920"
     inkscape:window-height="1056"
     id="namedview27"
     showgrid="false"
     inkscape:zoom="11.313709"
     inkscape:cx="72.237557"
     inkscape:cy="60.912932"
     inkscape:window-x="0"
     inkscape:window-y="24"
     inkscape:window-maximized="1"
     inkscape:current-layer="svg2" /><defs
     id="defs4"><style
       type="text/css"
       id="style6">
    .fil0 {fill:#1F1A17}
    .fil4 {fill:#330000}
    .fil2 {fill:#996633}
    .fil1 {fill:#1F1A17;fill-rule:nonzero}
    .fil3 {fill:#FFCC99;fill-opacity:0.239216}
   </style><clipPath
       id="id0"><rect
         x="0.3522"
         y="4.9074"
         width="47.1913"
         height="11.9326"
         id="rect9" /></clipPath></defs><path
     transform="matrix(0.28222222,0,0,0.28222222,0.53632179,0.00935438)"
     sodipodi:type="arc"
     style="fill:#2f302f;fill-opacity:1;fill-rule:evenodd;stroke:none"
     id="path5494-3"
     sodipodi:cx="66.379646"
     sodipodi:cy="27.034351"
     sodipodi:rx="1.0606601"
     sodipodi:ry="1.0275146"
     d="m 67.440306,27.034351 a 1.0606601,1.0275146 0 1 1 -2.12132,0 1.0606601,1.0275146 0 1 1 2.12132,0 z" /><path
     sodipodi:type="arc"
     style="fill:#2f302f;fill-opacity:1;stroke:none"
     id="path5494"
     sodipodi:cx="66.379646"
     sodipodi:cy="27.034351"
     sodipodi:rx="1.0606601"
     sodipodi:ry="1.0275146"
     d="m 67.440306,27.034351 a 1.0606601,1.0275146 0 1 1 -2.12132,0 1.0606601,1.0275146 0 1 1 2.12132,0 z"
     transform="matrix(0.28222222,0,0,0.28222222,-0.67351921,0)" /><rect
     style="fill:#a1a2a2;fill-opacity:1;stroke:none"
     id="rect5516"
     width="0.65481031"
     height="0.32428703"
     x="16.307896"
     y="5.7057996" /><path
     style="fill:#1d1b1a;fill-opacity:1;stroke:none"
     d="m 19.818926,8.0755893 0.01247,-0.4801943 -2.968473,0 -0.0062,-1.1973676 c 0,0 0.293105,0.018708 0.342996,-0.012471 0.04989,-0.031181 0.0686,-0.2868693 0.0686,-0.2868693 l 0.735882,-0.012471 0,-0.087308 -1.833469,-0.012471 -0.0062,0.430304 -0.573739,0.00624 -0.06236,0.3367594 0.02495,1.016515 0.548794,0 0,0.3180509 z"
     id="path5492"
     inkscape:connector-curvature="0"
     sodipodi:nodetypes="cccccccccccccccc" /><rect
     style="fill:#4e4f52;fill-opacity:1;stroke:none"
     id="rect5518"
     width="0.043654025"
     height="1.3220932"
     x="16.070917"
     y="6.4416814" /><path
     sodipodi:type="arc"
     style="fill:#a1a2a2;fill-opacity:1;stroke:none"
     id="path5514"
     sodipodi:cx="58.10429"
     sodipodi:cy="24.3827"
     sodipodi:rx="1.3810679"
     sodipodi:ry="1.3810679"
     d="m 59.485358,24.3827 a 1.3810679,1.3810679 0 1 1 -2.762136,0 1.3810679,1.3810679 0 1 1 2.762136,0 z"
     transform="matrix(0.28222222,0,0,0.28222222,-0.67351921,0)" /></svg>