<?xml version="1.0" encoding="UTF-8" standalone="no"?>
<!-- Created with Inkscape (http://www.inkscape.org/) -->

<svg
   xmlns:dc="http://purl.org/dc/elements/1.1/"
   xmlns:cc="http://creativecommons.org/ns#"
   xmlns:rdf="http://www.w3.org/1999/02/22-rdf-syntax-ns#"
   xmlns:svg="http://www.w3.org/2000/svg"
   xmlns="http://www.w3.org/2000/svg"
   xmlns:sodipodi="http://sodipodi.sourceforge.net/DTD/sodipodi-0.dtd"
   xmlns:inkscape="http://www.inkscape.org/namespaces/inkscape"
   width="1000"
   height="1000"
   id="svg3879"
   version="1.1"
   inkscape:version="0.91 r13725"
   sodipodi:docname="3000m.svg">
  <defs
     id="defs3881" />
  <sodipodi:namedview
     id="base"
     pagecolor="#ffffff"
     bordercolor="#666666"
     borderopacity="1.0"
     inkscape:pageopacity="0.0"
     inkscape:pageshadow="2"
     inkscape:zoom="0.21157089"
     inkscape:cx="591.6954"
     inkscape:cy="830.57968"
     inkscape:document-units="px"
     inkscape:current-layer="layer1"
     showgrid="false"
     inkscape:window-width="1366"
     inkscape:window-height="705"
     inkscape:window-x="-8"
     inkscape:window-y="-8"
     inkscape:window-maximized="1"
     showguides="false" />
  <metadata
     id="metadata3884">
    <rdf:RDF>
      <cc:Work
         rdf:about="">
        <dc:format>image/svg+xml</dc:format>
        <dc:type
           rdf:resource="http://purl.org/dc/dcmitype/StillImage" />
        <dc:title></dc:title>
      </cc:Work>
    </rdf:RDF>
  </metadata>
  <g
     inkscape:label="Layer 1"
     inkscape:groupmode="layer"
     id="layer1"
     transform="translate(0,-52.362183)">
    <text
       xml:space="preserve"
       style="font-size:40px;font-style:normal;font-weight:normal;line-height:125%;letter-spacing:0px;word-spacing:0px;fill:#000000;fill-opacity:1;stroke:none;font-family:Sans"
       x="560"
       y="832.85712"
       id="text4491"
       sodipodi:linespacing="125%"
       transform="translate(0,52.362183)"><tspan
         sodipodi:role="line"
         id="tspan4493"
         x="560"
         y="832.85712" /></text>
    <path
       style="fill:none;fill-rule:evenodd;stroke:#cfcfcf;stroke-width:7.109;stroke-linecap:butt;stroke-linejoin:miter;stroke-opacity:1;stroke-miterlimit:4;stroke-dasharray:none"
       d="m 605.69515,206.4566 c 21.8926,29.79826 58.98839,86.35413 63.85341,91.82728 4.86502,5.47315 24.32511,-10.33818 36.48766,-12.16256 12.16255,-1.82438 26.75761,10.33817 35.2714,29.19013 8.51379,18.85196 -6.6894,35.27141 -18.24383,41.96081 -11.55442,6.6894 -34.66327,13.98694 -37.70391,17.6357 -3.04064,3.64877 -13.98694,35.87953 -15.81132,46.2177 -1.82439,10.33818 -9.12192,31.01452 -16.41945,37.70392 -7.29753,6.6894 -24.93323,12.77068 -32.83889,10.9463 -7.90566,-1.82438 -17.63571,-24.93324 -21.8926,-35.87953 -4.25689,-10.9463 -26.14949,-20.06822 -38.31204,-13.37881 -12.16255,6.6894 -38.31204,27.36574 -55.94775,43.17706 -17.92744,14.62893 -54.31947,37.39351 -86.62429,57.9558 -29.82743,18.98541 -55.63232,36.99033 -72.70515,24.14144 -17.63571,-13.98694 -26.75762,-24.32511 -37.70392,-37.09579 -10.9463,-12.77068 3.64877,-32.23077 12.16255,-32.8389 8.51379,-0.60812 39.5283,6.68941 54.12337,4.2569 14.59506,-2.43251 30.40638,-18.24383 30.40638,-30.40638 0,-12.16256 -6.08128,-43.7852 -28.582,-51.69086 -22.50072,-7.90566 -44.39332,-0.60812 -60.20464,20.06822 -15.81132,20.67634 -26.14949,33.44702 -34.05515,42.56893 -7.90566,9.12192 -22.50072,1.82439 -28.582,-6.08127 -6.08128,-7.90566 -25.54136,-43.7852 -31.01451,-57.77213 -5.47315,-13.98694 1.21625,-50.4746 0.60813,-67.50217 -0.60813,-17.02758 -17.6357,-34.66328 -28.582,-40.13643 -10.9463,-5.47315 -28.582,1.21626 -30.40639,14.59507 -1.82438,13.3788 9.12192,21.28446 14.59507,28.582 5.47315,7.29753 4.25689,13.98693 -1.21626,23.71697 -5.47315,9.73005 -17.6357,35.87954 -17.6357,46.21771 0,10.33817 7.29753,21.28447 17.6357,27.97387 10.33817,6.6894 23.71698,16.41945 27.97388,26.75762 4.25689,10.33817 12.77068,32.23076 21.28446,44.39332 8.51379,12.16255 29.79826,36.48766 40.74456,45.00144 10.94629,8.51379 38.31204,23.10885 50.47459,32.8389 12.16256,9.73004 18.85196,22.50072 -1.82438,34.05515 -20.67634,11.55442 -46.82583,17.02757 -46.82583,27.97387 0,10.9463 17.6357,27.36574 26.75762,29.19013 9.12191,1.82438 26.75761,7.90566 34.66327,13.98693 7.90566,6.08128 -1.21625,20.67634 -9.73004,29.19013 -8.51379,8.51379 -24.32511,22.50072 -24.32511,33.44702 0,10.9463 9.73005,24.93324 16.41945,33.44702 6.68941,8.51379 15.20319,29.19013 14.59507,43.17707 -0.60813,13.98693 0.60812,27.36574 1.21625,34.05515 0.60813,6.6894 23.71698,31.62264 35.87953,34.66327 12.16256,3.04064 32.23077,3.04064 36.48766,-19.46008 4.2569,-22.50072 -7.90566,-50.4746 -11.55442,-65.67779 -3.64877,-15.20319 4.25689,-26.75762 12.16255,-31.01451 7.90566,-4.25689 12.16255,-29.79825 6.6894,-36.48766 -5.47314,-6.6894 -32.23076,-32.23077 -41.35268,-43.17706 -9.12191,-10.9463 4.2569,-30.40639 10.33817,-35.27141 6.08128,-4.86502 23.71698,-12.77068 33.44703,-12.77068 9.73004,0 19.46008,-15.81132 15.20319,-24.93323 -4.2569,-9.12192 -26.75762,-43.17707 -23.10885,-50.4746 3.64876,-7.29753 29.79825,-38.92017 42.56893,-46.82583 12.77068,-7.90566 42.56894,-23.10885 53.51524,-24.32511 10.94629,-1.21625 74.19157,4.2569 88.17851,6.08128 13.98693,1.82438 39.5283,12.16255 49.25834,20.06821 9.73004,7.90566 43.17706,44.39332 45.00145,52.90711 1.82438,8.51379 1.82438,31.62264 -11.55443,38.92017 -13.37881,7.29753 -71.15094,8.51379 -93.04353,18.24383 -21.8926,9.73004 -55.94775,38.92017 -63.85341,63.24528 -7.90566,24.3251 7.29753,72.97532 41.96081,61.42089 34.66328,-11.55442 65.06966,-37.09579 75.40783,-52.9071 10.33817,-15.81132 56.55587,-59.59652 69.32656,-67.50218 12.77068,-7.90566 52.29897,-27.36574 65.67778,-52.29897 13.37881,-24.93324 7.29754,-58.98839 16.41945,-77.84035 9.12192,-18.85195 30.40638,-31.01451 34.66328,-44.39331 4.25689,-13.37881 -1.82439,-54.12337 1.82438,-66.28592 3.64877,-12.16255 13.37881,-55.94775 15.81132,-76.01596 2.43251,-20.06821 -4.25689,-34.05515 -24.93323,-35.87953 -20.67635,-1.82438 -42.56894,2.43251 -48.65022,13.98694 -6.08127,11.55442 -13.37881,64.46153 -13.98693,75.40783 -0.60813,10.94629 1.82438,37.70391 7.29753,47.43395 5.47315,9.73005 25.54136,32.8389 23.71698,49.86647 -1.82439,17.02758 -7.29754,40.13643 -32.8389,45.00145 -25.54136,4.86502 -45.00144,-14.59506 -41.96081,-34.66328 3.04064,-20.06821 17.02758,-18.24383 23.10886,-32.23076 6.08127,-13.98694 8.51378,-28.582 6.6894,-37.09579 -1.82438,-8.51379 -21.8926,-17.6357 -42.56894,-28.582 -20.67634,-10.9463 -55.33961,-45.60958 -65.06966,-58.38026 -9.73004,-12.77068 -65.06966,-94.86791 -72.97532,-108.85485 -7.90566,-13.98694 1.82439,-34.05515 9.12192,-36.48766 7.29753,-2.43251 25.54136,-9.73004 45.60957,21.28447 z"
       id="path4231"
       inkscape:connector-curvature="0"
       sodipodi:nodetypes="csssssssssscscssssssssssssssssssssssssssssssssssssssssssssssssssssssssssssssssssssc" />
    <path
       style="fill:none;fill-rule:evenodd;stroke:#cfcfcf;stroke-width:7.10900021;stroke-linecap:butt;stroke-linejoin:miter;stroke-miterlimit:4;stroke-dasharray:none;stroke-opacity:1"
       d="m 605.69515,206.4566 c 21.8926,29.79826 58.98839,86.35413 63.85341,91.82728 4.86502,5.47315 24.32511,-10.33818 36.48766,-12.16256 12.16255,-1.82438 26.75761,10.33817 35.2714,29.19013 8.51379,18.85196 -6.6894,35.27141 -18.24383,41.96081 -11.55442,6.6894 -34.66327,13.98694 -37.70391,17.6357 -3.04064,3.64877 -13.98694,35.87953 -15.81132,46.2177 -1.82439,10.33818 -9.12192,31.01452 -16.41945,37.70392 -7.29753,6.6894 -24.93323,12.77068 -32.83889,10.9463 -7.90566,-1.82438 -17.63571,-24.93324 -21.8926,-35.87953 -4.25689,-10.9463 -26.14949,-20.06822 -38.31204,-13.37881 -12.16255,6.6894 -38.31204,27.36574 -55.94775,43.17706 -17.92744,14.62893 -54.31947,37.39351 -86.62429,57.9558 -29.82743,18.98541 -55.63232,36.99033 -72.70515,24.14144 -17.63571,-13.98694 -26.75762,-24.32511 -37.70392,-37.09579 -10.9463,-12.77068 3.64877,-32.23077 12.16255,-32.8389 8.51379,-0.60812 39.5283,6.68941 54.12337,4.2569 14.59506,-2.43251 30.40638,-18.24383 30.40638,-30.40638 0,-12.16256 -6.08128,-43.7852 -28.582,-51.69086 -22.50072,-7.90566 -44.39332,-0.60812 -60.20464,20.06822 -15.81132,20.67634 -26.14949,33.44702 -34.05515,42.56893 -7.90566,9.12192 -23.38448,2.4315 -28.582,-6.08127 -8.05217,-13.18826 -17.01105,-17.18986 -26.89993,-8.392 -19.18291,17.06649 -16.85988,30.22549 0.14231,55.21783 8.51379,12.16255 29.79826,36.48766 40.74456,45.00144 10.94629,8.51379 38.31204,23.10885 50.47459,32.8389 12.16256,9.73004 18.85196,22.50072 -1.82438,34.05515 -20.67634,11.55442 -46.82583,17.02757 -46.82583,27.97387 0,10.9463 17.6357,27.36574 26.75762,29.19013 9.12191,1.82438 25.58206,9.86226 34.66327,13.98693 l 15.41711,7.00243 c 14.28138,6.48657 25.32745,-25.24626 31.40872,-30.11128 6.08128,-4.86502 23.71698,-12.77068 33.44703,-12.77068 9.73004,0 19.46008,-15.81132 15.20319,-24.93323 -4.2569,-9.12192 -26.75762,-43.17707 -23.10885,-50.4746 3.64876,-7.29753 29.79825,-38.92017 42.56893,-46.82583 12.77068,-7.90566 42.56894,-23.10885 53.51524,-24.32511 10.94629,-1.21625 74.19157,4.2569 88.17851,6.08128 13.98693,1.82438 39.5283,12.16255 49.25834,20.06821 9.73004,7.90566 44.08925,48.65022 45.00145,52.90711 0.91219,4.2569 25.47028,19.83652 25.47028,19.83652 16.77136,13.06171 33.87441,21.10944 58.45133,-10.7146 18.54198,-52.16342 10.5886,-83.38065 51.08273,-122.23366 4.25689,-13.37881 -1.82439,-54.12337 1.82438,-66.28592 3.64877,-12.16255 13.37881,-55.94775 15.81132,-76.01596 2.43251,-20.06821 -4.25689,-34.05515 -24.93323,-35.87953 -20.67635,-1.82438 -42.56894,2.43251 -48.65022,13.98694 -6.08127,11.55442 -13.37881,64.46153 -13.98693,75.40783 0,0 -17.41968,33.38412 -56.55588,9.73004 -20.67634,-10.9463 -55.33961,-45.60958 -65.06966,-58.38026 -9.73004,-12.77068 -65.06966,-94.86791 -72.97532,-108.85485 -7.90566,-13.98694 1.82439,-34.05515 9.12192,-36.48766 7.29753,-2.43251 25.54136,-9.73004 45.60957,21.28447 z"
       id="path4231-5"
       inkscape:connector-curvature="0"
       sodipodi:nodetypes="csssssssssscscssssssssscssssssssssssssszsccssssccsssc" />
    <path
       style="fill:none;fill-rule:evenodd;stroke:#cfcfcf;stroke-width:7.10900021;stroke-linecap:butt;stroke-linejoin:miter;stroke-miterlimit:4;stroke-dasharray:none;stroke-opacity:1"
       d="m 605.69515,206.4566 c 21.8926,29.79826 58.98839,86.35413 63.85341,91.82728 4.86502,5.47315 24.32511,-10.33818 36.48766,-12.16256 12.16255,-1.82438 26.75761,10.33817 35.2714,29.19013 8.51379,18.85196 -6.6894,35.27141 -18.24383,41.96081 -11.55442,6.6894 -34.66327,13.98694 -37.70391,17.6357 -3.04064,3.64877 -13.98694,35.87953 -15.81132,46.2177 -1.82439,10.33818 -9.12192,31.01452 -16.41945,37.70392 -7.29753,6.6894 -24.93323,12.77068 -32.83889,10.9463 -7.90566,-1.82438 -17.63571,-24.93324 -21.8926,-35.87953 -4.25689,-10.9463 -26.14949,-20.06822 -38.31204,-13.37881 -12.16255,6.6894 -38.31204,27.36574 -55.94775,43.17706 -17.92744,14.62893 -54.31947,37.39351 -86.62429,57.9558 -29.82743,18.98541 -55.63232,36.99033 -72.70515,24.14144 -17.63571,-13.98694 -26.75762,-24.32511 -37.70392,-37.09579 -10.9463,-12.77068 3.64877,-32.23077 12.16255,-32.8389 8.51379,-0.60812 39.5283,6.68941 54.12337,4.2569 14.59506,-2.43251 30.40638,-18.24383 30.40638,-30.40638 0,-12.16256 -6.08128,-43.7852 -28.582,-51.69086 -22.50072,-7.90566 -44.39332,-0.60812 -60.20464,20.06822 -15.81132,20.67634 -26.14949,33.44702 -34.05515,42.56893 -7.90566,9.12192 -22.50072,1.82439 -28.582,-6.08127 -24.69277,-31.18169 -55.93456,8.17139 -26.75762,46.82583 8.51379,12.16255 29.79826,36.48766 40.74456,45.00144 10.94629,8.51379 38.31204,23.10885 50.47459,32.8389 12.16256,9.73004 18.85196,22.50072 -1.82438,34.05515 -20.67634,11.55442 -46.82583,17.02757 -46.82583,27.97387 0,10.9463 17.6357,27.36574 26.75762,29.19013 9.12191,1.82438 26.75761,7.90566 34.66327,13.98693 7.90566,6.08128 -1.21625,20.67634 -9.73004,29.19013 -8.51379,8.51379 -24.32511,22.50072 -24.32511,33.44702 0,10.9463 9.73005,24.93324 16.41945,33.44702 6.68941,8.51379 15.20319,29.19013 14.59507,43.17707 -0.60813,13.98693 0.60812,27.36574 1.21625,34.05515 0.60813,6.6894 23.71698,31.62264 35.87953,34.66327 12.16256,3.04064 32.23077,3.04064 36.48766,-19.46008 4.2569,-22.50072 -7.90566,-50.4746 -11.55442,-65.67779 -3.64877,-15.20319 4.25689,-26.75762 12.16255,-31.01451 7.90566,-4.25689 12.16255,-29.79825 6.6894,-36.48766 -5.47314,-6.6894 -32.23076,-32.23077 -41.35268,-43.17706 -9.12191,-10.9463 4.2569,-30.40639 10.33817,-35.27141 6.08128,-4.86502 23.71698,-12.77068 33.44703,-12.77068 9.73004,0 19.46008,-15.81132 15.20319,-24.93323 -4.2569,-9.12192 -26.75762,-43.17707 -23.10885,-50.4746 3.64876,-7.29753 29.79825,-38.92017 42.56893,-46.82583 12.77068,-7.90566 42.56894,-23.10885 53.51524,-24.32511 10.94629,-1.21625 74.19157,4.2569 88.17851,6.08128 13.98693,1.82438 39.5283,12.16255 49.25834,20.06821 9.73004,7.90566 43.17706,44.39332 45.00145,52.90711 1.82438,8.51379 1.82438,31.62264 -11.55443,38.92017 -13.37881,7.29753 -71.15094,8.51379 -93.04353,18.24383 -21.8926,9.73004 -55.94775,38.92017 -63.85341,63.24528 -7.90566,24.3251 7.29753,72.97532 41.96081,61.42089 34.66328,-11.55442 65.06966,-37.09579 75.40783,-52.9071 10.33817,-15.81132 56.55587,-59.59652 69.32656,-67.50218 12.77068,-7.90566 52.29897,-27.36574 65.67778,-52.29897 13.37881,-24.93324 7.29754,-58.98839 16.41945,-77.84035 9.12192,-18.85195 30.40638,-31.01451 34.66328,-44.39331 4.25689,-13.37881 -1.82439,-54.12337 1.82438,-66.28592 3.64877,-12.16255 13.37881,-55.94775 15.81132,-76.01596 2.43251,-20.06821 -4.25689,-34.05515 -24.93323,-35.87953 -20.67635,-1.82438 -42.56894,2.43251 -48.65022,13.98694 -6.08127,11.55442 -13.37881,64.46153 -13.98693,75.40783 -15.52501,33.45946 -56.55588,9.73004 -56.55588,9.73004 -20.67634,-10.9463 -55.33961,-45.60958 -65.06966,-58.38026 -9.73004,-12.77068 -65.06966,-94.86791 -72.97532,-108.85485 -7.90566,-13.98694 1.82439,-34.05515 9.12192,-36.48766 7.29753,-2.43251 25.54136,-9.73004 45.60957,21.28447 z"
       id="path4231-6"
       inkscape:connector-curvature="0"
       sodipodi:nodetypes="csssssssssscscsssssssccsssssssssssssssssssssssssssssssssssssssccsssc" />
    <path
       style="fill:#cfcfcf;fill-rule:evenodd;stroke:none;stroke-width:1px;stroke-linecap:butt;stroke-linejoin:miter;stroke-opacity:1;fill-opacity:1"
       d="m 614.5423,205.95654 57.6525,80.21219 45.9549,-30.07957 -56.81696,-81.88327 z"
       id="path4317"
       inkscape:connector-curvature="0" />
    <path
       style="fill:none;fill-rule:evenodd;stroke:#ffff00;stroke-width:7.10900021;stroke-linecap:butt;stroke-linejoin:miter;stroke-miterlimit:4;stroke-dasharray:none;stroke-opacity:1"
       d="m 605.69515,206.4566 c 21.8926,29.79826 58.98839,86.35413 63.85341,91.82728 4.86502,5.47315 24.32511,-10.33818 36.48766,-12.16256 12.16255,-1.82438 26.75761,10.33817 35.2714,29.19013 8.51379,18.85196 -6.6894,35.27141 -18.24383,41.96081 -11.55442,6.6894 -34.66327,13.98694 -37.70391,17.6357 -3.04064,3.64877 -13.98694,35.87953 -15.81132,46.2177 -1.82439,10.33818 -9.12192,31.01452 -16.41945,37.70392 -7.29753,6.6894 -24.93323,12.77068 -32.83889,10.9463 -7.90566,-1.82438 -17.63571,-24.93324 -21.8926,-35.87953 -4.25689,-10.9463 -26.14949,-20.06822 -38.31204,-13.37881 -12.16255,6.6894 -38.31204,27.36574 -55.94775,43.17706 -17.92744,14.62893 -54.31947,37.39351 -86.62429,57.9558 -29.82743,18.98541 -55.63232,36.99033 -72.70515,24.14144 -17.63571,-13.98694 -26.75762,-24.32511 -37.70392,-37.09579 -10.9463,-12.77068 3.64877,-32.23077 12.16255,-32.8389 8.51379,-0.60812 39.5283,6.68941 54.12337,4.2569 14.59506,-2.43251 30.40638,-18.24383 30.40638,-30.40638 0,-12.16256 -6.08128,-43.7852 -28.582,-51.69086 -22.50072,-7.90566 -44.39332,-0.60812 -60.20464,20.06822 -15.81132,20.67634 -26.14949,33.44702 -34.05515,42.56893 -7.90566,9.12192 -22.50072,1.82439 -28.582,-6.08127 -24.69277,-31.18169 -55.93456,8.17139 -26.75762,46.82583 8.51379,12.16255 29.79826,36.48766 40.74456,45.00144 10.94629,8.51379 38.31204,23.10885 50.47459,32.8389 12.16256,9.73004 18.85196,22.50072 -1.82438,34.05515 -20.67634,11.55442 -46.82583,17.02757 -46.82583,27.97387 0,10.9463 17.6357,27.36574 26.75762,29.19013 9.12191,1.82438 26.75761,7.90566 34.66327,13.98693 31.87245,24.99227 46.82583,-23.10885 46.82583,-23.10885 6.08128,-4.86502 23.71698,-12.77068 33.44703,-12.77068 9.73004,0 19.46008,-15.81132 15.20319,-24.93323 -4.2569,-9.12192 -26.75762,-43.17707 -23.10885,-50.4746 3.64876,-7.29753 29.79825,-38.92017 42.56893,-46.82583 12.77068,-7.90566 42.56894,-23.10885 53.51524,-24.32511 10.94629,-1.21625 74.19157,4.2569 88.17851,6.08128 13.98693,1.82438 39.5283,12.16255 49.25834,20.06821 9.73004,7.90566 43.17706,44.39332 45.00145,52.90711 1.82438,8.51379 1.82438,31.62264 -11.55443,38.92017 -13.37881,7.29753 -71.15094,8.51379 -93.04353,18.24383 -21.8926,9.73004 -55.94775,38.92017 -63.85341,63.24528 -7.90566,24.3251 7.29753,72.97532 41.96081,61.42089 34.66328,-11.55442 65.06966,-37.09579 75.40783,-52.9071 10.33817,-15.81132 56.55587,-59.59652 69.32656,-67.50218 12.77068,-7.90566 52.29897,-27.36574 65.67778,-52.29897 13.37881,-24.93324 7.29754,-58.98839 16.41945,-77.84035 9.12192,-18.85195 30.40638,-31.01451 34.66328,-44.39331 4.25689,-13.37881 -1.82439,-54.12337 1.82438,-66.28592 3.64877,-12.16255 13.37881,-55.94775 15.81132,-76.01596 2.43251,-20.06821 -4.25689,-34.05515 -24.93323,-35.87953 -20.67635,-1.82438 -42.56894,2.43251 -48.65022,13.98694 -6.08127,11.55442 -13.37881,64.46153 -13.98693,75.40783 -15.52501,33.45946 -56.55588,9.73004 -56.55588,9.73004 -20.67634,-10.9463 -55.33961,-45.60958 -65.06966,-58.38026 -9.73004,-12.77068 -65.06966,-94.86791 -72.97532,-108.85485 -7.90566,-13.98694 1.82439,-34.05515 9.12192,-36.48766 7.29753,-2.43251 25.54136,-9.73004 45.60957,21.28447 z"
       id="path4231-6-1"
       inkscape:connector-curvature="0"
       sodipodi:nodetypes="csssssssssscscsssssssccsssssccsssssssssssssssssssssccsssc" />
  </g>
</svg>
