<?xml version="1.0" encoding="UTF-8" standalone="no"?>
<!-- Created with Inkscape (http://www.inkscape.org/) -->

<svg
   xmlns:dc="http://purl.org/dc/elements/1.1/"
   xmlns:cc="http://creativecommons.org/ns#"
   xmlns:rdf="http://www.w3.org/1999/02/22-rdf-syntax-ns#"
   xmlns:svg="http://www.w3.org/2000/svg"
   xmlns="http://www.w3.org/2000/svg"
   xmlns:sodipodi="http://sodipodi.sourceforge.net/DTD/sodipodi-0.dtd"
   xmlns:inkscape="http://www.inkscape.org/namespaces/inkscape"
   width="1000"
   height="1000"
   id="svg3879"
   version="1.1"
   inkscape:version="0.48.4 r9939"
   sodipodi:docname="3000m.svg">
  <defs
     id="defs3881" />
  <sodipodi:namedview
     id="base"
     pagecolor="#ffffff"
     bordercolor="#666666"
     borderopacity="1.0"
     inkscape:pageopacity="0.0"
     inkscape:pageshadow="2"
     inkscape:zoom="0.7"
     inkscape:cx="258.16417"
     inkscape:cy="567.12623"
     inkscape:document-units="px"
     inkscape:current-layer="layer1"
     showgrid="false"
     inkscape:window-width="1920"
     inkscape:window-height="1056"
     inkscape:window-x="0"
     inkscape:window-y="24"
     inkscape:window-maximized="1" />
  <metadata
     id="metadata3884">
    <rdf:RDF>
      <cc:Work
         rdf:about="">
        <dc:format>image/svg+xml</dc:format>
        <dc:type
           rdf:resource="http://purl.org/dc/dcmitype/StillImage" />
        <dc:title></dc:title>
      </cc:Work>
    </rdf:RDF>
  </metadata>
  <g
     inkscape:label="Layer 1"
     inkscape:groupmode="layer"
     id="layer1"
     transform="translate(0,-52.362183)">
    <path
       style="fill:none;stroke:#cfcfcf;stroke-width:7.10865784;stroke-linecap:butt;stroke-linejoin:miter;stroke-miterlimit:4;stroke-opacity:1;stroke-dasharray:none"
       d="m 129.36727,797.37441 c -5.26923,-11.9755 -3.83217,-19.87933 -1.67657,-22.51394 2.15559,-2.63461 7.1853,-9.10139 11.01745,0.23951 3.83216,9.34088 15.56815,38.80062 17.48424,43.83033 1.91608,5.02971 20.11885,24.66954 28.02267,29.93876 7.90383,5.26922 22.27444,14.37059 44.54887,-6.94579 22.27443,-21.3164 17.24472,-56.04535 17.48422,-72.81106 0.23951,-16.7657 -1.19754,-25.86707 0.47903,-32.33385 1.67657,-6.46677 14.84961,-21.31639 28.26219,-28.50169 13.41256,-7.1853 29.69923,-23.23247 34.96845,-40.47719 5.26924,-17.24472 -1.19754,-27.54366 -0.95803,-34.24995 0.23951,-6.70628 2.87412,-17.96324 16.7657,-18.44227 7.17413,0 132.56141,-15.73008 139.25441,-17.62617 2.12036,-0.60068 12.82356,-6.96463 9.4119,-30.58964 -0.75313,-5.21526 -11.94835,-9.51558 -26.86239,-9.11437 -12.27878,0.33032 -37.65738,4.19537 -51.14677,5.72228 -9.35222,1.05861 -58.38342,-0.46939 -65.79939,-0.94746 -13.91971,-0.89733 -50.22981,4.21809 -62.12559,4.31841 -12.69402,0.47903 -24.13472,-18.24765 -25.12362,-27.92723 -1.23372,-12.07597 -20.83738,-13.17306 -30.65729,0 -9.81991,13.17305 -38.32161,43.59082 -46.22543,65.14673 -7.90383,21.5559 -10.77796,42.87229 -9.10139,48.14152 1.67657,5.26922 12.93355,-1.91609 21.07689,-5.50874 8.14334,-3.59265 22.27443,-4.55068 22.27443,4.31118 0,8.86187 3.59265,18.20277 3.83216,32.09435 0.23952,13.89157 -3.11362,24.66953 -9.58039,32.09434 -6.46678,7.42482 -25.14856,16.28668 -40.71672,23.71149 -15.56815,7.42482 -46.22543,17.48424 -49.09955,25.14855 -2.87413,7.66433 4.55069,63.23066 7.42482,77.84077 2.87411,14.6101 6.94579,15.56815 13.89158,22.99295 6.94578,7.42482 24.90904,18.20277 31.61532,20.11885 6.70628,1.91609 9.10138,-3.59265 4.55068,-15.32864 -4.55068,-11.73599 -33.29188,-72.33203 -33.29188,-72.33203 z"
       id="path3898-0-3"
       inkscape:connector-curvature="0"
       sodipodi:nodetypes="csssssssssscssssscssssssssssssssc" />
    <path
       style="fill:none;stroke:#cfcfcf;stroke-width:7.10865784;stroke-linecap:butt;stroke-linejoin:miter;stroke-miterlimit:4;stroke-opacity:1;stroke-dasharray:none"
       d="m 129.36727,797.37441 c -5.26923,-11.9755 -3.83217,-19.87933 -1.67657,-22.51394 2.15559,-2.63461 7.1853,-9.10139 11.01745,0.23951 3.83216,9.34088 15.56815,38.80062 17.48424,43.83033 1.91608,5.02971 20.11885,24.66954 28.02267,29.93876 7.90383,5.26922 22.27444,14.37059 44.54887,-6.94579 22.27443,-21.3164 17.24472,-56.04535 17.48422,-72.81106 0.23951,-16.7657 -1.19754,-25.86707 0.47903,-32.33385 1.67657,-6.46677 14.84961,-21.31639 28.26219,-28.50169 13.41256,-7.1853 29.69923,-23.23247 34.96845,-40.47719 5.26924,-17.24472 -1.19754,-27.54366 -0.95803,-34.24995 0.23951,-6.70628 3.50461,-14.27709 16.7657,-18.44227 7.31273,-2.29686 6.4729,-21.09038 5.28451,-27.89762 -1.61863,-9.27171 -0.8013,-24.17967 -8.21727,-24.65774 -13.91972,-0.89733 -42.43929,4.21809 -54.33507,4.31841 -12.69402,0.47903 -24.13472,-18.24765 -25.12362,-27.92723 -1.23372,-12.07597 -20.83738,-13.17306 -30.65729,0 -9.81991,13.17305 -38.32161,43.59082 -46.22543,65.14673 -7.90383,21.5559 -10.77796,42.87229 -9.10139,48.14152 1.67657,5.26922 12.93355,-1.91609 21.07689,-5.50874 8.14334,-3.59265 22.27443,-4.55068 22.27443,4.31118 0,8.86187 3.59265,18.20277 3.83216,32.09435 0.23952,13.89157 -3.11362,24.66953 -9.58039,32.09434 -6.46678,7.42482 -25.14856,16.28668 -40.71672,23.71149 -15.56815,7.42482 -46.22543,17.48424 -49.09955,25.14855 -2.87413,7.66433 4.55069,63.23066 7.42482,77.84077 2.87411,14.6101 6.94579,15.56815 13.89158,22.99295 6.94578,7.42482 24.90904,18.20277 31.61532,20.11885 6.70628,1.91609 9.10138,-3.59265 4.55068,-15.32864 -4.55068,-11.73599 -33.29188,-72.33203 -33.29188,-72.33203 z"
       id="path3898-0-3-9"
       inkscape:connector-curvature="0"
       sodipodi:nodetypes="cssssssssssssscssssssssssssssc" />
    <path
       style="fill:#cccccc;stroke:none"
       d="m 147.79966,766.61654 c 0.67742,-0.16935 34.71863,-14.05681 34.71863,-14.05681 l 22.01668,55.04174 -33.02503,13.04064 z"
       id="path4473"
       inkscape:connector-curvature="0"
       sodipodi:nodetypes="ccccc" />
    <path
       style="fill:none;stroke:#cfcfcf;stroke-width:7.10865784000000023;stroke-linecap:butt;stroke-linejoin:miter;stroke-miterlimit:4;stroke-opacity:1;stroke-dasharray:none"
       d="m 129.36727,797.37441 c -5.26923,-11.9755 -3.83217,-19.87933 -1.67657,-22.51393 2.15559,-2.63462 7.1853,-9.10139 11.01745,0.2395 3.83216,9.34089 15.56815,38.80063 17.48424,43.83034 1.91608,5.02971 20.11885,24.66954 28.02267,29.93875 7.90383,5.26922 22.27444,14.3706 44.54887,-6.94578 22.27443,-21.3164 17.24472,-56.04536 17.48422,-72.81106 0.23951,-16.7657 -1.19754,-25.86708 0.47903,-32.33385 1.67657,-6.46677 14.84961,-21.3164 28.26219,-28.5017 13.41256,-7.18529 29.69923,-23.23247 34.96845,-40.47719 5.26924,-17.24472 -1.19754,-27.54366 -0.95803,-34.24994 0.23951,-6.70628 2.87412,-17.96324 16.7657,-18.44227 13.89158,-0.47902 156.87907,-18.20275 230.88768,-26.58561 74.00859,-8.38285 144.18503,-15.08913 157.11857,-17.00522 12.93354,-1.91608 37.36357,-20.83737 46.70445,-38.32159 9.3409,-17.48424 19.16081,-60.35653 18.20277,-73.52958 -0.95805,-13.17306 2.39509,-17.24474 7.90383,-20.83738 5.50873,-3.59265 59.63799,-33.53141 75.68517,-44.06985 16.04717,-10.53843 22.27443,-21.79541 21.07688,-34.01042 -1.19754,-12.21502 -12.21501,-35.20797 -14.61011,-59.15898 -2.3951,-23.951 -24.19052,-45.50691 -31.13631,-56.76387 -6.94578,-11.25697 -7.66431,-18.68179 -21.5559,-26.34611 -13.89158,-7.66432 -22.03492,-13.89157 -25.14855,-6.94579 -3.11364,6.94579 -8.14335,31.61533 -11.9755,41.19572 -3.83216,9.58041 -17.96326,30.8968 -27.54365,37.60308 -9.58041,6.70629 -29.93876,19.1608 -47.6625,25.14856 -17.72374,5.98774 -34.96847,7.90382 -37.12406,11.01745 -2.15558,3.11363 -2.6346,9.58041 -15.56815,5.74825 -12.93354,-3.83217 -39.04013,-15.32864 -55.80583,-17.24473 -16.7657,-1.91608 -53.17123,4.31118 -80.71489,21.5559 -27.54365,17.24473 -48.62054,32.57337 -49.57857,52.69222 -0.95805,20.11884 0.95803,40.7167 -6.70628,51.01563 -7.66433,10.29893 -57.00339,47.90201 -76.40371,61.07506 -19.4003,13.17304 -37.60307,2.87411 -52.6922,-0.71853 -15.08913,-3.59265 -22.03492,-8.38286 -34.72896,-7.90384 -12.69402,0.47903 -25.38806,9.81991 -40.47719,17.24473 -15.08913,7.42481 -31.37582,15.80766 -41.19573,28.98071 -9.81991,13.17306 -38.32161,43.59083 -46.22543,65.14673 -7.90383,21.55591 -10.77796,42.87229 -9.10139,48.14152 1.67657,5.26922 12.93355,-1.91609 21.07689,-5.50874 8.14334,-3.59265 22.27443,-4.55068 22.27443,4.31119 0,8.86187 3.59265,18.20276 3.83216,32.09434 0.23952,13.89158 -3.11362,24.66954 -9.58039,32.09434 -6.46678,7.42482 -25.14856,16.28669 -40.71672,23.71149 -15.56815,7.42482 -46.22543,17.48424 -49.09955,25.14856 -2.87413,7.66432 4.55069,63.23065 7.42482,77.84077 2.87411,14.6101 6.94579,15.56814 13.89158,22.99295 6.94578,7.42482 24.90904,18.20276 31.61532,20.11884 6.70628,1.91609 9.10138,-3.59265 4.55068,-15.32864 -4.55068,-11.73599 -33.29188,-72.33203 -33.29188,-72.33203 z"
       id="path3898"
       inkscape:connector-curvature="0" />
    <text
       xml:space="preserve"
       style="font-size:40px;font-style:normal;font-weight:normal;line-height:125%;letter-spacing:0px;word-spacing:0px;fill:#000000;fill-opacity:1;stroke:none;font-family:Sans"
       x="560"
       y="832.85712"
       id="text4491"
       sodipodi:linespacing="125%"
       transform="translate(0,52.362183)"><tspan
         sodipodi:role="line"
         id="tspan4493"
         x="560"
         y="832.85712" /></text>
    <path
       style="fill:none;stroke:#00a500;stroke-width:7.10865784000000023;stroke-linecap:butt;stroke-linejoin:miter;stroke-miterlimit:4;stroke-opacity:1;stroke-dasharray:none"
       d="m 129.36727,797.37441 c -5.26923,-11.9755 -3.83217,-19.87933 -1.67657,-22.51394 2.15559,-2.63461 7.1853,-9.10139 11.01745,0.23951 3.83216,9.34088 15.56815,38.80062 17.48424,43.83033 1.91608,5.02971 20.11885,24.66954 28.02267,29.93876 7.90383,5.26922 22.27444,14.37059 44.54887,-6.94579 22.27443,-21.3164 17.24472,-56.04535 17.48422,-72.81106 0.23951,-16.7657 -1.19754,-25.86707 0.47903,-32.33385 1.67657,-6.46677 14.84961,-21.31639 28.26219,-28.50169 13.41256,-7.1853 29.69923,-23.23247 34.96845,-40.47719 5.26924,-17.24472 -1.19754,-27.54366 -0.95803,-34.24995 0.23951,-6.70628 2.87412,-17.96324 16.7657,-18.44227 13.89158,-0.47901 156.87907,-18.20275 230.88768,-26.5856 74.00859,-8.38285 144.18503,-15.08913 157.11857,-17.00522 12.93354,-1.91608 37.36357,-20.83737 46.70445,-38.3216 9.3409,-17.48424 19.16081,-60.35652 18.20277,-73.52958 -0.95805,-13.17305 -13.18366,-49.40477 -22.75345,-58.20094 -49.632,-45.61982 -98.53097,-74.63629 -160.71123,-86.46313 -16.7657,-1.91607 -53.17123,4.31119 -80.71489,21.55591 -27.54365,17.24473 -48.62054,32.57337 -49.57857,52.69221 -0.95805,20.11885 0.95803,40.7167 -6.70628,51.01563 -7.66433,10.29893 -57.00339,47.90202 -76.40371,61.07507 -19.4003,13.17304 -37.60307,2.87411 -52.6922,-0.71854 -15.08913,-3.59265 -22.03492,-8.38285 -34.72896,-7.90383 -12.69402,0.47903 -25.38806,9.81991 -40.47719,17.24473 -15.08913,7.4248 -31.37582,15.80765 -41.19573,28.98071 -9.81991,13.17305 -38.32161,43.59082 -46.22543,65.14673 -7.90383,21.5559 -10.77796,42.87229 -9.10139,48.14152 1.67657,5.26922 12.93355,-1.91609 21.07689,-5.50874 8.14334,-3.59265 22.27443,-4.55068 22.27443,4.31118 0,8.86187 3.59265,18.20277 3.83216,32.09435 0.23952,13.89157 -3.11362,24.66953 -9.58039,32.09434 -6.46678,7.42482 -25.14856,16.28668 -40.71672,23.71149 -15.56815,7.42482 -46.22543,17.48424 -49.09955,25.14855 -2.87413,7.66433 4.55069,63.23066 7.42482,77.84077 2.87411,14.6101 6.94579,15.56815 13.89158,22.99295 6.94578,7.42482 24.90904,18.20277 31.61532,20.11885 6.70628,1.91609 9.10138,-3.59265 4.55068,-15.32864 -4.55068,-11.73599 -33.29188,-72.33203 -33.29188,-72.33203 z"
       id="path3898-0"
       inkscape:connector-curvature="0"
       sodipodi:nodetypes="csssssssssssssssscssssssssssssssssssssc" />
  </g>
</svg>
